<svg xmlns="http://www.w3.org/2000/svg" width="1440" height="560" preserveAspectRatio="none"><g mask="url(&quot;#a&quot;)" fill="none"><g mask="url(&quot;#b&quot;)"><path d="m462.5 237.5 225-225h50l100 100h100" stroke-width="4.17" stroke="rgba(1, 235, 182, 1)"/><path d="M456.25 237.5a6.25 6.25 0 1 0 12.5 0 6.25 6.25 0 1 0-12.5 0zm475-125a6.25 6.25 0 1 0 12.5 0 6.25 6.25 0 1 0-12.5 0z" fill="rgba(1, 235, 182, 1)"/><path d="M812.5 512.5h50l50 50h200l175-175" stroke-width="4.17" stroke="rgba(1, 235, 182, 1)"/><path d="M806.25 512.5a6.25 6.25 0 1 0 12.5 0 6.25 6.25 0 1 0-12.5 0zm475-125a6.25 6.25 0 1 0 12.5 0 6.25 6.25 0 1 0-12.5 0z" fill="rgba(1, 235, 182, 1)"/><path d="M887.5 312.5v75l-100 100v75" stroke-width="4.17" stroke="rgba(1, 235, 182, 1)"/><path d="M881.25 312.5a6.25 6.25 0 1 0 12.5 0 6.25 6.25 0 1 0-12.5 0zm-100 250a6.25 6.25 0 1 0 12.5 0 6.25 6.25 0 1 0-12.5 0z" fill="rgba(1, 235, 182, 1)"/><path d="M937.5 187.5h-200l-100-100" stroke-width="4.17" stroke="rgba(1, 235, 182, 1)"/><path d="M931.25 187.5a6.25 6.25 0 1 0 12.5 0 6.25 6.25 0 1 0-12.5 0zm-300-100a6.25 6.25 0 1 0 12.5 0 6.25 6.25 0 1 0-12.5 0z" fill="rgba(1, 235, 182, 1)"/><path d="M12.5 487.5h75l75 75h325" stroke-width="4.17" stroke="rgba(1, 235, 182, 1)"/><path d="M6.25 487.5a6.25 6.25 0 1 0 12.5 0 6.25 6.25 0 1 0-12.5 0zm475 75a6.25 6.25 0 1 0 12.5 0 6.25 6.25 0 1 0-12.5 0z" fill="rgba(1, 235, 182, 1)"/><path d="M412.5 237.5h-200l-25-25v-25l-25-25h-50l-100 100v50" stroke-width="4.17" stroke="rgba(1, 235, 182, 1)"/><path d="M406.25 237.5a6.25 6.25 0 1 0 12.5 0 6.25 6.25 0 1 0-12.5 0zm-400 75a6.25 6.25 0 1 0 12.5 0 6.25 6.25 0 1 0-12.5 0z" fill="rgba(1, 235, 182, 1)"/><path d="M937.5 287.5v125l125 125h50l50-50v-125" stroke-width="4.17" stroke="rgba(1, 235, 182, 1)"/><path d="M931.25 287.5a6.25 6.25 0 1 0 12.5 0 6.25 6.25 0 1 0-12.5 0zm225 75a6.25 6.25 0 1 0 12.5 0 6.25 6.25 0 1 0-12.5 0z" fill="rgba(1, 235, 182, 1)"/><path d="m562.5 412.5 200-200h275" stroke-width="4.17" stroke="rgba(1, 235, 182, 1)"/><path d="M556.25 412.5a6.25 6.25 0 1 0 12.5 0 6.25 6.25 0 1 0-12.5 0zm475-200a6.25 6.25 0 1 0 12.5 0 6.25 6.25 0 1 0-12.5 0z" fill="rgba(1, 235, 182, 1)"/><path d="M712.5 562.5h-25l-300-300h-150" stroke-width="4.17" stroke="rgba(1, 235, 182, 1)"/><path d="M706.25 562.5a6.25 6.25 0 1 0 12.5 0 6.25 6.25 0 1 0-12.5 0zm-475-300a6.25 6.25 0 1 0 12.5 0 6.25 6.25 0 1 0-12.5 0z" fill="rgba(1, 235, 182, 1)"/><path d="m1312.5 12.5 125 125v325l-25 25" stroke-width="4.17" stroke="rgba(1, 235, 182, 1)"/><path d="M1306.25 12.5a6.25 6.25 0 1 0 12.5 0 6.25 6.25 0 1 0-12.5 0zm100 475a6.25 6.25 0 1 0 12.5 0 6.25 6.25 0 1 0-12.5 0z" fill="rgba(1, 235, 182, 1)"/><path d="m1212.5 137.5-125-125h-325" stroke-width="4.17" stroke="rgba(1, 235, 182, 1)"/><path d="M1206.25 137.5a6.25 6.25 0 1 0 12.5 0 6.25 6.25 0 1 0-12.5 0zm-450-125a6.25 6.25 0 1 0 12.5 0 6.25 6.25 0 1 0-12.5 0z" fill="rgba(1, 235, 182, 1)"/><path d="m212.5 337.5-125-125" stroke-width="4.17" stroke="rgba(1, 235, 182, 1)"/><path d="M206.25 337.5a6.25 6.25 0 1 0 12.5 0 6.25 6.25 0 1 0-12.5 0zm-125-125a6.25 6.25 0 1 0 12.5 0 6.25 6.25 0 1 0-12.5 0z" fill="rgba(1, 235, 182, 1)"/><path d="m637.5 462.5 75 75h50" stroke-width="4.17" stroke="rgba(1, 235, 182, 1)"/><path d="M631.25 462.5a6.25 6.25 0 1 0 12.5 0 6.25 6.25 0 1 0-12.5 0zm125 75a6.25 6.25 0 1 0 12.5 0 6.25 6.25 0 1 0-12.5 0z" fill="rgba(1, 235, 182, 1)"/><path d="m987.5 162.5-25-25h-25l-25 25h-125l-100-100h-25" stroke-width="4.17" stroke="rgba(1, 235, 182, 1)"/><path d="M981.25 162.5a6.25 6.25 0 1 0 12.5 0 6.25 6.25 0 1 0-12.5 0zm-325-100a6.25 6.25 0 1 0 12.5 0 6.25 6.25 0 1 0-12.5 0z" fill="rgba(1, 235, 182, 1)"/><path d="M812.5 237.5h475" stroke-width="4.17" stroke="rgba(1, 235, 182, 1)"/><path d="M806.25 237.5a6.25 6.25 0 1 0 12.5 0 6.25 6.25 0 1 0-12.5 0zm475 0a6.25 6.25 0 1 0 12.5 0 6.25 6.25 0 1 0-12.5 0z" fill="rgba(1, 235, 182, 1)"/><path d="m137.5 137.5 125-125h350" stroke-width="4.17" stroke="rgba(1, 235, 182, 1)"/><path d="M131.25 137.5a6.25 6.25 0 1 0 12.5 0 6.25 6.25 0 1 0-12.5 0zm475-125a6.25 6.25 0 1 0 12.5 0 6.25 6.25 0 1 0-12.5 0z" fill="rgba(1, 235, 182, 1)"/><path d="M962.5 87.5v25l50 50h50l50 50h50l150-150h25l75 75" stroke-width="4.17" stroke="rgba(1, 235, 182, 1)"/><path d="M956.25 87.5a6.25 6.25 0 1 0 12.5 0 6.25 6.25 0 1 0-12.5 0zm450 50a6.25 6.25 0 1 0 12.5 0 6.25 6.25 0 1 0-12.5 0z" fill="rgba(1, 235, 182, 1)"/><path d="m212.5 487.5 175-175v-25" stroke-width="4.17" stroke="rgba(1, 235, 182, 1)"/><path d="M206.25 487.5a6.25 6.25 0 1 0 12.5 0 6.25 6.25 0 1 0-12.5 0zm175-200a6.25 6.25 0 1 0 12.5 0 6.25 6.25 0 1 0-12.5 0z" fill="rgba(1, 235, 182, 1)"/><path d="m1337.5 162.5-50-50" stroke-width="4.17" stroke="rgba(1, 235, 182, 1)"/><path d="M1331.25 162.5a6.25 6.25 0 1 0 12.5 0 6.25 6.25 0 1 0-12.5 0zm-50-50a6.25 6.25 0 1 0 12.5 0 6.25 6.25 0 1 0-12.5 0z" fill="rgba(1, 235, 182, 1)"/><path d="M162.5 37.5h50l25-25" stroke-width="4.17" stroke="rgba(1, 235, 182, 1)"/><path d="M156.25 37.5a6.25 6.25 0 1 0 12.5 0 6.25 6.25 0 1 0-12.5 0zm75-25a6.25 6.25 0 1 0 12.5 0 6.25 6.25 0 1 0-12.5 0z" fill="rgba(1, 235, 182, 1)"/><path d="M212.5 137.5h75l100-100h200l25 25" stroke-width="4.17" stroke="rgba(1, 235, 182, 1)"/><path d="M206.25 137.5a6.25 6.25 0 1 0 12.5 0 6.25 6.25 0 1 0-12.5 0zm400-75a6.25 6.25 0 1 0 12.5 0 6.25 6.25 0 1 0-12.5 0z" fill="rgba(1, 235, 182, 1)"/><path d="M162.5 462.5v75" stroke-width="4.17" stroke="rgba(1, 235, 182, 1)"/><path d="M156.25 462.5a6.25 6.25 0 1 0 12.5 0 6.25 6.25 0 1 0-12.5 0zm0 75a6.25 6.25 0 1 0 12.5 0 6.25 6.25 0 1 0-12.5 0z" fill="rgba(1, 235, 182, 1)"/><path d="m312.5 412.5 125 125h150l25-25" stroke-width="4.17" stroke="rgba(1, 235, 182, 1)"/><path d="M306.25 412.5a6.25 6.25 0 1 0 12.5 0 6.25 6.25 0 1 0-12.5 0zm300 100a6.25 6.25 0 1 0 12.5 0 6.25 6.25 0 1 0-12.5 0z" fill="rgba(1, 235, 182, 1)"/><path d="m1312.5 512.5 50 50h75" stroke-width="4.17" stroke="rgba(1, 235, 182, 1)"/><path d="M1306.25 512.5a6.25 6.25 0 1 0 12.5 0 6.25 6.25 0 1 0-12.5 0zm125 50a6.25 6.25 0 1 0 12.5 0 6.25 6.25 0 1 0-12.5 0z" fill="rgba(1, 235, 182, 1)"/><path d="M537.5 137.5v-75" stroke-width="4.17" stroke="rgba(1, 235, 182, 1)"/><path d="M531.25 137.5a6.25 6.25 0 1 0 12.5 0 6.25 6.25 0 1 0-12.5 0zm0-75a6.25 6.25 0 1 0 12.5 0 6.25 6.25 0 1 0-12.5 0z" fill="rgba(1, 235, 182, 1)"/><path d="m837.5 87.5 50-50h200l100 100v25l-25 25h-50l-25-25" stroke-width="4.17" stroke="rgba(1, 235, 182, 1)"/><path d="M831.25 87.5a6.25 6.25 0 1 0 12.5 0 6.25 6.25 0 1 0-12.5 0zm250 75a6.25 6.25 0 1 0 12.5 0 6.25 6.25 0 1 0-12.5 0z" fill="rgba(1, 235, 182, 1)"/><path d="m1362.5 187.5 50 50v225l-50 50h-25l-50-50h-50l-25 25" stroke-width="4.17" stroke="rgba(1, 235, 182, 1)"/><path d="M1356.25 187.5a6.25 6.25 0 1 0 12.5 0 6.25 6.25 0 1 0-12.5 0zm-150 300a6.25 6.25 0 1 0 12.5 0 6.25 6.25 0 1 0-12.5 0z" fill="rgba(1, 235, 182, 1)"/><path d="M1062.5 137.5h100" stroke-width="4.17" stroke="rgba(1, 235, 182, 1)"/><path d="M1056.25 137.5a6.25 6.25 0 1 0 12.5 0 6.25 6.25 0 1 0-12.5 0zm100 0a6.25 6.25 0 1 0 12.5 0 6.25 6.25 0 1 0-12.5 0z" fill="rgba(1, 235, 182, 1)"/><path d="m862.5 437.5-50 50" stroke-width="4.17" stroke="rgba(1, 235, 182, 1)"/><path d="M856.25 437.5a6.25 6.25 0 1 0 12.5 0 6.25 6.25 0 1 0-12.5 0zm-50 50a6.25 6.25 0 1 0 12.5 0 6.25 6.25 0 1 0-12.5 0z" fill="rgba(1, 235, 182, 1)"/><path d="M437.5 137.5v150l50 50h50l25 25v25" stroke-width="4.17" stroke="rgba(1, 235, 182, 1)"/><path d="M431.25 137.5a6.25 6.25 0 1 0 12.5 0 6.25 6.25 0 1 0-12.5 0zm125 250a6.25 6.25 0 1 0 12.5 0 6.25 6.25 0 1 0-12.5 0z" fill="rgba(1, 235, 182, 1)"/><path d="M1287.5 537.5h25l25 25" stroke-width="4.17" stroke="rgba(1, 235, 182, 1)"/><path d="M1281.25 537.5a6.25 6.25 0 1 0 12.5 0 6.25 6.25 0 1 0-12.5 0zm50 25a6.25 6.25 0 1 0 12.5 0 6.25 6.25 0 1 0-12.5 0z" fill="rgba(1, 235, 182, 1)"/><path d="M1062.5 87.5v25l-25 25h-25l-25-25v-50" stroke-width="4.17" stroke="rgba(1, 235, 182, 1)"/><path d="M1056.25 87.5a6.25 6.25 0 1 0 12.5 0 6.25 6.25 0 1 0-12.5 0zm-75-25a6.25 6.25 0 1 0 12.5 0 6.25 6.25 0 1 0-12.5 0z" fill="rgba(1, 235, 182, 1)"/><path d="m62.5 187.5 125-125" stroke-width="4.17" stroke="rgba(1, 235, 182, 1)"/><path d="M56.25 187.5a6.25 6.25 0 1 0 12.5 0 6.25 6.25 0 1 0-12.5 0zm125-125a6.25 6.25 0 1 0 12.5 0 6.25 6.25 0 1 0-12.5 0z" fill="rgba(1, 235, 182, 1)"/><path d="M312.5 62.5h25l25-25" stroke-width="4.17" stroke="rgba(1, 235, 182, 1)"/><path d="M306.25 62.5a6.25 6.25 0 1 0 12.5 0 6.25 6.25 0 1 0-12.5 0zm50-25a6.25 6.25 0 1 0 12.5 0 6.25 6.25 0 1 0-12.5 0z" fill="rgba(1, 235, 182, 1)"/><path d="m712.5 237.5-125 125" stroke-width="4.17" stroke="rgba(1, 235, 182, 1)"/><path d="M706.25 237.5a6.25 6.25 0 1 0 12.5 0 6.25 6.25 0 1 0-12.5 0zm-125 125a6.25 6.25 0 1 0 12.5 0 6.25 6.25 0 1 0-12.5 0z" fill="rgba(1, 235, 182, 1)"/><path d="m287.5 512.5-25 25h-75" stroke-width="4.17" stroke="rgba(1, 235, 182, 1)"/><path d="M281.25 512.5a6.25 6.25 0 1 0 12.5 0 6.25 6.25 0 1 0-12.5 0zm-100 25a6.25 6.25 0 1 0 12.5 0 6.25 6.25 0 1 0-12.5 0z" fill="rgba(1, 235, 182, 1)"/><path d="m587.5 412.5 150-150h325" stroke-width="4.17" stroke="rgba(1, 235, 182, 1)"/><path d="M581.25 412.5a6.25 6.25 0 1 0 12.5 0 6.25 6.25 0 1 0-12.5 0zm475-150a6.25 6.25 0 1 0 12.5 0 6.25 6.25 0 1 0-12.5 0z" fill="rgba(1, 235, 182, 1)"/><path d="m37.5 112.5-25 25v50l25 25" stroke-width="4.17" stroke="rgba(1, 235, 182, 1)"/><path d="M31.25 112.5a6.25 6.25 0 1 0 12.5 0 6.25 6.25 0 1 0-12.5 0zm0 100a6.25 6.25 0 1 0 12.5 0 6.25 6.25 0 1 0-12.5 0z" fill="rgba(1, 235, 182, 1)"/><path d="M1187.5 362.5h200" stroke-width="4.17" stroke="rgba(1, 235, 182, 1)"/><path d="M1181.25 362.5a6.25 6.25 0 1 0 12.5 0 6.25 6.25 0 1 0-12.5 0zm200 0a6.25 6.25 0 1 0 12.5 0 6.25 6.25 0 1 0-12.5 0z" fill="rgba(1, 235, 182, 1)"/><path d="m637.5 387.5-50 50" stroke-width="4.17" stroke="rgba(1, 235, 182, 1)"/><path d="M631.25 387.5a6.25 6.25 0 1 0 12.5 0 6.25 6.25 0 1 0-12.5 0zm-50 50a6.25 6.25 0 1 0 12.5 0 6.25 6.25 0 1 0-12.5 0z" fill="rgba(1, 235, 182, 1)"/><path d="M1237.5 562.5v-75" stroke-width="4.17" stroke="rgba(1, 235, 182, 1)"/><path d="M1231.25 562.5a6.25 6.25 0 1 0 12.5 0 6.25 6.25 0 1 0-12.5 0zm0-75a6.25 6.25 0 1 0 12.5 0 6.25 6.25 0 1 0-12.5 0z" fill="rgba(1, 235, 182, 1)"/><path d="M812.5 362.5v75l-50 50v25" stroke-width="4.17" stroke="rgba(1, 235, 182, 1)"/><path d="M806.25 362.5a6.25 6.25 0 1 0 12.5 0 6.25 6.25 0 1 0-12.5 0zm-50 150a6.25 6.25 0 1 0 12.5 0 6.25 6.25 0 1 0-12.5 0z" fill="rgba(1, 235, 182, 1)"/><path d="M262.5 337.5h75l25-25v-25" stroke-width="4.17" stroke="rgba(1, 235, 182, 1)"/><path d="M256.25 337.5a6.25 6.25 0 1 0 12.5 0 6.25 6.25 0 1 0-12.5 0zm100-50a6.25 6.25 0 1 0 12.5 0 6.25 6.25 0 1 0-12.5 0z" fill="rgba(1, 235, 182, 1)"/><path d="m787.5 387.5-100 100" stroke-width="4.17" stroke="rgba(1, 235, 182, 1)"/><path d="M781.25 387.5a6.25 6.25 0 1 0 12.5 0 6.25 6.25 0 1 0-12.5 0zm-100 100a6.25 6.25 0 1 0 12.5 0 6.25 6.25 0 1 0-12.5 0z" fill="rgba(1, 235, 182, 1)"/><path d="m1137.5 287.5 50 50h200" stroke-width="4.17" stroke="rgba(1, 235, 182, 1)"/><path d="M1131.25 287.5a6.25 6.25 0 1 0 12.5 0 6.25 6.25 0 1 0-12.5 0zm250 50a6.25 6.25 0 1 0 12.5 0 6.25 6.25 0 1 0-12.5 0z" fill="rgba(1, 235, 182, 1)"/><path d="M562.5 237.5v100" stroke-width="4.17" stroke="rgba(1, 235, 182, 1)"/><path d="M556.25 237.5a6.25 6.25 0 1 0 12.5 0 6.25 6.25 0 1 0-12.5 0zm0 100a6.25 6.25 0 1 0 12.5 0 6.25 6.25 0 1 0-12.5 0z" fill="rgba(1, 235, 182, 1)"/><path d="m387.5 87.5 25 25h100" stroke-width="4.17" stroke="rgba(1, 235, 182, 1)"/><path d="M381.25 87.5a6.25 6.25 0 1 0 12.5 0 6.25 6.25 0 1 0-12.5 0zm125 25a6.25 6.25 0 1 0 12.5 0 6.25 6.25 0 1 0-12.5 0z" fill="rgba(1, 235, 182, 1)"/><path d="M1337.5 137.5v-50" stroke-width="4.17" stroke="rgba(1, 235, 182, 1)"/><path d="M1331.25 137.5a6.25 6.25 0 1 0 12.5 0 6.25 6.25 0 1 0-12.5 0zm0-50a6.25 6.25 0 1 0 12.5 0 6.25 6.25 0 1 0-12.5 0z" fill="rgba(1, 235, 182, 1)"/><path d="m287.5 487.5-25 25h-75" stroke-width="4.17" stroke="rgba(1, 235, 182, 1)"/><path d="M281.25 487.5a6.25 6.25 0 1 0 12.5 0 6.25 6.25 0 1 0-12.5 0zm-100 25a6.25 6.25 0 1 0 12.5 0 6.25 6.25 0 1 0-12.5 0z" fill="rgba(1, 235, 182, 1)"/><path d="m787.5 412.5-50 50" stroke-width="4.17" stroke="rgba(1, 235, 182, 1)"/><path d="M781.25 412.5a6.25 6.25 0 1 0 12.5 0 6.25 6.25 0 1 0-12.5 0zm-50 50a6.25 6.25 0 1 0 12.5 0 6.25 6.25 0 1 0-12.5 0z" fill="rgba(1, 235, 182, 1)"/><path d="m337.5 312.5-25-25h-125l-75-75v-25" stroke-width="4.17" stroke="rgba(1, 235, 182, 1)"/><path d="M331.25 312.5a6.25 6.25 0 1 0 12.5 0 6.25 6.25 0 1 0-12.5 0zm-225-125a6.25 6.25 0 1 0 12.5 0 6.25 6.25 0 1 0-12.5 0z" fill="rgba(1, 235, 182, 1)"/><path d="m1087.5 362.5-25-25v-50l25-25h300" stroke-width="4.17" stroke="rgba(1, 235, 182, 1)"/><path d="M1081.25 362.5a6.25 6.25 0 1 0 12.5 0 6.25 6.25 0 1 0-12.5 0zm300-100a6.25 6.25 0 1 0 12.5 0 6.25 6.25 0 1 0-12.5 0z" fill="rgba(1, 235, 182, 1)"/><path d="m462.5 387.5-75 75" stroke-width="4.17" stroke="rgba(1, 235, 182, 1)"/><path d="M456.25 387.5a6.25 6.25 0 1 0 12.5 0 6.25 6.25 0 1 0-12.5 0zm-75 75a6.25 6.25 0 1 0 12.5 0 6.25 6.25 0 1 0-12.5 0z" fill="rgba(1, 235, 182, 1)"/><path d="M87.5 112.5h25l50-50" stroke-width="4.17" stroke="rgba(1, 235, 182, 1)"/><path d="M81.25 112.5a6.25 6.25 0 1 0 12.5 0 6.25 6.25 0 1 0-12.5 0zm75-50a6.25 6.25 0 1 0 12.5 0 6.25 6.25 0 1 0-12.5 0z" fill="rgba(1, 235, 182, 1)"/><path d="M612.5 462.5v-25l100-100h150" stroke-width="4.17" stroke="rgba(1, 235, 182, 1)"/><path d="M606.25 462.5a6.25 6.25 0 1 0 12.5 0 6.25 6.25 0 1 0-12.5 0zm250-125a6.25 6.25 0 1 0 12.5 0 6.25 6.25 0 1 0-12.5 0z" fill="rgba(1, 235, 182, 1)"/><path d="M762.5 87.5v25l25 25h125" stroke-width="4.17" stroke="rgba(1, 235, 182, 1)"/><path d="M756.25 87.5a6.25 6.25 0 1 0 12.5 0 6.25 6.25 0 1 0-12.5 0zm150 50a6.25 6.25 0 1 0 12.5 0 6.25 6.25 0 1 0-12.5 0z" fill="rgba(1, 235, 182, 1)"/><path d="M1062.5 387.5v125" stroke-width="4.17" stroke="rgba(1, 235, 182, 1)"/><path d="M1056.25 387.5a6.25 6.25 0 1 0 12.5 0 6.25 6.25 0 1 0-12.5 0zm0 125a6.25 6.25 0 1 0 12.5 0 6.25 6.25 0 1 0-12.5 0z" fill="rgba(1, 235, 182, 1)"/><path d="M987.5 312.5v125l50 50" stroke-width="4.17" stroke="rgba(1, 235, 182, 1)"/><path d="M981.25 312.5a6.25 6.25 0 1 0 12.5 0 6.25 6.25 0 1 0-12.5 0zm50 175a6.25 6.25 0 1 0 12.5 0 6.25 6.25 0 1 0-12.5 0z" fill="rgba(1, 235, 182, 1)"/><path d="M487.5 137.5v50l-25 25" stroke-width="4.17" stroke="rgba(1, 235, 182, 1)"/><path d="M481.25 137.5a6.25 6.25 0 1 0 12.5 0 6.25 6.25 0 1 0-12.5 0zm-25 75a6.25 6.25 0 1 0 12.5 0 6.25 6.25 0 1 0-12.5 0z" fill="rgba(1, 235, 182, 1)"/><path d="M237.5 312.5v100l-50 50v25" stroke-width="4.17" stroke="rgba(1, 235, 182, 1)"/><path d="M231.25 312.5a6.25 6.25 0 1 0 12.5 0 6.25 6.25 0 1 0-12.5 0zm-50 175a6.25 6.25 0 1 0 12.5 0 6.25 6.25 0 1 0-12.5 0z" fill="rgba(1, 235, 182, 1)"/><path d="M1437.5 37.5v75" stroke-width="4.17" stroke="rgba(1, 235, 182, 1)"/><path d="M1431.25 37.5a6.25 6.25 0 1 0 12.5 0 6.25 6.25 0 1 0-12.5 0zm0 75a6.25 6.25 0 1 0 12.5 0 6.25 6.25 0 1 0-12.5 0z" fill="rgba(1, 235, 182, 1)"/><path d="M662.5 162.5h25l50 50" stroke-width="4.17" stroke="rgba(1, 235, 182, 1)"/><path d="M656.25 162.5a6.25 6.25 0 1 0 12.5 0 6.25 6.25 0 1 0-12.5 0zm75 50a6.25 6.25 0 1 0 12.5 0 6.25 6.25 0 1 0-12.5 0z" fill="rgba(1, 235, 182, 1)"/><path d="m12.5 62.5 25 25h75l25-25v-50" stroke-width="4.17" stroke="rgba(1, 235, 182, 1)"/><path d="M6.25 62.5a6.25 6.25 0 1 0 12.5 0 6.25 6.25 0 1 0-12.5 0zm125-50a6.25 6.25 0 1 0 12.5 0 6.25 6.25 0 1 0-12.5 0z" fill="rgba(1, 235, 182, 1)"/><path d="M1262.5 62.5v25l-25 25h-25l-100-100" stroke-width="4.17" stroke="rgba(1, 235, 182, 1)"/><path d="M1256.25 62.5a6.25 6.25 0 1 0 12.5 0 6.25 6.25 0 1 0-12.5 0zm-150-50a6.25 6.25 0 1 0 12.5 0 6.25 6.25 0 1 0-12.5 0z" fill="rgba(1, 235, 182, 1)"/><path d="m1437.5 12.5-50 50" stroke-width="4.17" stroke="rgba(1, 235, 182, 1)"/><path d="M1431.25 12.5a6.25 6.25 0 1 0 12.5 0 6.25 6.25 0 1 0-12.5 0zm-50 50a6.25 6.25 0 1 0 12.5 0 6.25 6.25 0 1 0-12.5 0z" fill="rgba(1, 235, 182, 1)"/><path d="M512.5 437.5h25l50 50v25" stroke-width="4.17" stroke="rgba(1, 235, 182, 1)"/><path d="M506.25 437.5a6.25 6.25 0 1 0 12.5 0 6.25 6.25 0 1 0-12.5 0zm75 75a6.25 6.25 0 1 0 12.5 0 6.25 6.25 0 1 0-12.5 0z" fill="rgba(1, 235, 182, 1)"/><path d="M812.5 312.5h-100" stroke-width="4.17" stroke="rgba(1, 235, 182, 1)"/><path d="M806.25 312.5a6.25 6.25 0 1 0 12.5 0 6.25 6.25 0 1 0-12.5 0zm-100 0a6.25 6.25 0 1 0 12.5 0 6.25 6.25 0 1 0-12.5 0z" fill="rgba(1, 235, 182, 1)"/><path d="M462.5 62.5h-75" stroke-width="4.17" stroke="rgba(1, 235, 182, 1)"/><path d="M456.25 62.5a6.25 6.25 0 1 0 12.5 0 6.25 6.25 0 1 0-12.5 0zm-75 0a6.25 6.25 0 1 0 12.5 0 6.25 6.25 0 1 0-12.5 0z" fill="rgba(1, 235, 182, 1)"/><path d="M862.5 487.5h125l50 50" stroke-width="4.17" stroke="rgba(1, 235, 182, 1)"/><path d="M856.25 487.5a6.25 6.25 0 1 0 12.5 0 6.25 6.25 0 1 0-12.5 0zm175 50a6.25 6.25 0 1 0 12.5 0 6.25 6.25 0 1 0-12.5 0z" fill="rgba(1, 235, 182, 1)"/><path d="M1337.5 462.5v-75" stroke-width="4.17" stroke="rgba(1, 235, 182, 1)"/><path d="M1331.25 462.5a6.25 6.25 0 1 0 12.5 0 6.25 6.25 0 1 0-12.5 0zm0-75a6.25 6.25 0 1 0 12.5 0 6.25 6.25 0 1 0-12.5 0z" fill="rgba(1, 235, 182, 1)"/><path d="M187.5 437.5h-100l-75-75v-25l75-75h25l50 50v25l-50 50h-50" stroke-width="4.17" stroke="rgba(1, 235, 182, 1)"/><path d="M181.25 437.5a6.25 6.25 0 1 0 12.5 0 6.25 6.25 0 1 0-12.5 0zm-125-50a6.25 6.25 0 1 0 12.5 0 6.25 6.25 0 1 0-12.5 0z" fill="rgba(1, 235, 182, 1)"/><path d="M962.5 512.5h25l25 25" stroke-width="4.17" stroke="rgba(1, 235, 182, 1)"/><path d="M956.25 512.5a6.25 6.25 0 1 0 12.5 0 6.25 6.25 0 1 0-12.5 0zm50 25a6.25 6.25 0 1 0 12.5 0 6.25 6.25 0 1 0-12.5 0z" fill="rgba(1, 235, 182, 1)"/><path d="m537.5 487.5-75-75" stroke-width="4.17" stroke="rgba(1, 235, 182, 1)"/><path d="M531.25 487.5a6.25 6.25 0 1 0 12.5 0 6.25 6.25 0 1 0-12.5 0zm-75-75a6.25 6.25 0 1 0 12.5 0 6.25 6.25 0 1 0-12.5 0z" fill="rgba(1, 235, 182, 1)"/><path d="m337.5 462.5-25-25h-25l-50 50" stroke-width="4.17" stroke="rgba(1, 235, 182, 1)"/><path d="M331.25 462.5a6.25 6.25 0 1 0 12.5 0 6.25 6.25 0 1 0-12.5 0zm-100 25a6.25 6.25 0 1 0 12.5 0 6.25 6.25 0 1 0-12.5 0z" fill="rgba(1, 235, 182, 1)"/><path d="M312.5 312.5h-50" stroke-width="4.17" stroke="rgba(1, 235, 182, 1)"/><path d="M306.25 312.5a6.25 6.25 0 1 0 12.5 0 6.25 6.25 0 1 0-12.5 0zm-50 0a6.25 6.25 0 1 0 12.5 0 6.25 6.25 0 1 0-12.5 0z" fill="rgba(1, 235, 182, 1)"/><path d="M262.5 62.5h25l25-25h25" stroke-width="4.17" stroke="rgba(1, 235, 182, 1)"/><path d="M256.25 62.5a6.25 6.25 0 1 0 12.5 0 6.25 6.25 0 1 0-12.5 0zm75-25a6.25 6.25 0 1 0 12.5 0 6.25 6.25 0 1 0-12.5 0z" fill="rgba(1, 235, 182, 1)"/><path d="M362.5 387.5h75l25-25" stroke-width="4.17" stroke="rgba(1, 235, 182, 1)"/><path d="M356.25 387.5a6.25 6.25 0 1 0 12.5 0 6.25 6.25 0 1 0-12.5 0zm100-25a6.25 6.25 0 1 0 12.5 0 6.25 6.25 0 1 0-12.5 0z" fill="rgba(1, 235, 182, 1)"/><path d="M562.5 562.5h-50" stroke-width="4.17" stroke="rgba(1, 235, 182, 1)"/><path d="M556.25 562.5a6.25 6.25 0 1 0 12.5 0 6.25 6.25 0 1 0-12.5 0zm-50 0a6.25 6.25 0 1 0 12.5 0 6.25 6.25 0 1 0-12.5 0z" fill="rgba(1, 235, 182, 1)"/><path d="M612.5 187.5h-75l-75 75v25l25 25h50" stroke-width="4.17" stroke="rgba(1, 235, 182, 1)"/><path d="M606.25 187.5a6.25 6.25 0 1 0 12.5 0 6.25 6.25 0 1 0-12.5 0zm-75 125a6.25 6.25 0 1 0 12.5 0 6.25 6.25 0 1 0-12.5 0z" fill="rgba(1, 235, 182, 1)"/><path d="m637.5 437.5 25 25h25" stroke-width="4.17" stroke="rgba(1, 235, 182, 1)"/><path d="M631.25 437.5a6.25 6.25 0 1 0 12.5 0 6.25 6.25 0 1 0-12.5 0zm50 25a6.25 6.25 0 1 0 12.5 0 6.25 6.25 0 1 0-12.5 0z" fill="rgba(1, 235, 182, 1)"/><path d="m1337.5 12.5 25 25h25l25-25" stroke-width="4.17" stroke="rgba(1, 235, 182, 1)"/><path d="M1331.25 12.5a6.25 6.25 0 1 0 12.5 0 6.25 6.25 0 1 0-12.5 0zm75 0a6.25 6.25 0 1 0 12.5 0 6.25 6.25 0 1 0-12.5 0z" fill="rgba(1, 235, 182, 1)"/><path d="m587.5 562.5 25-25h25l25 25" stroke-width="4.17" stroke="rgba(1, 235, 182, 1)"/><path d="M581.25 562.5a6.25 6.25 0 1 0 12.5 0 6.25 6.25 0 1 0-12.5 0zm75 0a6.25 6.25 0 1 0 12.5 0 6.25 6.25 0 1 0-12.5 0z" fill="rgba(1, 235, 182, 1)"/><path d="M37.5 512.5h50" stroke-width="4.17" stroke="rgba(1, 235, 182, 1)"/><path d="M31.25 512.5a6.25 6.25 0 1 0 12.5 0 6.25 6.25 0 1 0-12.5 0zm50 0a6.25 6.25 0 1 0 12.5 0 6.25 6.25 0 1 0-12.5 0z" fill="rgba(1, 235, 182, 1)"/><path d="m162.5 137.5 75 75h25l75-75v-25l25-25" stroke-width="4.17" stroke="rgba(1, 235, 182, 1)"/><path d="M156.25 137.5a6.25 6.25 0 1 0 12.5 0 6.25 6.25 0 1 0-12.5 0zm200-50a6.25 6.25 0 1 0 12.5 0 6.25 6.25 0 1 0-12.5 0z" fill="rgba(1, 235, 182, 1)"/><path d="M112.5 337.5h-75" stroke-width="4.17" stroke="rgba(1, 235, 182, 1)"/><path d="M106.25 337.5a6.25 6.25 0 1 0 12.5 0 6.25 6.25 0 1 0-12.5 0zm-75 0a6.25 6.25 0 1 0 12.5 0 6.25 6.25 0 1 0-12.5 0z" fill="rgba(1, 235, 182, 1)"/><path d="m1087.5 62.5 50 50" stroke-width="4.17" stroke="rgba(1, 235, 182, 1)"/><path d="M1081.25 62.5a6.25 6.25 0 1 0 12.5 0 6.25 6.25 0 1 0-12.5 0zm50 50a6.25 6.25 0 1 0 12.5 0 6.25 6.25 0 1 0-12.5 0z" fill="rgba(1, 235, 182, 1)"/><path d="m1037.5 412.5-25-25v-75l25-25" stroke-width="4.17" stroke="rgba(1, 235, 182, 1)"/><path d="M1031.25 412.5a6.25 6.25 0 1 0 12.5 0 6.25 6.25 0 1 0-12.5 0zm0-125a6.25 6.25 0 1 0 12.5 0 6.25 6.25 0 1 0-12.5 0z" fill="rgba(1, 235, 182, 1)"/><path d="m312.5 187.5 75-75" stroke-width="4.17" stroke="rgba(1, 235, 182, 1)"/><path d="M306.25 187.5a6.25 6.25 0 1 0 12.5 0 6.25 6.25 0 1 0-12.5 0zm75-75a6.25 6.25 0 1 0 12.5 0 6.25 6.25 0 1 0-12.5 0z" fill="rgba(1, 235, 182, 1)"/><path d="M987.5 537.5h-75l-25-25" stroke-width="4.17" stroke="rgba(1, 235, 182, 1)"/><path d="M981.25 537.5a6.25 6.25 0 1 0 12.5 0 6.25 6.25 0 1 0-12.5 0zm-100-25a6.25 6.25 0 1 0 12.5 0 6.25 6.25 0 1 0-12.5 0z" fill="rgba(1, 235, 182, 1)"/><path d="M837.5 62.5h-25l-25-25" stroke-width="4.17" stroke="rgba(1, 235, 182, 1)"/><path d="M831.25 62.5a6.25 6.25 0 1 0 12.5 0 6.25 6.25 0 1 0-12.5 0zm-50-25a6.25 6.25 0 1 0 12.5 0 6.25 6.25 0 1 0-12.5 0z" fill="rgba(1, 235, 182, 1)"/><path d="M1337.5 187.5v50" stroke-width="4.17" stroke="rgba(1, 235, 182, 1)"/><path d="M1331.25 187.5a6.25 6.25 0 1 0 12.5 0 6.25 6.25 0 1 0-12.5 0zm0 50a6.25 6.25 0 1 0 12.5 0 6.25 6.25 0 1 0-12.5 0z" fill="rgba(1, 235, 182, 1)"/><path d="M1362.5 387.5v100" stroke-width="4.17" stroke="rgba(1, 235, 182, 1)"/><path d="M1356.25 387.5a6.25 6.25 0 1 0 12.5 0 6.25 6.25 0 1 0-12.5 0zm0 100a6.25 6.25 0 1 0 12.5 0 6.25 6.25 0 1 0-12.5 0z" fill="rgba(1, 235, 182, 1)"/><path d="m437.5 437.5 50 50v25" stroke-width="4.17" stroke="rgba(1, 235, 182, 1)"/><path d="M431.25 437.5a6.25 6.25 0 1 0 12.5 0 6.25 6.25 0 1 0-12.5 0zm50 75a6.25 6.25 0 1 0 12.5 0 6.25 6.25 0 1 0-12.5 0z" fill="rgba(1, 235, 182, 1)"/><path d="m1212.5 212.5 75-75" stroke-width="4.17" stroke="rgba(1, 235, 182, 1)"/><path d="M1206.25 212.5a6.25 6.25 0 1 0 12.5 0 6.25 6.25 0 1 0-12.5 0zm75-75a6.25 6.25 0 1 0 12.5 0 6.25 6.25 0 1 0-12.5 0z" fill="rgba(1, 235, 182, 1)"/><path d="M637.5 237.5h-50l-25-25h-25l-25 25v25l25 25" stroke-width="4.17" stroke="rgba(1, 235, 182, 1)"/><path d="M631.25 237.5a6.25 6.25 0 1 0 12.5 0 6.25 6.25 0 1 0-12.5 0zm-100 50a6.25 6.25 0 1 0 12.5 0 6.25 6.25 0 1 0-12.5 0z" fill="rgba(1, 235, 182, 1)"/><path d="M1387.5 187.5v-50l-25-25" stroke-width="4.17" stroke="rgba(1, 235, 182, 1)"/><path d="M1381.25 187.5a6.25 6.25 0 1 0 12.5 0 6.25 6.25 0 1 0-12.5 0zm-25-75a6.25 6.25 0 1 0 12.5 0 6.25 6.25 0 1 0-12.5 0z" fill="rgba(1, 235, 182, 1)"/><path d="M337.5 487.5h25l50 50" stroke-width="4.17" stroke="rgba(1, 235, 182, 1)"/><path d="M331.25 487.5a6.25 6.25 0 1 0 12.5 0 6.25 6.25 0 1 0-12.5 0zm75 50a6.25 6.25 0 1 0 12.5 0 6.25 6.25 0 1 0-12.5 0z" fill="rgba(1, 235, 182, 1)"/><path d="M712.5 37.5v25l25 25" stroke-width="4.17" stroke="rgba(1, 235, 182, 1)"/><path d="M706.25 37.5a6.25 6.25 0 1 0 12.5 0 6.25 6.25 0 1 0-12.5 0zm25 50a6.25 6.25 0 1 0 12.5 0 6.25 6.25 0 1 0-12.5 0z" fill="rgba(1, 235, 182, 1)"/><path d="M1187.5 412.5v50" stroke-width="4.17" stroke="rgba(1, 235, 182, 1)"/><path d="M1181.25 412.5a6.25 6.25 0 1 0 12.5 0 6.25 6.25 0 1 0-12.5 0zm0 50a6.25 6.25 0 1 0 12.5 0 6.25 6.25 0 1 0-12.5 0z" fill="rgba(1, 235, 182, 1)"/><path d="M812.5 287.5h-75" stroke-width="4.17" stroke="rgba(1, 235, 182, 1)"/><path d="M806.25 287.5a6.25 6.25 0 1 0 12.5 0 6.25 6.25 0 1 0-12.5 0zm-75 0a6.25 6.25 0 1 0 12.5 0 6.25 6.25 0 1 0-12.5 0z" fill="rgba(1, 235, 182, 1)"/><path d="m612.5 162.5 75 75" stroke-width="4.17" stroke="rgba(1, 235, 182, 1)"/><path d="M606.25 162.5a6.25 6.25 0 1 0 12.5 0 6.25 6.25 0 1 0-12.5 0zm75 75a6.25 6.25 0 1 0 12.5 0 6.25 6.25 0 1 0-12.5 0z" fill="rgba(1, 235, 182, 1)"/><path d="M862.5 362.5v25l-25 25" stroke-width="4.17" stroke="rgba(1, 235, 182, 1)"/><path d="M856.25 362.5a6.25 6.25 0 1 0 12.5 0 6.25 6.25 0 1 0-12.5 0zm-25 50a6.25 6.25 0 1 0 12.5 0 6.25 6.25 0 1 0-12.5 0z" fill="rgba(1, 235, 182, 1)"/><path d="m1237.5 62.5 25-25h25" stroke-width="4.17" stroke="rgba(1, 235, 182, 1)"/><path d="M1231.25 62.5a6.25 6.25 0 1 0 12.5 0 6.25 6.25 0 1 0-12.5 0zm50-25a6.25 6.25 0 1 0 12.5 0 6.25 6.25 0 1 0-12.5 0z" fill="rgba(1, 235, 182, 1)"/><path d="M1087.5 512.5v-125l50-50v-25l-25-25h-25" stroke-width="4.17" stroke="rgba(1, 235, 182, 1)"/><path d="M1081.25 512.5a6.25 6.25 0 1 0 12.5 0 6.25 6.25 0 1 0-12.5 0zm0-225a6.25 6.25 0 1 0 12.5 0 6.25 6.25 0 1 0-12.5 0z" fill="rgba(1, 235, 182, 1)"/><path d="M587.5 212.5h50" stroke-width="4.17" stroke="rgba(1, 235, 182, 1)"/><path d="M581.25 212.5a6.25 6.25 0 1 0 12.5 0 6.25 6.25 0 1 0-12.5 0zm50 0a6.25 6.25 0 1 0 12.5 0 6.25 6.25 0 1 0-12.5 0z" fill="rgba(1, 235, 182, 1)"/><path d="M1237.5 287.5h-75" stroke-width="4.17" stroke="rgba(1, 235, 182, 1)"/><path d="M1231.25 287.5a6.25 6.25 0 1 0 12.5 0 6.25 6.25 0 1 0-12.5 0zm-75 0a6.25 6.25 0 1 0 12.5 0 6.25 6.25 0 1 0-12.5 0z" fill="rgba(1, 235, 182, 1)"/><path d="M137.5 387.5h25l25 25" stroke-width="4.17" stroke="rgba(1, 235, 182, 1)"/><path d="M131.25 387.5a6.25 6.25 0 1 0 12.5 0 6.25 6.25 0 1 0-12.5 0zm50 25a6.25 6.25 0 1 0 12.5 0 6.25 6.25 0 1 0-12.5 0z" fill="rgba(1, 235, 182, 1)"/><path d="m1137.5 362.5-25 25v125" stroke-width="4.17" stroke="rgba(1, 235, 182, 1)"/><path d="M1131.25 362.5a6.25 6.25 0 1 0 12.5 0 6.25 6.25 0 1 0-12.5 0zm-25 150a6.25 6.25 0 1 0 12.5 0 6.25 6.25 0 1 0-12.5 0z" fill="rgba(1, 235, 182, 1)"/><path d="m287.5 462.5 25 25v50" stroke-width="4.17" stroke="rgba(1, 235, 182, 1)"/><path d="M281.25 462.5a6.25 6.25 0 1 0 12.5 0 6.25 6.25 0 1 0-12.5 0zm25 75a6.25 6.25 0 1 0 12.5 0 6.25 6.25 0 1 0-12.5 0z" fill="rgba(1, 235, 182, 1)"/><path d="m112.5 462.5 25 25v25" stroke-width="4.17" stroke="rgba(1, 235, 182, 1)"/><path d="M106.25 462.5a6.25 6.25 0 1 0 12.5 0 6.25 6.25 0 1 0-12.5 0zm25 50a6.25 6.25 0 1 0 12.5 0 6.25 6.25 0 1 0-12.5 0z" fill="rgba(1, 235, 182, 1)"/><path d="m1237.5 212.5 50-50h25" stroke-width="4.17" stroke="rgba(1, 235, 182, 1)"/><path d="M1231.25 212.5a6.25 6.25 0 1 0 12.5 0 6.25 6.25 0 1 0-12.5 0zm75-50a6.25 6.25 0 1 0 12.5 0 6.25 6.25 0 1 0-12.5 0z" fill="rgba(1, 235, 182, 1)"/><path d="m62.5 562.5-50-50" stroke-width="4.17" stroke="rgba(1, 235, 182, 1)"/><path d="M56.25 562.5a6.25 6.25 0 1 0 12.5 0 6.25 6.25 0 1 0-12.5 0zm-50-50a6.25 6.25 0 1 0 12.5 0 6.25 6.25 0 1 0-12.5 0z" fill="rgba(1, 235, 182, 1)"/><path d="m212.5 87.5 25 25h50l25-25" stroke-width="4.17" stroke="rgba(1, 235, 182, 1)"/><path d="M206.25 87.5a6.25 6.25 0 1 0 12.5 0 6.25 6.25 0 1 0-12.5 0zm100 0a6.25 6.25 0 1 0 12.5 0 6.25 6.25 0 1 0-12.5 0z" fill="rgba(1, 235, 182, 1)"/><path d="m187.5 237.5-50-50" stroke-width="4.17" stroke="rgba(1, 235, 182, 1)"/><path d="M181.25 237.5a6.25 6.25 0 1 0 12.5 0 6.25 6.25 0 1 0-12.5 0zm-50-50a6.25 6.25 0 1 0 12.5 0 6.25 6.25 0 1 0-12.5 0z" fill="rgba(1, 235, 182, 1)"/><path d="M387.5 337.5h25l25 25" stroke-width="4.17" stroke="rgba(1, 235, 182, 1)"/><path d="M381.25 337.5a6.25 6.25 0 1 0 12.5 0 6.25 6.25 0 1 0-12.5 0zm50 25a6.25 6.25 0 1 0 12.5 0 6.25 6.25 0 1 0-12.5 0z" fill="rgba(1, 235, 182, 1)"/><path d="M912.5 412.5v-75" stroke-width="4.17" stroke="rgba(1, 235, 182, 1)"/><path d="M906.25 412.5a6.25 6.25 0 1 0 12.5 0 6.25 6.25 0 1 0-12.5 0zm0-75a6.25 6.25 0 1 0 12.5 0 6.25 6.25 0 1 0-12.5 0z" fill="rgba(1, 235, 182, 1)"/><path d="M962.5 312.5v75" stroke-width="4.17" stroke="rgba(1, 235, 182, 1)"/><path d="M956.25 312.5a6.25 6.25 0 1 0 12.5 0 6.25 6.25 0 1 0-12.5 0zm0 75a6.25 6.25 0 1 0 12.5 0 6.25 6.25 0 1 0-12.5 0z" fill="rgba(1, 235, 182, 1)"/><path d="m1312.5 237.5-25-25v-25" stroke-width="4.17" stroke="rgba(1, 235, 182, 1)"/><path d="M1306.25 237.5a6.25 6.25 0 1 0 12.5 0 6.25 6.25 0 1 0-12.5 0zm-25-50a6.25 6.25 0 1 0 12.5 0 6.25 6.25 0 1 0-12.5 0z" fill="rgba(1, 235, 182, 1)"/><path d="M1037.5 312.5v50" stroke-width="4.17" stroke="rgba(1, 235, 182, 1)"/><path d="M1031.25 312.5a6.25 6.25 0 1 0 12.5 0 6.25 6.25 0 1 0-12.5 0zm0 50a6.25 6.25 0 1 0 12.5 0 6.25 6.25 0 1 0-12.5 0z" fill="rgba(1, 235, 182, 1)"/><path d="M112.5 12.5v50" stroke-width="4.17" stroke="rgba(1, 235, 182, 1)"/><path d="M106.25 12.5a6.25 6.25 0 1 0 12.5 0 6.25 6.25 0 1 0-12.5 0zm0 50a6.25 6.25 0 1 0 12.5 0 6.25 6.25 0 1 0-12.5 0z" fill="rgba(1, 235, 182, 1)"/><path d="M262.5 412.5v-50" stroke-width="4.17" stroke="rgba(1, 235, 182, 1)"/><path d="M256.25 412.5a6.25 6.25 0 1 0 12.5 0 6.25 6.25 0 1 0-12.5 0zm0-50a6.25 6.25 0 1 0 12.5 0 6.25 6.25 0 1 0-12.5 0z" fill="rgba(1, 235, 182, 1)"/><path d="M1362.5 287.5h-75" stroke-width="4.17" stroke="rgba(1, 235, 182, 1)"/><path d="M1356.25 287.5a6.25 6.25 0 1 0 12.5 0 6.25 6.25 0 1 0-12.5 0zm-75 0a6.25 6.25 0 1 0 12.5 0 6.25 6.25 0 1 0-12.5 0z" fill="rgba(1, 235, 182, 1)"/><path d="M1162.5 562.5v-25l25-25h25" stroke-width="4.17" stroke="rgba(1, 235, 182, 1)"/><path d="M1156.25 562.5a6.25 6.25 0 1 0 12.5 0 6.25 6.25 0 1 0-12.5 0zm50-50a6.25 6.25 0 1 0 12.5 0 6.25 6.25 0 1 0-12.5 0z" fill="rgba(1, 235, 182, 1)"/><path d="m362.5 437.5-25-25v-25" stroke-width="4.17" stroke="rgba(1, 235, 182, 1)"/><path d="M356.25 437.5a6.25 6.25 0 1 0 12.5 0 6.25 6.25 0 1 0-12.5 0zm-25-50a6.25 6.25 0 1 0 12.5 0 6.25 6.25 0 1 0-12.5 0z" fill="rgba(1, 235, 182, 1)"/><path d="m1162.5 12.5 75 75" stroke-width="4.17" stroke="rgba(1, 235, 182, 1)"/><path d="M1156.25 12.5a6.25 6.25 0 1 0 12.5 0 6.25 6.25 0 1 0-12.5 0zm75 75a6.25 6.25 0 1 0 12.5 0 6.25 6.25 0 1 0-12.5 0z" fill="rgba(1, 235, 182, 1)"/><path d="M1037.5 462.5v-25l-25-25" stroke-width="4.17" stroke="rgba(1, 235, 182, 1)"/><path d="M1031.25 462.5a6.25 6.25 0 1 0 12.5 0 6.25 6.25 0 1 0-12.5 0zm-25-50a6.25 6.25 0 1 0 12.5 0 6.25 6.25 0 1 0-12.5 0z" fill="rgba(1, 235, 182, 1)"/><path d="m362.5 162.5-50 50h-25" stroke-width="4.17" stroke="rgba(1, 235, 182, 1)"/><path d="M356.25 162.5a6.25 6.25 0 1 0 12.5 0 6.25 6.25 0 1 0-12.5 0zm-75 50a6.25 6.25 0 1 0 12.5 0 6.25 6.25 0 1 0-12.5 0z" fill="rgba(1, 235, 182, 1)"/><path d="M37.5 412.5v50" stroke-width="4.17" stroke="rgba(1, 235, 182, 1)"/><path d="M31.25 412.5a6.25 6.25 0 1 0 12.5 0 6.25 6.25 0 1 0-12.5 0zm0 50a6.25 6.25 0 1 0 12.5 0 6.25 6.25 0 1 0-12.5 0z" fill="rgba(1, 235, 182, 1)"/><path d="M1137.5 437.5v-50" stroke-width="4.17" stroke="rgba(1, 235, 182, 1)"/><path d="M1131.25 437.5a6.25 6.25 0 1 0 12.5 0 6.25 6.25 0 1 0-12.5 0zm0-50a6.25 6.25 0 1 0 12.5 0 6.25 6.25 0 1 0-12.5 0z" fill="rgba(1, 235, 182, 1)"/><path d="M737.5 412.5v-25l-25-25" stroke-width="4.17" stroke="rgba(1, 235, 182, 1)"/><path d="M731.25 412.5a6.25 6.25 0 1 0 12.5 0 6.25 6.25 0 1 0-12.5 0zm-25-50a6.25 6.25 0 1 0 12.5 0 6.25 6.25 0 1 0-12.5 0z" fill="rgba(1, 235, 182, 1)"/><path d="M1387.5 537.5h50" stroke-width="4.17" stroke="rgba(1, 235, 182, 1)"/><path d="M1381.25 537.5a6.25 6.25 0 1 0 12.5 0 6.25 6.25 0 1 0-12.5 0zm50 0a6.25 6.25 0 1 0 12.5 0 6.25 6.25 0 1 0-12.5 0z" fill="rgba(1, 235, 182, 1)"/><path d="M1362.5 312.5h-75" stroke-width="4.17" stroke="rgba(1, 235, 182, 1)"/><path d="M1356.25 312.5a6.25 6.25 0 1 0 12.5 0 6.25 6.25 0 1 0-12.5 0zm-75 0a6.25 6.25 0 1 0 12.5 0 6.25 6.25 0 1 0-12.5 0z" fill="rgba(1, 235, 182, 1)"/><path d="M1312.5 412.5h-25l-25 25" stroke-width="4.17" stroke="rgba(1, 235, 182, 1)"/><path d="M1306.25 412.5a6.25 6.25 0 1 0 12.5 0 6.25 6.25 0 1 0-12.5 0zm-50 25a6.25 6.25 0 1 0 12.5 0 6.25 6.25 0 1 0-12.5 0z" fill="rgba(1, 235, 182, 1)"/><path d="M1212.5 37.5h25l25-25h25" stroke-width="4.17" stroke="rgba(1, 235, 182, 1)"/><path d="M1206.25 37.5a6.25 6.25 0 1 0 12.5 0 6.25 6.25 0 1 0-12.5 0zm75-25a6.25 6.25 0 1 0 12.5 0 6.25 6.25 0 1 0-12.5 0z" fill="rgba(1, 235, 182, 1)"/><path d="m362.5 187.5 50-50" stroke-width="4.17" stroke="rgba(1, 235, 182, 1)"/><path d="M356.25 187.5a6.25 6.25 0 1 0 12.5 0 6.25 6.25 0 1 0-12.5 0zm50-50a6.25 6.25 0 1 0 12.5 0 6.25 6.25 0 1 0-12.5 0z" fill="rgba(1, 235, 182, 1)"/><path d="M512.5 62.5h-25l-25 25h-50" stroke-width="4.17" stroke="rgba(1, 235, 182, 1)"/><path d="M506.25 62.5a6.25 6.25 0 1 0 12.5 0 6.25 6.25 0 1 0-12.5 0zm-100 25a6.25 6.25 0 1 0 12.5 0 6.25 6.25 0 1 0-12.5 0z" fill="rgba(1, 235, 182, 1)"/><path d="M612.5 137.5h-25l-25 25" stroke-width="4.17" stroke="rgba(1, 235, 182, 1)"/><path d="M606.25 137.5a6.25 6.25 0 1 0 12.5 0 6.25 6.25 0 1 0-12.5 0zm-50 25a6.25 6.25 0 1 0 12.5 0 6.25 6.25 0 1 0-12.5 0z" fill="rgba(1, 235, 182, 1)"/><path d="M62.5 312.5h75" stroke-width="4.17" stroke="rgba(1, 235, 182, 1)"/><path d="M56.25 312.5a6.25 6.25 0 1 0 12.5 0 6.25 6.25 0 1 0-12.5 0zm75 0a6.25 6.25 0 1 0 12.5 0 6.25 6.25 0 1 0-12.5 0z" fill="rgba(1, 235, 182, 1)"/><path d="M87.5 412.5h75" stroke-width="4.17" stroke="rgba(1, 235, 182, 1)"/><path d="M81.25 412.5a6.25 6.25 0 1 0 12.5 0 6.25 6.25 0 1 0-12.5 0zm75 0a6.25 6.25 0 1 0 12.5 0 6.25 6.25 0 1 0-12.5 0z" fill="rgba(1, 235, 182, 1)"/><path d="M512.5 512.5h50" stroke-width="4.17" stroke="rgba(1, 235, 182, 1)"/><path d="M506.25 512.5a6.25 6.25 0 1 0 12.5 0 6.25 6.25 0 1 0-12.5 0zm50 0a6.25 6.25 0 1 0 12.5 0 6.25 6.25 0 1 0-12.5 0z" fill="rgba(1, 235, 182, 1)"/><path d="M12.5 462.5v-50" stroke-width="4.17" stroke="rgba(1, 235, 182, 1)"/><path d="M6.25 462.5a6.25 6.25 0 1 0 12.5 0 6.25 6.25 0 1 0-12.5 0zm0-50a6.25 6.25 0 1 0 12.5 0 6.25 6.25 0 1 0-12.5 0z" fill="rgba(1, 235, 182, 1)"/></g></g><defs><mask id="a"><path fill="#fff" d="M0 0h1440v560H0z"/></mask><mask id="b"><path fill="#fff" d="M0 0h1440v560H0z"/><path d="M459.37 237.5a3.13 3.13 0 1 0 6.26 0 3.13 3.13 0 1 0-6.26 0zm475-125a3.13 3.13 0 1 0 6.26 0 3.13 3.13 0 1 0-6.26 0zM809.37 512.5a3.13 3.13 0 1 0 6.26 0 3.13 3.13 0 1 0-6.26 0zm475-125a3.13 3.13 0 1 0 6.26 0 3.13 3.13 0 1 0-6.26 0zM884.37 312.5a3.13 3.13 0 1 0 6.26 0 3.13 3.13 0 1 0-6.26 0zm-100 250a3.13 3.13 0 1 0 6.26 0 3.13 3.13 0 1 0-6.26 0zM934.37 187.5a3.13 3.13 0 1 0 6.26 0 3.13 3.13 0 1 0-6.26 0zm-300-100a3.13 3.13 0 1 0 6.26 0 3.13 3.13 0 1 0-6.26 0zM9.37 487.5a3.13 3.13 0 1 0 6.26 0 3.13 3.13 0 1 0-6.26 0zm475 75a3.13 3.13 0 1 0 6.26 0 3.13 3.13 0 1 0-6.26 0zM409.37 237.5a3.13 3.13 0 1 0 6.26 0 3.13 3.13 0 1 0-6.26 0zm-400 75a3.13 3.13 0 1 0 6.26 0 3.13 3.13 0 1 0-6.26 0zM934.37 287.5a3.13 3.13 0 1 0 6.26 0 3.13 3.13 0 1 0-6.26 0zm225 75a3.13 3.13 0 1 0 6.26 0 3.13 3.13 0 1 0-6.26 0zM559.37 412.5a3.13 3.13 0 1 0 6.26 0 3.13 3.13 0 1 0-6.26 0zm475-200a3.13 3.13 0 1 0 6.26 0 3.13 3.13 0 1 0-6.26 0zM709.37 562.5a3.13 3.13 0 1 0 6.26 0 3.13 3.13 0 1 0-6.26 0zm-475-300a3.13 3.13 0 1 0 6.26 0 3.13 3.13 0 1 0-6.26 0zM1309.37 12.5a3.13 3.13 0 1 0 6.26 0 3.13 3.13 0 1 0-6.26 0zm100 475a3.13 3.13 0 1 0 6.26 0 3.13 3.13 0 1 0-6.26 0zM1209.37 137.5a3.13 3.13 0 1 0 6.26 0 3.13 3.13 0 1 0-6.26 0zm-450-125a3.13 3.13 0 1 0 6.26 0 3.13 3.13 0 1 0-6.26 0zM209.37 337.5a3.13 3.13 0 1 0 6.26 0 3.13 3.13 0 1 0-6.26 0zm-125-125a3.13 3.13 0 1 0 6.26 0 3.13 3.13 0 1 0-6.26 0zM634.37 462.5a3.13 3.13 0 1 0 6.26 0 3.13 3.13 0 1 0-6.26 0zm125 75a3.13 3.13 0 1 0 6.26 0 3.13 3.13 0 1 0-6.26 0zM984.37 162.5a3.13 3.13 0 1 0 6.26 0 3.13 3.13 0 1 0-6.26 0zm-325-100a3.13 3.13 0 1 0 6.26 0 3.13 3.13 0 1 0-6.26 0zM809.37 237.5a3.13 3.13 0 1 0 6.26 0 3.13 3.13 0 1 0-6.26 0zm475 0a3.13 3.13 0 1 0 6.26 0 3.13 3.13 0 1 0-6.26 0zM134.37 137.5a3.13 3.13 0 1 0 6.26 0 3.13 3.13 0 1 0-6.26 0zm475-125a3.13 3.13 0 1 0 6.26 0 3.13 3.13 0 1 0-6.26 0zM959.37 87.5a3.13 3.13 0 1 0 6.26 0 3.13 3.13 0 1 0-6.26 0zm450 50a3.13 3.13 0 1 0 6.26 0 3.13 3.13 0 1 0-6.26 0zM209.37 487.5a3.13 3.13 0 1 0 6.26 0 3.13 3.13 0 1 0-6.26 0zm175-200a3.13 3.13 0 1 0 6.26 0 3.13 3.13 0 1 0-6.26 0zM1334.37 162.5a3.13 3.13 0 1 0 6.26 0 3.13 3.13 0 1 0-6.26 0zm-50-50a3.13 3.13 0 1 0 6.26 0 3.13 3.13 0 1 0-6.26 0zM159.37 37.5a3.13 3.13 0 1 0 6.26 0 3.13 3.13 0 1 0-6.26 0zm75-25a3.13 3.13 0 1 0 6.26 0 3.13 3.13 0 1 0-6.26 0zM209.37 137.5a3.13 3.13 0 1 0 6.26 0 3.13 3.13 0 1 0-6.26 0zm400-75a3.13 3.13 0 1 0 6.26 0 3.13 3.13 0 1 0-6.26 0zM159.37 462.5a3.13 3.13 0 1 0 6.26 0 3.13 3.13 0 1 0-6.26 0zm0 75a3.13 3.13 0 1 0 6.26 0 3.13 3.13 0 1 0-6.26 0zM309.37 412.5a3.13 3.13 0 1 0 6.26 0 3.13 3.13 0 1 0-6.26 0zm300 100a3.13 3.13 0 1 0 6.26 0 3.13 3.13 0 1 0-6.26 0zM1309.37 512.5a3.13 3.13 0 1 0 6.26 0 3.13 3.13 0 1 0-6.26 0zm125 50a3.13 3.13 0 1 0 6.26 0 3.13 3.13 0 1 0-6.26 0zM534.37 137.5a3.13 3.13 0 1 0 6.26 0 3.13 3.13 0 1 0-6.26 0zm0-75a3.13 3.13 0 1 0 6.26 0 3.13 3.13 0 1 0-6.26 0zM834.37 87.5a3.13 3.13 0 1 0 6.26 0 3.13 3.13 0 1 0-6.26 0zm250 75a3.13 3.13 0 1 0 6.26 0 3.13 3.13 0 1 0-6.26 0zM1359.37 187.5a3.13 3.13 0 1 0 6.26 0 3.13 3.13 0 1 0-6.26 0zm-150 300a3.13 3.13 0 1 0 6.26 0 3.13 3.13 0 1 0-6.26 0zM1059.37 137.5a3.13 3.13 0 1 0 6.26 0 3.13 3.13 0 1 0-6.26 0zm100 0a3.13 3.13 0 1 0 6.26 0 3.13 3.13 0 1 0-6.26 0zM859.37 437.5a3.13 3.13 0 1 0 6.26 0 3.13 3.13 0 1 0-6.26 0zm-50 50a3.13 3.13 0 1 0 6.26 0 3.13 3.13 0 1 0-6.26 0zM434.37 137.5a3.13 3.13 0 1 0 6.26 0 3.13 3.13 0 1 0-6.26 0zm125 250a3.13 3.13 0 1 0 6.26 0 3.13 3.13 0 1 0-6.26 0zM1284.37 537.5a3.13 3.13 0 1 0 6.26 0 3.13 3.13 0 1 0-6.26 0zm50 25a3.13 3.13 0 1 0 6.26 0 3.13 3.13 0 1 0-6.26 0zM1059.37 87.5a3.13 3.13 0 1 0 6.26 0 3.13 3.13 0 1 0-6.26 0zm-75-25a3.13 3.13 0 1 0 6.26 0 3.13 3.13 0 1 0-6.26 0zM59.37 187.5a3.13 3.13 0 1 0 6.26 0 3.13 3.13 0 1 0-6.26 0zm125-125a3.13 3.13 0 1 0 6.26 0 3.13 3.13 0 1 0-6.26 0zM309.37 62.5a3.13 3.13 0 1 0 6.26 0 3.13 3.13 0 1 0-6.26 0zm50-25a3.13 3.13 0 1 0 6.26 0 3.13 3.13 0 1 0-6.26 0zM709.37 237.5a3.13 3.13 0 1 0 6.26 0 3.13 3.13 0 1 0-6.26 0zm-125 125a3.13 3.13 0 1 0 6.26 0 3.13 3.13 0 1 0-6.26 0zM284.37 512.5a3.13 3.13 0 1 0 6.26 0 3.13 3.13 0 1 0-6.26 0zm-100 25a3.13 3.13 0 1 0 6.26 0 3.13 3.13 0 1 0-6.26 0zM584.37 412.5a3.13 3.13 0 1 0 6.26 0 3.13 3.13 0 1 0-6.26 0zm475-150a3.13 3.13 0 1 0 6.26 0 3.13 3.13 0 1 0-6.26 0zM34.37 112.5a3.13 3.13 0 1 0 6.26 0 3.13 3.13 0 1 0-6.26 0zm0 100a3.13 3.13 0 1 0 6.26 0 3.13 3.13 0 1 0-6.26 0zM1184.37 362.5a3.13 3.13 0 1 0 6.26 0 3.13 3.13 0 1 0-6.26 0zm200 0a3.13 3.13 0 1 0 6.26 0 3.13 3.13 0 1 0-6.26 0zM634.37 387.5a3.13 3.13 0 1 0 6.26 0 3.13 3.13 0 1 0-6.26 0zm-50 50a3.13 3.13 0 1 0 6.26 0 3.13 3.13 0 1 0-6.26 0zM1234.37 562.5a3.13 3.13 0 1 0 6.26 0 3.13 3.13 0 1 0-6.26 0zm0-75a3.13 3.13 0 1 0 6.26 0 3.13 3.13 0 1 0-6.26 0zM809.37 362.5a3.13 3.13 0 1 0 6.26 0 3.13 3.13 0 1 0-6.26 0zm-50 150a3.13 3.13 0 1 0 6.26 0 3.13 3.13 0 1 0-6.26 0zM259.37 337.5a3.13 3.13 0 1 0 6.26 0 3.13 3.13 0 1 0-6.26 0zm100-50a3.13 3.13 0 1 0 6.26 0 3.13 3.13 0 1 0-6.26 0zM784.37 387.5a3.13 3.13 0 1 0 6.26 0 3.13 3.13 0 1 0-6.26 0zm-100 100a3.13 3.13 0 1 0 6.26 0 3.13 3.13 0 1 0-6.26 0zM1134.37 287.5a3.13 3.13 0 1 0 6.26 0 3.13 3.13 0 1 0-6.26 0zm250 50a3.13 3.13 0 1 0 6.26 0 3.13 3.13 0 1 0-6.26 0zM559.37 237.5a3.13 3.13 0 1 0 6.26 0 3.13 3.13 0 1 0-6.26 0zm0 100a3.13 3.13 0 1 0 6.26 0 3.13 3.13 0 1 0-6.26 0zM384.37 87.5a3.13 3.13 0 1 0 6.26 0 3.13 3.13 0 1 0-6.26 0zm125 25a3.13 3.13 0 1 0 6.26 0 3.13 3.13 0 1 0-6.26 0zM1334.37 137.5a3.13 3.13 0 1 0 6.26 0 3.13 3.13 0 1 0-6.26 0zm0-50a3.13 3.13 0 1 0 6.26 0 3.13 3.13 0 1 0-6.26 0zM284.37 487.5a3.13 3.13 0 1 0 6.26 0 3.13 3.13 0 1 0-6.26 0zm-100 25a3.13 3.13 0 1 0 6.26 0 3.13 3.13 0 1 0-6.26 0zM784.37 412.5a3.13 3.13 0 1 0 6.26 0 3.13 3.13 0 1 0-6.26 0zm-50 50a3.13 3.13 0 1 0 6.26 0 3.13 3.13 0 1 0-6.26 0zM334.37 312.5a3.13 3.13 0 1 0 6.26 0 3.13 3.13 0 1 0-6.26 0zm-225-125a3.13 3.13 0 1 0 6.26 0 3.13 3.13 0 1 0-6.26 0zM1084.37 362.5a3.13 3.13 0 1 0 6.26 0 3.13 3.13 0 1 0-6.26 0zm300-100a3.13 3.13 0 1 0 6.26 0 3.13 3.13 0 1 0-6.26 0zM459.37 387.5a3.13 3.13 0 1 0 6.26 0 3.13 3.13 0 1 0-6.26 0zm-75 75a3.13 3.13 0 1 0 6.26 0 3.13 3.13 0 1 0-6.26 0zM84.37 112.5a3.13 3.13 0 1 0 6.26 0 3.13 3.13 0 1 0-6.26 0zm75-50a3.13 3.13 0 1 0 6.26 0 3.13 3.13 0 1 0-6.26 0zM609.37 462.5a3.13 3.13 0 1 0 6.26 0 3.13 3.13 0 1 0-6.26 0zm250-125a3.13 3.13 0 1 0 6.26 0 3.13 3.13 0 1 0-6.26 0zM759.37 87.5a3.13 3.13 0 1 0 6.26 0 3.13 3.13 0 1 0-6.26 0zm150 50a3.13 3.13 0 1 0 6.26 0 3.13 3.13 0 1 0-6.26 0zM1059.37 387.5a3.13 3.13 0 1 0 6.26 0 3.13 3.13 0 1 0-6.26 0zm0 125a3.13 3.13 0 1 0 6.26 0 3.13 3.13 0 1 0-6.26 0zM984.37 312.5a3.13 3.13 0 1 0 6.26 0 3.13 3.13 0 1 0-6.26 0zm50 175a3.13 3.13 0 1 0 6.26 0 3.13 3.13 0 1 0-6.26 0zM484.37 137.5a3.13 3.13 0 1 0 6.26 0 3.13 3.13 0 1 0-6.26 0zm-25 75a3.13 3.13 0 1 0 6.26 0 3.13 3.13 0 1 0-6.26 0zM234.37 312.5a3.13 3.13 0 1 0 6.26 0 3.13 3.13 0 1 0-6.26 0zm-50 175a3.13 3.13 0 1 0 6.26 0 3.13 3.13 0 1 0-6.26 0zM1434.37 37.5a3.13 3.13 0 1 0 6.26 0 3.13 3.13 0 1 0-6.26 0zm0 75a3.13 3.13 0 1 0 6.26 0 3.13 3.13 0 1 0-6.26 0zM659.37 162.5a3.13 3.13 0 1 0 6.26 0 3.13 3.13 0 1 0-6.26 0zm75 50a3.13 3.13 0 1 0 6.26 0 3.13 3.13 0 1 0-6.26 0zM9.37 62.5a3.13 3.13 0 1 0 6.26 0 3.13 3.13 0 1 0-6.26 0zm125-50a3.13 3.13 0 1 0 6.26 0 3.13 3.13 0 1 0-6.26 0zM1259.37 62.5a3.13 3.13 0 1 0 6.26 0 3.13 3.13 0 1 0-6.26 0zm-150-50a3.13 3.13 0 1 0 6.26 0 3.13 3.13 0 1 0-6.26 0zM1434.37 12.5a3.13 3.13 0 1 0 6.26 0 3.13 3.13 0 1 0-6.26 0zm-50 50a3.13 3.13 0 1 0 6.26 0 3.13 3.13 0 1 0-6.26 0zM509.37 437.5a3.13 3.13 0 1 0 6.26 0 3.13 3.13 0 1 0-6.26 0zm75 75a3.13 3.13 0 1 0 6.26 0 3.13 3.13 0 1 0-6.26 0zM809.37 312.5a3.13 3.13 0 1 0 6.26 0 3.13 3.13 0 1 0-6.26 0zm-100 0a3.13 3.13 0 1 0 6.26 0 3.13 3.13 0 1 0-6.26 0zM459.37 62.5a3.13 3.13 0 1 0 6.26 0 3.13 3.13 0 1 0-6.26 0zm-75 0a3.13 3.13 0 1 0 6.26 0 3.13 3.13 0 1 0-6.26 0zM859.37 487.5a3.13 3.13 0 1 0 6.26 0 3.13 3.13 0 1 0-6.26 0zm175 50a3.13 3.13 0 1 0 6.26 0 3.13 3.13 0 1 0-6.26 0zM1334.37 462.5a3.13 3.13 0 1 0 6.26 0 3.13 3.13 0 1 0-6.26 0zm0-75a3.13 3.13 0 1 0 6.26 0 3.13 3.13 0 1 0-6.26 0zM184.37 437.5a3.13 3.13 0 1 0 6.26 0 3.13 3.13 0 1 0-6.26 0zm-125-50a3.13 3.13 0 1 0 6.26 0 3.13 3.13 0 1 0-6.26 0zM959.37 512.5a3.13 3.13 0 1 0 6.26 0 3.13 3.13 0 1 0-6.26 0zm50 25a3.13 3.13 0 1 0 6.26 0 3.13 3.13 0 1 0-6.26 0zM534.37 487.5a3.13 3.13 0 1 0 6.26 0 3.13 3.13 0 1 0-6.26 0zm-75-75a3.13 3.13 0 1 0 6.26 0 3.13 3.13 0 1 0-6.26 0zM334.37 462.5a3.13 3.13 0 1 0 6.26 0 3.13 3.13 0 1 0-6.26 0zm-100 25a3.13 3.13 0 1 0 6.26 0 3.13 3.13 0 1 0-6.26 0zM309.37 312.5a3.13 3.13 0 1 0 6.26 0 3.13 3.13 0 1 0-6.26 0zm-50 0a3.13 3.13 0 1 0 6.26 0 3.13 3.13 0 1 0-6.26 0zM259.37 62.5a3.13 3.13 0 1 0 6.26 0 3.13 3.13 0 1 0-6.26 0zm75-25a3.13 3.13 0 1 0 6.26 0 3.13 3.13 0 1 0-6.26 0zM359.37 387.5a3.13 3.13 0 1 0 6.26 0 3.13 3.13 0 1 0-6.26 0zm100-25a3.13 3.13 0 1 0 6.26 0 3.13 3.13 0 1 0-6.26 0zM559.37 562.5a3.13 3.13 0 1 0 6.26 0 3.13 3.13 0 1 0-6.26 0zm-50 0a3.13 3.13 0 1 0 6.26 0 3.13 3.13 0 1 0-6.26 0zM609.37 187.5a3.13 3.13 0 1 0 6.26 0 3.13 3.13 0 1 0-6.26 0zm-75 125a3.13 3.13 0 1 0 6.26 0 3.13 3.13 0 1 0-6.26 0zM634.37 437.5a3.13 3.13 0 1 0 6.26 0 3.13 3.13 0 1 0-6.26 0zm50 25a3.13 3.13 0 1 0 6.26 0 3.13 3.13 0 1 0-6.26 0zM1334.37 12.5a3.13 3.13 0 1 0 6.26 0 3.13 3.13 0 1 0-6.26 0zm75 0a3.13 3.13 0 1 0 6.26 0 3.13 3.13 0 1 0-6.26 0zM584.37 562.5a3.13 3.13 0 1 0 6.26 0 3.13 3.13 0 1 0-6.26 0zm75 0a3.13 3.13 0 1 0 6.26 0 3.13 3.13 0 1 0-6.26 0zM34.37 512.5a3.13 3.13 0 1 0 6.26 0 3.13 3.13 0 1 0-6.26 0zm50 0a3.13 3.13 0 1 0 6.26 0 3.13 3.13 0 1 0-6.26 0zM159.37 137.5a3.13 3.13 0 1 0 6.26 0 3.13 3.13 0 1 0-6.26 0zm200-50a3.13 3.13 0 1 0 6.26 0 3.13 3.13 0 1 0-6.26 0zM109.37 337.5a3.13 3.13 0 1 0 6.26 0 3.13 3.13 0 1 0-6.26 0zm-75 0a3.13 3.13 0 1 0 6.26 0 3.13 3.13 0 1 0-6.26 0zM1084.37 62.5a3.13 3.13 0 1 0 6.26 0 3.13 3.13 0 1 0-6.26 0zm50 50a3.13 3.13 0 1 0 6.26 0 3.13 3.13 0 1 0-6.26 0zM1034.37 412.5a3.13 3.13 0 1 0 6.26 0 3.13 3.13 0 1 0-6.26 0zm0-125a3.13 3.13 0 1 0 6.26 0 3.13 3.13 0 1 0-6.26 0zM309.37 187.5a3.13 3.13 0 1 0 6.26 0 3.13 3.13 0 1 0-6.26 0zm75-75a3.13 3.13 0 1 0 6.26 0 3.13 3.13 0 1 0-6.26 0zM984.37 537.5a3.13 3.13 0 1 0 6.26 0 3.13 3.13 0 1 0-6.26 0zm-100-25a3.13 3.13 0 1 0 6.26 0 3.13 3.13 0 1 0-6.26 0zM834.37 62.5a3.13 3.13 0 1 0 6.26 0 3.13 3.13 0 1 0-6.26 0zm-50-25a3.13 3.13 0 1 0 6.26 0 3.13 3.13 0 1 0-6.26 0zM1334.37 187.5a3.13 3.13 0 1 0 6.26 0 3.13 3.13 0 1 0-6.26 0zm0 50a3.13 3.13 0 1 0 6.26 0 3.13 3.13 0 1 0-6.26 0zM1359.37 387.5a3.13 3.13 0 1 0 6.26 0 3.13 3.13 0 1 0-6.26 0zm0 100a3.13 3.13 0 1 0 6.26 0 3.13 3.13 0 1 0-6.26 0zM434.37 437.5a3.13 3.13 0 1 0 6.26 0 3.13 3.13 0 1 0-6.26 0zm50 75a3.13 3.13 0 1 0 6.26 0 3.13 3.13 0 1 0-6.26 0zM1209.37 212.5a3.13 3.13 0 1 0 6.26 0 3.13 3.13 0 1 0-6.26 0zm75-75a3.13 3.13 0 1 0 6.26 0 3.13 3.13 0 1 0-6.26 0zM634.37 237.5a3.13 3.13 0 1 0 6.26 0 3.13 3.13 0 1 0-6.26 0zm-100 50a3.13 3.13 0 1 0 6.26 0 3.13 3.13 0 1 0-6.26 0zM1384.37 187.5a3.13 3.13 0 1 0 6.26 0 3.13 3.13 0 1 0-6.26 0zm-25-75a3.13 3.13 0 1 0 6.26 0 3.13 3.13 0 1 0-6.26 0zM334.37 487.5a3.13 3.13 0 1 0 6.26 0 3.13 3.13 0 1 0-6.26 0zm75 50a3.13 3.13 0 1 0 6.26 0 3.13 3.13 0 1 0-6.26 0zM709.37 37.5a3.13 3.13 0 1 0 6.26 0 3.13 3.13 0 1 0-6.26 0zm25 50a3.13 3.13 0 1 0 6.26 0 3.13 3.13 0 1 0-6.26 0zM1184.37 412.5a3.13 3.13 0 1 0 6.26 0 3.13 3.13 0 1 0-6.26 0zm0 50a3.13 3.13 0 1 0 6.26 0 3.13 3.13 0 1 0-6.26 0zM809.37 287.5a3.13 3.13 0 1 0 6.26 0 3.13 3.13 0 1 0-6.26 0zm-75 0a3.13 3.13 0 1 0 6.26 0 3.13 3.13 0 1 0-6.26 0zM609.37 162.5a3.13 3.13 0 1 0 6.26 0 3.13 3.13 0 1 0-6.26 0zm75 75a3.13 3.13 0 1 0 6.26 0 3.13 3.13 0 1 0-6.26 0zM859.37 362.5a3.13 3.13 0 1 0 6.26 0 3.13 3.13 0 1 0-6.26 0zm-25 50a3.13 3.13 0 1 0 6.26 0 3.13 3.13 0 1 0-6.26 0zM1234.37 62.5a3.13 3.13 0 1 0 6.26 0 3.13 3.13 0 1 0-6.26 0zm50-25a3.13 3.13 0 1 0 6.26 0 3.13 3.13 0 1 0-6.26 0zM1084.37 512.5a3.13 3.13 0 1 0 6.26 0 3.13 3.13 0 1 0-6.26 0zm0-225a3.13 3.13 0 1 0 6.26 0 3.13 3.13 0 1 0-6.26 0zM584.37 212.5a3.13 3.13 0 1 0 6.26 0 3.13 3.13 0 1 0-6.26 0zm50 0a3.13 3.13 0 1 0 6.26 0 3.13 3.13 0 1 0-6.26 0zM1234.37 287.5a3.13 3.13 0 1 0 6.26 0 3.13 3.13 0 1 0-6.26 0zm-75 0a3.13 3.13 0 1 0 6.26 0 3.13 3.13 0 1 0-6.26 0zM134.37 387.5a3.13 3.13 0 1 0 6.26 0 3.13 3.13 0 1 0-6.26 0zm50 25a3.13 3.13 0 1 0 6.26 0 3.13 3.13 0 1 0-6.26 0zM1134.37 362.5a3.13 3.13 0 1 0 6.26 0 3.13 3.13 0 1 0-6.26 0zm-25 150a3.13 3.13 0 1 0 6.26 0 3.13 3.13 0 1 0-6.26 0zM284.37 462.5a3.13 3.13 0 1 0 6.26 0 3.13 3.13 0 1 0-6.26 0zm25 75a3.13 3.13 0 1 0 6.26 0 3.13 3.13 0 1 0-6.26 0zM109.37 462.5a3.13 3.13 0 1 0 6.26 0 3.13 3.13 0 1 0-6.26 0zm25 50a3.13 3.13 0 1 0 6.26 0 3.13 3.13 0 1 0-6.26 0zM1234.37 212.5a3.13 3.13 0 1 0 6.26 0 3.13 3.13 0 1 0-6.26 0zm75-50a3.13 3.13 0 1 0 6.26 0 3.13 3.13 0 1 0-6.26 0zM59.37 562.5a3.13 3.13 0 1 0 6.26 0 3.13 3.13 0 1 0-6.26 0zm-50-50a3.13 3.13 0 1 0 6.26 0 3.13 3.13 0 1 0-6.26 0zM209.37 87.5a3.13 3.13 0 1 0 6.26 0 3.13 3.13 0 1 0-6.26 0zm100 0a3.13 3.13 0 1 0 6.26 0 3.13 3.13 0 1 0-6.26 0zM184.37 237.5a3.13 3.13 0 1 0 6.26 0 3.13 3.13 0 1 0-6.26 0zm-50-50a3.13 3.13 0 1 0 6.26 0 3.13 3.13 0 1 0-6.26 0zM384.37 337.5a3.13 3.13 0 1 0 6.26 0 3.13 3.13 0 1 0-6.26 0zm50 25a3.13 3.13 0 1 0 6.26 0 3.13 3.13 0 1 0-6.26 0zM909.37 412.5a3.13 3.13 0 1 0 6.26 0 3.13 3.13 0 1 0-6.26 0zm0-75a3.13 3.13 0 1 0 6.26 0 3.13 3.13 0 1 0-6.26 0zM959.37 312.5a3.13 3.13 0 1 0 6.26 0 3.13 3.13 0 1 0-6.26 0zm0 75a3.13 3.13 0 1 0 6.26 0 3.13 3.13 0 1 0-6.26 0zM1309.37 237.5a3.13 3.13 0 1 0 6.26 0 3.13 3.13 0 1 0-6.26 0zm-25-50a3.13 3.13 0 1 0 6.26 0 3.13 3.13 0 1 0-6.26 0zM1034.37 312.5a3.13 3.13 0 1 0 6.26 0 3.13 3.13 0 1 0-6.26 0zm0 50a3.13 3.13 0 1 0 6.26 0 3.13 3.13 0 1 0-6.26 0zM109.37 12.5a3.13 3.13 0 1 0 6.26 0 3.13 3.13 0 1 0-6.26 0zm0 50a3.13 3.13 0 1 0 6.26 0 3.13 3.13 0 1 0-6.26 0zM259.37 412.5a3.13 3.13 0 1 0 6.26 0 3.13 3.13 0 1 0-6.26 0zm0-50a3.13 3.13 0 1 0 6.26 0 3.13 3.13 0 1 0-6.26 0zM1359.37 287.5a3.13 3.13 0 1 0 6.26 0 3.13 3.13 0 1 0-6.26 0zm-75 0a3.13 3.13 0 1 0 6.26 0 3.13 3.13 0 1 0-6.26 0zM1159.37 562.5a3.13 3.13 0 1 0 6.26 0 3.13 3.13 0 1 0-6.26 0zm50-50a3.13 3.13 0 1 0 6.26 0 3.13 3.13 0 1 0-6.26 0zM359.37 437.5a3.13 3.13 0 1 0 6.26 0 3.13 3.13 0 1 0-6.26 0zm-25-50a3.13 3.13 0 1 0 6.26 0 3.13 3.13 0 1 0-6.26 0zM1159.37 12.5a3.13 3.13 0 1 0 6.26 0 3.13 3.13 0 1 0-6.26 0zm75 75a3.13 3.13 0 1 0 6.26 0 3.13 3.13 0 1 0-6.26 0zM1034.37 462.5a3.13 3.13 0 1 0 6.26 0 3.13 3.13 0 1 0-6.26 0zm-25-50a3.13 3.13 0 1 0 6.26 0 3.13 3.13 0 1 0-6.26 0zM359.37 162.5a3.13 3.13 0 1 0 6.26 0 3.13 3.13 0 1 0-6.26 0zm-75 50a3.13 3.13 0 1 0 6.26 0 3.13 3.13 0 1 0-6.26 0zM34.37 412.5a3.13 3.13 0 1 0 6.26 0 3.13 3.13 0 1 0-6.26 0zm0 50a3.13 3.13 0 1 0 6.26 0 3.13 3.13 0 1 0-6.26 0zM1134.37 437.5a3.13 3.13 0 1 0 6.26 0 3.13 3.13 0 1 0-6.26 0zm0-50a3.13 3.13 0 1 0 6.26 0 3.13 3.13 0 1 0-6.26 0zM734.37 412.5a3.13 3.13 0 1 0 6.26 0 3.13 3.13 0 1 0-6.26 0zm-25-50a3.13 3.13 0 1 0 6.26 0 3.13 3.13 0 1 0-6.26 0zM1384.37 537.5a3.13 3.13 0 1 0 6.26 0 3.13 3.13 0 1 0-6.26 0zm50 0a3.13 3.13 0 1 0 6.26 0 3.13 3.13 0 1 0-6.26 0zM1359.37 312.5a3.13 3.13 0 1 0 6.26 0 3.13 3.13 0 1 0-6.26 0zm-75 0a3.13 3.13 0 1 0 6.26 0 3.13 3.13 0 1 0-6.26 0zM1309.37 412.5a3.13 3.13 0 1 0 6.26 0 3.13 3.13 0 1 0-6.26 0zm-50 25a3.13 3.13 0 1 0 6.26 0 3.13 3.13 0 1 0-6.26 0zM1209.37 37.5a3.13 3.13 0 1 0 6.26 0 3.13 3.13 0 1 0-6.26 0zm75-25a3.13 3.13 0 1 0 6.26 0 3.13 3.13 0 1 0-6.26 0zM359.37 187.5a3.13 3.13 0 1 0 6.26 0 3.13 3.13 0 1 0-6.26 0zm50-50a3.13 3.13 0 1 0 6.26 0 3.13 3.13 0 1 0-6.26 0zM509.37 62.5a3.13 3.13 0 1 0 6.26 0 3.13 3.13 0 1 0-6.26 0zm-100 25a3.13 3.13 0 1 0 6.26 0 3.13 3.13 0 1 0-6.26 0zM609.37 137.5a3.13 3.13 0 1 0 6.26 0 3.13 3.13 0 1 0-6.26 0zm-50 25a3.13 3.13 0 1 0 6.26 0 3.13 3.13 0 1 0-6.26 0zM59.37 312.5a3.13 3.13 0 1 0 6.26 0 3.13 3.13 0 1 0-6.26 0zm75 0a3.13 3.13 0 1 0 6.26 0 3.13 3.13 0 1 0-6.26 0zM84.37 412.5a3.13 3.13 0 1 0 6.26 0 3.13 3.13 0 1 0-6.26 0zm75 0a3.13 3.13 0 1 0 6.26 0 3.13 3.13 0 1 0-6.26 0zM509.37 512.5a3.13 3.13 0 1 0 6.26 0 3.13 3.13 0 1 0-6.26 0zm50 0a3.13 3.13 0 1 0 6.26 0 3.13 3.13 0 1 0-6.26 0zM9.37 462.5a3.13 3.13 0 1 0 6.26 0 3.13 3.13 0 1 0-6.26 0zm0-50a3.13 3.13 0 1 0 6.26 0 3.13 3.13 0 1 0-6.26 0z"/></mask></defs></svg>