<svg xmlns="http://www.w3.org/2000/svg" version="1.1" xmlns:xlink="http://www.w3.org/1999/xlink"
    xmlns:svgjs="http://svgjs.dev/svgjs" viewBox="0 0 800 800">
    <defs>
        <linearGradient x1="50%" y1="0%" x2="50%" y2="100%" id="wwwhirl-grad">
            <stop stop-color="hsl(206, 75%, 49%)" stop-opacity="1" offset="45%"></stop>
            <stop stop-color="hsl(331, 90%, 56%)" stop-opacity="1" offset="100%"></stop>
        </linearGradient>
    </defs>
    <g stroke-width="2" stroke="url(#wwwhirl-grad)" fill="none" stroke-linecap="round">
        <path
            d="M37.00000251770027 403.92225229800783C50.75000289917 391.54725195468507 75.50000358581553 344.5222506500586 103.000004348755 344.5222506500586C130.50000511169446 344.5222506500586 141.5000054168703 400.209752195011 169.00000617980973 403.92225229800783C196.5000069427492 407.6347524010047 207.50000724792503 351.823500852619 235.00000801086446 362.34225114444337C262.500008773804 372.8610014362677 273.5000090789798 458.53725381320567 301.0000098419193 454.41225369876474C328.50001060485874 450.2872535843238 339.5000109100345 342.954750606571 367.000011672974 342.5422505951269C394.50001243591345 342.12975058368283 405.5000127410893 445.4197534492835 433.0000135040287 452.43225364383306C460.5000142669682 459.44475383838267 471.50001457214404 375.9960015232428 499.0000153350834 376.20225152896484C526.5000160980228 376.4085015346869 537.5000164031987 453.62850367702094 565.0000171661382 453.4222536712989C592.5000179290777 453.21600366557686 603.5000182342535 374.38725147861084 631.000018997193 375.21225150149905C658.5000197601325 376.0372515243872 669.5000200653083 454.9072537124976 697.0000208282477 457.38225378116215C724.5000215911871 459.85725384982675 749.2500222778326 401.73600223735417 763.0000226593024 387.0922518310889 "
            transform="rotate(99, 400, 400)"></path>
        <path
            d="M48.00000244140632 403.80339535858695C61.33333614464971 391.8033950256679 85.3333368104878 346.2033937605756 112.00000421697456 346.2033937605756C138.6666716234613 346.2033937605756 149.33333858605602 400.2033952587112 176.00000599254278 403.80339535858695C202.66667339902952 407.4033954584627 213.33334036162427 353.28339395699777 240.000007768111 363.48339423997896C266.6666751745978 373.68339452296016 277.3333421371925 456.76339682786966 304.00000954367925 452.76339671689664C330.66667695016605 448.7633966059237 341.3333439127607 344.6833937184058 368.00001131924745 344.2833937073085C394.66667872573424 343.8833936962112 405.33334568832896 444.04339647497545 432.00001309481576 450.8433966636296C458.66668050130244 457.64339685228373 469.3333474638972 376.72339460729967 496.0000148703839 376.9233946128483C522.6666822768707 377.12339461839696 533.3333492394653 452.0033966958118 560.0000166459522 451.8033966902631C586.666684052439 451.6033966847145 597.3333510150337 375.16339456402017 624.0000184215204 375.9633945862148C650.6666858280073 376.7633946084094 661.3333527906019 453.2433967302134 688.0000201970887 455.6433967967972C714.6666876035754 458.043396863381 738.6666882694134 401.6833952997713 752.0000219726569 387.4833949058171 "
            transform="rotate(96, 400, 400)"></path>
        <path
            d="M59.00000236511238 403.6845384191661C71.9166693901294 392.0595380966508 95.16667003516005 347.88453687109256 121.00000408519412 347.88453687109256C146.83333813522813 347.88453687109256 157.1666717552418 400.1970383224115 183.0000058052758 403.6845384191661C208.83333985530987 407.1720385159207 219.1666734753235 354.7432870613766 245.00000752535757 364.6245373355146C270.8333415753916 374.50578760965266 281.1666751954052 454.98953984253376 307.0000092454393 451.11453973502864C332.83334329547336 447.2395396275235 343.16667691548696 346.4120368302406 369.00001096552097 346.0245368194901C394.83334501555504 345.6370368087396 405.1666786355687 442.6670395006675 431.0000126856027 449.2545396834262C456.8333467356368 455.84203986618485 467.16668035565044 377.45078769135654 493.0000144056845 377.6445376967318C518.8333484557185 377.83828770210704 529.1666820757321 450.37828971460266 555.0000161257661 450.1845397092274C580.8333501758003 449.99078970385216 591.1666837958139 375.93953764942955 617.000017845848 376.71453767093055C642.8333518958821 377.48953769243155 653.1666855158957 451.57953974792923 679.0000195659296 453.9045398124323C704.8333536159636 456.2295398769354 728.0833542609943 401.6307883621884 741.0000212860114 387.87453798054526 "
            transform="rotate(93, 400, 400)"></path>
        <path
            d="M70.00000228881842 403.5656852944425C82.50000263560909 392.3156849823309 105.00000325983231 349.5656837963068 130.00000395341365 349.5656837963068C155.00000464699497 349.5656837963068 165.00000492442751 400.190685200809 190.00000561800886 403.5656852944425C215.0000063115902 406.94068538807596 225.00000658902275 356.20318398045265 250.00000728260406 365.7656842457475C275.00000797618543 375.32818451104237 285.000008253618 453.215686671895 310.0000089471993 449.46568656785786C335.00000964078066 445.71568646382065 345.00000991821315 348.14068375677266 370.0000106117945 347.76568374636895C395.00001130537584 347.39068373596524 405.0000115828084 441.2906863410567 430.0000122763897 447.66568651792C455.000012969971 454.04068669478323 465.0000132474036 378.1781845901106 490.00001394098496 378.3656845953125C515.0000146345662 378.5531846005144 525.0000149119987 448.75318654809075 550.0000156055801 448.5656865428889C575.0000162991615 448.37818653768704 585.000016576594 376.71568454953615 610.0000172701755 377.46568457034357C635.0000179637568 378.215684591151 645.0000182411893 449.9156865803423 670.0000189347705 452.1656866427646C695.0000196283519 454.41568670518694 717.5000202525752 401.5781852393028 730.0000205993658 388.2656848699707 "
            transform="rotate(90, 400, 400)"></path>
        <path
            d="M81.00000221252448 403.44682835502164C93.08333588108879 392.57182805331377 114.83333648450457 351.2468269068238 139.0000038216332 351.2468269068238C163.1666711587618 351.2468269068238 172.83333809361326 400.18432826450925 197.0000054307419 403.44682835502164C221.16667276787052 406.70932844553397 230.833339702722 357.66307708483146 255.00000703985063 366.90682734128313C279.16667437697924 376.1505775977348 288.83334131183074 451.4418296865591 313.00000864895935 447.8168295859898C337.16667598608797 444.1918294854205 346.8333429209394 349.86932686860746 371.000010258068 349.50682685855054C395.16667759519663 349.1443268484936 404.8333445300481 439.9143293667487 429.00001186717674 446.07682953771655C453.16667920430535 452.2393297086843 462.8333461391569 378.9055776741675 487.00001347628546 379.08682767919595C511.1666808134141 379.2680776842244 520.8333477482655 447.12807956688164 545.0000150853941 446.9468295618532C569.1666824225229 446.7655795568247 578.8333493573742 377.4918276349455 603.000016694503 378.2168276550593C627.1666840316316 378.9418276751732 636.8333509664831 448.2518295980581 661.0000183036116 450.4268296583997C685.1666856407402 452.60182971874127 706.9166862441559 401.5255783017199 719.0000199127203 388.6568279446989 "
            transform="rotate(87, 400, 400)"></path>
        <path
            d="M92.00000213623053 403.32797141560076C103.6666691265685 392.8279711242966 124.66666970917683 352.9279700173408 148.00000368985275 352.9279700173408C171.33333767052864 352.9279700173408 180.666671262799 400.17797132820954 204.00000524347493 403.32797141560076C227.33333922415085 406.47797150299203 236.66667281642125 359.1229701892102 260.00000679709717 368.0479704368188C283.33334077777306 376.9729706844273 292.66667437004344 449.66797270122316 316.0000083507193 446.16797260412176C339.3333423313953 442.66797250702035 348.66667592366565 351.59796998044226 372.00000990434154 351.24796997073213C395.3333438850174 350.897969961022 404.6666774772878 438.5379723924407 428.00001145796375 444.4879725575131C451.3333454386397 450.4379727225854 460.6666790309101 379.63297075822436 484.000013011586 379.8079707630794C507.33334699226185 379.9829707679345 516.6666805845323 445.50297258567247 540.0000145652082 445.3279725808174C563.3333485458841 445.15297257596234 572.6666821381544 378.2679707203548 596.0000161188304 378.96797073977507C619.3333500995063 379.6679707591954 628.6666836917767 446.5879726157739 652.0000176724526 448.68797267403477C675.3333516531285 450.78797273229554 696.3333522357368 401.47297136413704 708.0000192260748 389.0479710194271 "
            transform="rotate(84, 400, 400)"></path>
        <path
            d="M103.00000205993659 403.2091144761799C114.25000237204819 393.0841141952794 134.5000029338491 354.60911312785777 157.00000355807228 354.60911312785777C179.50000418229547 354.60911312785777 188.5000044319848 400.17161439190977 211.00000505620795 403.2091144761799C233.50000568043117 406.24661456045004 242.50000593012047 360.582863293589 265.0000065543437 369.1891135323544C287.5000071785669 377.79536377111975 296.5000074282562 447.8941157158872 319.0000080524794 444.5191156222537C341.5000086767026 441.1441155286202 350.50000892639184 353.32661309227706 373.00000955061506 352.9891130829137C395.5000101748383 352.6516130735503 404.5000104245276 437.16161541813267 427.00001104875076 442.8991155773096C449.500011672974 448.63661573648653 458.5000119226633 380.36036384228123 481.00001254688647 380.5291138469629C503.50001317110963 380.69786385164457 512.5000134207988 443.8778656044633 535.0000140450221 443.7091155997816C557.5000146692455 443.54036559509996 566.5000149189347 379.04411380576414 589.0000155431579 379.7191138244909C611.5000161673811 380.39411384321755 620.5000164170704 444.9241156334897 643.0000170412935 446.94911568966984C665.5000176655168 448.9741157458499 685.7500182273176 401.42036442655416 697.0000185394292 389.4391140941553 "
            transform="rotate(81, 400, 400)"></path>
        <path
            d="M114.00000198364263 403.090257536759C124.83333561752788 393.3402572662623 144.33333615852135 356.29025623837475 166.0000034262918 356.29025623837475C187.6666706940623 356.29025623837475 196.3333376011705 400.16525745561 218.000004868941 403.090257536759C239.6666721367115 406.01525761790805 248.3333390438197 362.0427563979678 270.0000063115902 370.33025662789004C291.6666735793607 378.61775685781225 300.33334048646896 446.12025873055126 322.0000077542394 442.87025864038566C343.6666750220099 439.6202585502201 352.3333419291181 355.05525620411186 374.0000091968886 354.73025619509525C395.6666764646591 354.4052561860787 404.3333433717673 435.7852584438247 426.0000106395378 441.3102585971062C447.66667790730827 446.83525875038765 456.3333448144165 381.0877569263381 478.00001208218697 381.2502569308464C499.66667934995746 381.41275693535465 508.33334625706556 442.2527586232542 530.0000135248362 442.0902586187459C551.6666807926067 441.92775861423763 560.3333476997147 379.8202568911735 582.0000149674854 380.4702569092066C603.6666822352558 381.1202569272397 612.3333491423641 443.2602586512055 634.0000164101345 445.21025870530485C655.666683677905 447.1602587594042 675.1666842188985 401.3677574889713 686.0000178527837 389.83025716888346 "
            transform="rotate(78, 400, 400)"></path>
        <path
            d="M125.00000190734869 402.9714005973382C135.41666886300757 393.59640033724514 154.1666693831936 357.97139934889174 175.00000329451137 357.97139934889174C195.83333720582914 357.97139934889174 204.16667077035626 400.15890051931024 225.00000468167406 402.9714005973382C245.83333859299182 405.78390067536606 254.16667215751897 363.5026495023466 275.00000606883674 371.47139972342563C295.8333399801545 379.4401499445047 304.16667354468166 444.34640174521525 325.0000074559994 441.2214016585176C345.8333413673172 438.0964015718199 354.16667493184434 356.7838993159466 375.00000884316205 356.47139930727684C395.8333427544799 356.1588992986071 404.166676319007 434.4089014695167 425.0000102303248 439.7214016169027C445.83334414164256 445.03390176428877 454.1666777061697 381.8151500103949 475.0000116174875 381.9714000147298C495.83334552880524 382.12765001906473 504.1666790933323 440.62765164204507 525.0000130046501 440.4714016377102C545.8333469159679 440.3151516333753 554.166680480495 380.59639997658286 575.0000143918128 381.2213999939224C595.8333483031306 381.8464000112619 604.1666818676579 441.5964016689213 625.0000157789755 443.4714017209399C645.8333496902933 445.34640177295853 664.5833502104794 401.3151505513884 675.0000171661382 390.2214002436117 "
            transform="rotate(75, 400, 400)"></path>
        <path
            d="M136.00000183105476 402.85254747261456C146.00000210848728 393.85254722292524 164.00000260786584 359.652546274106 184.00000316273093 359.652546274106C204.00000371759597 359.652546274106 212.000003939542 400.15254739770774 232.00000449440708 402.85254747261456C252.00000504927215 405.5525475475213 260.0000052712182 364.96254642142264 280.0000058260833 372.61254663365855C300.0000063809483 380.26254684589446 308.00000660289436 442.57254857457656 328.00000715775946 439.5725484913468C348.00000771262455 436.5725484081171 356.00000793457053 358.51254624247866 376.0000084894356 358.2125462341557C396.00000904430067 357.9125462258327 404.0000092662467 433.0325483099059 424.0000098211118 438.13254845139653C444.0000103759769 443.2325485928871 452.0000105979229 382.54254690914905 472.000011152788 382.69254691331054C492.000011707653 382.842546917472 500.00001192959905 439.00254847553316 520.0000124844642 438.8525484713717C540.0000130393292 438.7025484672102 548.0000132612753 381.37254687668946 568.0000138161404 381.9725468933354C588.0000143710055 382.5725469099814 596.0000145929514 439.9325485013344 616.0000151478165 441.7325485512722C636.0000157026815 443.5325486012101 654.00001620206 401.2625474285028 664.0000164794926 390.61254713303714 "
            transform="rotate(72, 400, 400)"></path>
        <path
            d="M146.9999864959717 402.7336905331937C156.5833200951779 394.1086902939081 173.83332057374906 361.33368938462297 192.9999877721614 361.33368938462297C212.16665497057375 361.33368938462297 219.8333218499387 400.146190461408 238.99998904835104 402.7336905331937C258.1666562467634 405.32119060497934 265.8333231261284 366.42243952580145 284.9999903245407 373.7536897291942C304.1666575229531 381.0849399325869 311.83332440231806 440.7986915892406 330.9999916007304 437.9236915094788C350.1666587991428 435.04869142971694 357.83332567850766 360.24118935431346 376.99999287692003 359.9536893463373C396.1666600753324 359.6661893383611 403.8333269546974 431.6561913355979 422.99999415310975 436.5436914711931C442.1666613515221 441.4311916067882 449.83332823088705 383.2699399932059 468.9999954292994 383.413689997194C488.16666262771173 383.5574400011821 495.83332950707666 437.377441494324 514.9999967054891 437.2336914903359C534.1666639039015 437.0899414863478 541.8333307832664 382.1486899620988 560.9999979816788 382.7236899780512C580.1666651800912 383.29868999400355 587.8333320594561 438.2686915190502 606.9999992578685 439.99369156690733C626.1666664562807 441.71869161476445 643.4166669348518 401.2099404909199 653.000000534058 391.0036902077653 "
            transform="rotate(69, 400, 400)"></path>
        <path
            d="M157.99998641967778 402.6148335937728C167.1666533406576 394.36483336489096 183.6666537984213 363.01483249513996 201.99998764038094 363.01483249513996C220.33332148234058 363.01483249513996 227.66665501912445 400.13983352510826 245.9999888610841 402.6148335937728C264.33332270304373 405.08983366243734 271.6666562398276 367.88233263018026 289.99999008178725 374.8948328247298C308.3333239237469 381.90733301927935 315.6666574605308 439.02483460390465 333.99999130249046 436.2748345276107C352.3333251444501 433.5248344513168 359.6666586812339 361.96983246614826 377.99999252319355 361.6948324585189C396.3333263651532 361.4198324508895 403.6666599019371 430.2798343612899 421.99999374389677 434.95483449098964C440.3333275858564 439.62983462068934 447.6666611226403 383.9973330772628 465.9999949645999 384.1348330810775C484.3333288065595 384.2723330848922 491.6666623433434 435.7523345131149 509.9999961853031 435.6148345093002C528.3333300272627 435.4773345054855 535.6666635640465 382.9248330475081 553.9999974060063 383.47483306276695C572.3333312479659 384.0248330780257 579.6666647847499 436.604834536766 597.9999986267094 438.25483458254234C616.3333324686689 439.9048346283187 632.8333329264326 401.157333553337 641.9999998474125 391.3948332824935 "
            transform="rotate(66, 400, 400)"></path>
        <path
            d="M168.99998634338385 402.4959804690492C177.7499865861373 394.62098025057105 193.49998702309355 364.6959794203542 210.9999875086005 364.6959794203542C228.4999879941074 364.6959794203542 235.49998818831023 400.13348040350576 252.99998867381714 402.4959804690492C270.49998915932406 404.8584805345926 277.49998935352687 369.34222954925633 294.9999898390338 376.0359797349627C312.4999903245407 382.7297299206691 319.4999905187435 437.25098143326596 336.99999100425043 434.62598136043994C354.49999148975735 432.0009812876139 361.49999168396016 363.6984793926803 378.9999921694671 363.43597938539773C396.49999265497405 363.17347937811513 403.4999928491768 428.90348120167914 420.9999933346837 433.3659813254834C438.4999938201907 437.82848144928766 445.4999940143935 384.7247299760169 462.9999944999004 384.8559799796582C480.4999949854073 384.9872299832995 487.4999951796101 434.12723134660297 504.99999566511707 433.99598134296167C522.4999961506239 433.8647313393204 529.4999963448267 383.70097994761477 546.9999968303338 384.22597996217996C564.4999973158407 384.75097997674516 571.4999975100434 434.94098136917904 588.9999979955503 436.5159814128747C606.4999984810572 438.0909814565703 622.2499989180135 401.1047304304514 630.999999160767 391.78598017191894 "
            transform="rotate(63, 400, 400)"></path>
        <path
            d="M179.9999862670899 402.3771235296283C188.33331983161702 394.87712332155394 203.3333202477658 366.3771225308712 219.99998737682003 366.3771225308712C236.66665450587425 366.3771225308712 243.33332135749595 400.127123467206 259.9999884865502 402.3771235296283C276.6666556156044 404.6271235920507 283.33332246722614 370.8021226536351 299.99998959628033 377.1771228304983C316.6666567253345 383.55212300736156 323.3333235769563 435.47712444793 339.9999907060105 432.9771243785719C356.6666578350647 430.47712430921376 363.3333246866864 365.4271225045151 379.9999918157406 365.1771224975793C396.6666589447948 364.92712249064346 403.33332579641655 427.52712422737113 419.9999929254708 431.77712434527996C436.666660054525 436.02712446318884 443.3333269061467 385.45212306007375 459.9999940352009 385.57712306354165C476.6666611642551 385.70212306700955 483.33332801587676 432.50212436539385 499.99999514493106 432.37712436192595C516.6666622739854 432.25212435845805 523.333329125607 384.4771230330241 539.9999962546613 384.9771230468957C556.6666633837156 385.4771230607673 563.3333302353371 433.2771243868949 579.9999973643913 434.77712442850975C596.6666644934455 436.27712447012465 611.6666649095944 401.05212349286853 619.9999984741214 392.17712324664717 "
            transform="rotate(60, 400, 400)"></path>
        <path
            d="M190.99998619079594 402.2582665902075C198.9166530770967 395.13326639253677 213.16665347243807 368.0582656413882 228.99998724503956 368.0582656413882C244.83332101764108 368.0582656413882 251.1666545266817 400.1207665309063 266.99998829928325 402.2582665902075C282.8333220718847 404.3957666495087 289.16665558092535 372.2620157580139 304.99998935352687 378.318265926034C320.83332312612833 384.37451609405406 327.166656635169 433.70326746259406 342.9999904077705 431.32826739670384C358.833324180372 428.9532673308136 365.1666576894126 367.15576561634987 380.9999914620141 366.91826560976085C396.8333252346156 366.68076560317184 403.1666587436563 426.1507672530631 418.99999251625775 430.1882673650765C434.83332628885927 434.2257674770899 441.1666597978999 386.1795161441306 456.99999357050143 386.2982661474251C472.8333273431029 386.41701615071963 479.1666608521435 430.8770173841847 494.99999462474506 430.7582673808902C510.8333283973466 430.63951737759567 517.1666619063872 385.25326611843343 532.9999956789886 385.72826613161146C548.8333294515903 386.2032661447895 555.1666629606309 431.61326740461067 570.9999967332324 433.0382674441448C586.8333305058338 434.4632674836789 601.0833309011753 400.99951655528565 608.9999977874759 392.56826632137535 "
            transform="rotate(57, 400, 400)"></path>
        <path
            d="M201.999986114502 402.1394096507866C209.49998632257638 395.38940946351966 222.99998669711033 369.73940875190516 237.99998711325912 369.73940875190516C252.99998752940792 369.73940875190516 258.99998769586745 400.1144095946065 273.99998811201624 402.1394096507866C288.9999885281651 404.1644097069667 294.99998869462456 373.7219088623927 309.9999891107734 379.4594090215696C324.9999895269222 385.1969091807465 330.99998969338174 431.9294104772581 345.99999010953053 429.6794104148358C360.9999905256793 427.42941035241347 366.9999906921388 368.88440872818467 381.99999110828765 368.65940872194244C396.99999152443644 368.4344087157002 402.99999169089597 424.7744102787551 417.99999210704476 428.59941038487307C432.99999252319355 432.424410490991 438.99999268965314 386.9069092281875 453.99999310580193 387.0194092313086C468.9999935219507 387.1319092344297 474.9999936884102 429.25191040297557 489.99999410455905 429.13941039985446C504.9999945207079 429.02691039673334 510.9999946871674 386.02940920384276 525.9999951033162 386.4794092163272C540.9999955194651 386.9294092288117 546.9999956859245 429.9494104223265 561.9999961020733 431.2994104597799C576.9999965182221 432.64941049723325 590.499996892756 400.9469096177028 597.9999971008303 392.9594093961035 "
            transform="rotate(54, 400, 400)"></path>
        <path
            d="M212.99998603820805 402.02055461871436C220.08331956805608 395.6455544418511 232.8333199217826 371.4205537697708 246.99998698147868 371.4205537697708C261.16665404117475 371.4205537697708 266.8333208650532 400.1080545656554 280.9999879247493 402.02055461871436C295.16665498444536 403.93305467177333 300.83332180832383 375.1818038741201 314.99998886801995 380.60055402445386C329.166655927716 386.01930417478764 334.83332275159444 430.1555553992708 348.99998981129056 428.03055534031637C363.1666568709866 425.90555528136196 368.83332369486504 370.6130537473681 382.99999075456117 370.40055374147266C397.16665781425723 370.1880537355772 402.8333246381357 423.39805521179574 416.9999916978318 427.01055531201825C431.1666587575279 430.6230554122408 436.8333255814063 387.634304219593 450.99999264110244 387.7405542225407C465.1666597007985 387.8468042254884 470.8333265246769 427.62680532911503 484.99999358437304 427.5205553261673C499.16666064406917 427.4143053232196 504.8333274679476 386.8055541966007 518.9999945276437 387.23055420839165C533.1666615873398 387.6555542201825 538.8333284112182 428.2855553473909 552.9999954709143 429.56055538276354C567.1666625306103 430.8355554181362 579.9166628843368 400.8943045874685 586.9999964141849 393.35055437818033 "
            transform="rotate(51, 400, 400)"></path>
        <path
            d="M223.9999859619141 401.9016995866421C230.6666528135358 395.9016994201826 242.66665314645485 373.1016987876364 255.99998684969822 373.1016987876364C269.3333205529416 373.1016987876364 274.66665403423895 400.10169953670425 287.99998773748234 401.9016995866421C301.3333214407257 403.70169963658 306.6666549220231 376.6416988858475 319.99998862526644 381.74169902733814C333.33332232850984 386.8416991688287 338.6666558098072 428.38170032128346 351.99998951305054 426.38170026579695C365.33332321629393 424.38170021031044 370.6666566975913 372.34169876655153 383.9999904008347 372.1416987610029C397.3333241040781 371.94169875545424 402.66665758537545 422.02170014483636 415.99999128861884 425.42170023916344C429.3333249918621 428.8217003334905 434.66665847315954 388.36169921099844 447.9999921764029 388.4616992137728C461.3333258796463 388.56169921654714 466.6666593609436 426.0017002552545 479.99999306418704 425.90170025248017C493.33332676743044 425.80170024970585 498.6666602487278 387.58169918935874 511.99999395197113 387.98169920045603C525.3333276552146 388.3816992115533 530.666661136512 426.62170027245537 543.9999948397553 427.82170030574724C557.3333285429986 429.02170033903917 569.3333288759177 400.8416995572343 575.9999957275394 393.74169936025714 "
            transform="rotate(48, 400, 400)"></path>
        <path
            d="M234.99998588562016 401.78284264722123C241.2499860590155 396.15784249116547 252.49998637112708 374.7828418981534 264.99998671791775 374.7828418981534C277.4999870647084 374.7828418981534 282.49998720342467 400.0953426004045 294.99998755021534 401.78284264722123C307.499987897006 403.470342694038 312.4999880357223 378.1015919902263 324.999988382513 382.88284212287374C337.49998872930365 387.6640922555212 342.49998886801995 426.6078433359475 354.9999892148106 424.7328432839289C367.4999895616013 422.85784323191035 372.49998970031754 374.07034187838633 384.9999900471082 373.8828418731845C397.4999903938989 373.6953418679826 402.49999053261513 420.64534317052835 414.9999908794058 423.83284325896C427.49999122619647 427.0203433473916 432.4999913649127 389.0890922950553 444.9999917117034 389.18284229765624C457.49999205849406 389.27659230025716 462.4999921972103 424.3765932740454 474.999992544001 424.28284327144445C487.4999928907917 424.1890932688435 492.49999302950795 388.3578422747681 504.9999933762987 388.7328422851718C517.4999937230893 389.1078422955755 522.4999938618056 424.9578432901711 534.9999942085963 426.0828433213823C547.4999945553868 427.2078433525935 558.7499948674986 400.7890926196514 564.9999950408939 394.1328424349854 "
            transform="rotate(45, 400, 400)"></path>
        <path
            d="M245.9999858093262 401.6639857078004C251.83331930449518 396.4139855621483 262.33331959579937 376.46398500867036 273.9999865861373 376.46398500867036C285.66665357647526 376.46398500867036 290.33332037261044 400.08898566410477 301.9999873629484 401.6639857078004C313.6666543532864 403.238985751496 318.3333211494216 379.56148509460513 329.9999881397595 384.0239852184094C341.66665513009747 388.48648534221365 346.33332192623266 424.83398635061155 357.9999889165706 423.08398630206085C369.66665590690855 421.3339862535102 374.3333227030438 375.79898499022113 385.99998969338174 375.62398498536606C397.6666566837197 375.448984980511 402.3333234798548 419.26898619622034 413.9999904701928 422.24398627875655C425.6666574605308 425.2189863612927 430.33332425666595 389.8164853791122 441.99999124700395 389.9039853815397C453.66665823734184 389.99148538396724 458.3333250334771 422.75148629283626 469.999992023815 422.66398629040873C481.66665901415297 422.5764862879812 486.33332581028816 389.1339853601774 497.99999280062616 389.48398536988753C509.6666597909641 389.83398537959766 514.3333265870992 423.29398630788694 525.9999935774372 424.3439863370174C537.6666605677751 425.3939863661478 548.1666608590793 400.7364856820685 553.9999943542483 394.52398550971355 "
            transform="rotate(42, 400, 400)"></path>
        <path
            d="M256.99998573303225 401.5451287683795C262.41665254997486 396.6701286331311 272.1666528204716 378.14512811918735 282.9999864543569 378.14512811918735C293.8333200882421 378.14512811918735 298.1666535417962 400.082628727805 308.99998717568144 401.5451287683795C319.83332080956666 403.007628808954 324.1666542631208 381.02137819898394 334.999987897006 385.165128313945C345.8333215308913 389.30887842890616 350.1666549844454 423.0601293652756 360.99998861833063 421.4351293201928C371.8333222522159 419.81012927511006 376.16665570577 377.5276281020559 386.99998933965526 377.36512809754765C397.8333229735405 377.2026280930394 402.1666564270946 417.89262922191233 412.9999900609798 420.6551292985531C423.83332369486504 423.4176293751938 428.1666571484192 390.54387846316905 438.9999907823044 390.6251284654232C449.83332441618967 390.7063784676773 454.16665786974374 421.1263793116271 464.999991503629 421.04512930937295C475.8333251375143 420.9638793071188 480.1666585910683 389.91012844558674 490.99999222495364 390.23512845460334C501.83332585883886 390.5601284636199 506.166659312393 421.63012932560275 516.9999929462782 422.60512935265245C527.8333265801634 423.5801293797021 537.5833268506601 400.68387874448564 542.9999936676028 394.91512858444173 "
            transform="rotate(39, 400, 400)"></path>
        <path
            d="M267.9999856567383 401.4262737363073C272.99998579545456 396.92627361146265 281.9999860451438 379.826273137053 291.99998632257643 379.826273137053C301.9999866000089 379.826273137053 305.99998671098194 400.07627369885387 315.9999869884145 401.4262737363073C325.99998726584704 402.77627377376064 329.99998737682006 382.4812732107113 339.99998765425255 386.3062733168293C349.9999879316851 390.13127342294723 353.9999880426581 421.2862742872883 363.99998832009067 419.78627424567344C373.9999885975232 418.28627420405854 377.9999887084962 379.25627312123936 387.9999889859287 379.1062731170779C397.9999892633613 378.9562731129164 401.9999893743343 416.51627415495295 411.99998965176684 419.0662742256983C421.9999899291994 421.6162742964436 425.9999900401724 391.2712734545745 435.9999903176049 391.3462734566553C445.99999059503745 391.42127345873604 449.99999070601046 419.50127423776655 459.999990983443 419.4262742356858C469.99999126087556 419.35127423360507 473.9999913718486 390.68627343834476 483.9999916492811 390.9862734466677C493.9999919267137 391.2862734549907 497.99999203768664 419.9662742506672 507.9999923151192 420.8662742756361C517.9999925925517 421.76627430060506 526.999992842241 400.6312737142514 531.9999929809572 395.30627356651854 "
            transform="rotate(36, 400, 400)"></path>
        <path
            d="M279.0000008392334 401.3074167968864C283.58333429972333 397.1824166824455 291.8333345286052 381.50741624756995 301.000001449585 381.50741624756995C310.1666683705648 381.50741624756995 313.8333351389567 400.0699167625541 323.0000020599366 401.3074167968864C332.16666898091637 402.5449168312187 335.83333574930833 383.94116631509013 345.00000267028815 387.44741641236493C354.166669591268 390.9536665096397 357.83333635965994 419.5124173019523 367.00000328063976 418.13741726380533C376.1666702016196 416.7624172256584 379.8333369700115 380.98491623307416 389.0000038909913 380.8474162292594C398.16667081197113 380.7099162254447 401.8333375803631 415.13991718064494 411.0000045013429 417.4774172454948C420.16667142232274 419.81491731034464 423.8333381907147 391.99866653863137 433.00000511169446 392.0674165405387C442.1666720326743 392.13616654244606 445.83333880106625 417.87616725655744 455.00000572204607 417.8074172546501C464.1666726430259 417.73866725274274 467.8333394114178 391.4624165237541 477.0000063323977 391.7374165313835C486.1666732533775 392.01241653901286 489.83334002176946 418.302417268383 499.0000069427492 419.1274172912712C508.166673863729 419.95241731415933 516.4166740926108 400.5786667766685 521.0000075531008 395.6974166412467 "
            transform="rotate(33, 400, 400)"></path>
        <path
            d="M290.00000076293946 401.18856176481415C294.16666754520304 397.43856166077694 301.66666775327747 383.1885612654356 310.00000131780456 383.1885612654356C318.33333488233166 383.1885612654356 321.6666683081425 400.063561733603 330.0000018726696 401.18856176481415C338.33333543719675 402.31356179602534 341.6666688630076 385.40106132681757 350.0000024275347 388.58856141524916C358.3333359920618 391.7760615036808 361.66666941787264 417.738562223965 370.0000029823998 416.488562189286C378.3333365469269 415.2385621546069 381.66666997273774 382.71356125225753 390.00000353726483 382.58856124878963C398.3333371017919 382.4635612453217 401.66667052760283 413.76356211368557 410.0000040921299 415.88856217264C418.333337656657 418.0135622315944 421.6666710824679 392.7260615300369 430.00000464699497 392.7885615317708C438.3333382115221 392.8510615335048 441.6666716373329 416.25106218269696 450.00000520186006 416.18856218096295C458.3333387663872 416.126062179229 461.666672192198 392.23856151651205 470.00000575672516 392.48856152344786C478.3333393212523 392.73856153038366 481.6666727470631 416.63856219344746 490.0000063115902 417.3885622142549C498.3333398761173 418.1385622350623 505.8333400841917 400.52606174643427 510.00000686645524 396.0885616233236 "
            transform="rotate(30, 400, 400)"></path>
        <path
            d="M301.00000068664554 401.0697048253933C304.75000079068275 397.6947047317598 311.5000009779497 384.8697043759526 319.00000118602406 384.8697043759526C326.5000013940985 384.8697043759526 329.5000014773283 400.05720479730326 337.00000168540265 401.0697048253933C344.5000018934771 402.08220485348335 347.5000019767068 386.8609544311963 355.00000218478124 389.7297045107848C362.50000239285566 392.59845459037325 365.5000024760854 415.96470523862905 373.00000268415977 414.8397052074179C380.5000028922342 413.71470517620673 383.50000297546393 384.44220436409233 391.00000318353835 384.3297043609712C398.5000033916127 384.2172043578501 401.5000034748425 412.38720513937756 409.00000368291694 414.29970519243653C416.5000038909913 416.2122052454955 419.5000039742211 393.45345461409374 427.00000418229547 393.5097046156543C434.5000043903699 393.56595461721486 437.50000447359963 414.6259552014878 445.00000468167406 414.5697051999272C452.5000048897485 414.51345519836667 455.5000049729782 393.0147046019214 463.00000518105264 393.2397046081636C470.50000538912707 393.46470461440583 473.5000054723568 414.97470521116327 481.0000056804312 415.64970522988995C488.5000058885056 416.3247052486166 495.25000607577255 400.4734548088514 499.0000061798097 396.47970469805176 "
            transform="rotate(27, 400, 400)"></path>
        <path
            d="M312.00000061035155 400.95084883964677C315.33333403616246 397.950848756417 321.3333342026219 386.5508484401439 328.0000010542436 386.5508484401439C334.6666679058653 386.5508484401439 337.333334646514 400.0508488146778 344.0000014981357 400.95084883964677C350.6666683497574 401.85084886461567 353.3333350904061 388.32084848924944 360.0000019420278 390.8708485599947C366.6666687936495 393.42084863074 369.33333553429816 414.1908492069674 376.0000023859198 413.1908491792242C382.6666692375415 412.1908491514809 385.3333359781902 386.17084842960145 392.0000028298119 386.0708484268271C398.6666696814336 385.9708484240528 401.33333642208225 411.01084911874386 408.00000327370395 412.7108491659074C414.6666701253256 414.41084921307095 417.3333368659743 394.18084865182493 424.000003717596 394.2308486532121C430.6666705692177 394.28084865459925 433.33333730986635 413.00084917395293 440.00000416148805 412.95084917256577C446.66667101310975 412.9008491711786 449.3333377537584 393.790848641005 456.0000046053801 393.9908486465537C462.6666714570018 394.1908486521023 465.3333381976505 413.31084918255334 472.0000050492722 413.91084919919933C478.66667190089385 414.51084921584527 484.6666720673534 400.4208488249428 488.0000054931642 396.87084872645426 "
            transform="rotate(24, 400, 400)"></path>
        <path
            d="M323.0000005340576 400.83199476124884C325.9166672816421 398.2069946884228 331.1666674272942 388.23199441168384 337.0000009224632 388.23199441168384C342.83333441763216 388.23199441168384 345.1666678156997 400.044494739401 351.0000013108687 400.83199476124884C356.8333348060377 401.6194947830966 359.16666820410535 389.7807444546512 365.0000016992743 392.01199451655333C370.8333351944433 394.24324457845546 373.16666859251086 412.4169950826544 379.00000208767983 411.5419950583791C384.8333355828488 410.6669950341037 387.1666689809164 387.8994944024592 393.0000024760854 387.81199440003167C398.83333597125437 387.72449439760413 401.16666936932194 409.6344950054588 407.00000286449097 411.1219950467269C412.83333635965994 412.609495087995 415.1666697577275 394.90824459690475 421.0000032528965 394.9519945981185C426.83333674806545 394.9957445993323 429.1666701461331 411.37574505376676 435.00000364130204 411.331995052553C440.833337136471 411.28824505133923 443.16667053453864 394.5669945874373 449.0000040297076 394.74199459229243C454.8333375248766 394.9169945971475 457.16667092294415 411.6469950612921 463.0000044181131 412.1719950758573C468.8333379132821 412.69699509042255 474.0833380589342 400.3682447483829 477.0000048065187 397.26199466220544 "
            transform="rotate(21, 400, 400)"></path>
        <path
            d="M334.0000004577637 400.71313686815364C336.5000005271218 398.4631368057313 341.00000065196645 389.9131365685265 346.00000079068275 389.9131365685265C351.000000929399 389.9131365685265 353.0000009848855 400.03813684942696 358.0000011236018 400.71313686815364C363.00000126231805 401.3881368868803 365.00000131780456 391.2406366053557 370.0000014565208 393.1531366584146C375.0000015952371 395.0656367114736 377.00000165072356 410.64313714364414 382.00000178943986 409.8931371228367C387.00000192815617 409.14313710202924 389.0000019836426 389.6281365606197 394.00000212235886 389.55313655853894C399.00000226107517 389.4781365564582 401.0000023165617 408.2581370774765 406.0000024552779 409.53313711284915C411.0000025939942 410.80813714822176 413.00000264948073 395.63563672728725 418.000002788197 395.6731367283276C423.0000029269132 395.710636729368 425.0000029823998 409.7506371188833 430.00000312111604 409.7131371178429C435.0000032598323 409.67563711680253 437.00000331531885 395.3431367191724 442.0000034540351 395.49313672333386C447.00000359275134 395.64313672749535 449.00000364823785 409.9831371253336 454.00000378695415 410.43313713781805C459.0000039256704 410.8831371503025 463.50000405051503 400.3156368571257 466.00000411987315 397.6531367832593 "
            transform="rotate(18, 400, 400)"></path>
        <path
            d="M344.99999656677244 400.5942808824071C347.08332995790425 398.71928083038847 350.83333006194147 391.5942806327178 354.99999684420504 391.5942806327178C359.16666362646856 391.5942806327178 360.833330339374 400.0317808668015 364.99999712163753 400.5942808824071C369.1666639039011 401.15678089801264 370.8333306168065 392.70053066340876 374.9999973990701 394.2942807076246C379.16666418133366 395.8880307518404 380.83333089423905 408.8692811119825 384.99999767650263 408.244281094643C389.16666445876615 407.61928107730347 390.8333311716716 391.3567806261288 394.9999979539351 391.29428062439484C399.1666647361987 391.2317806226609 400.83333144910415 406.8817810568428 404.9999982313677 407.94428108632C409.16666501363125 409.0067811157972 410.8333317265367 396.36303076501844 414.9999985088002 396.3942807658854C419.1666652910638 396.4255307667524 420.8333320039692 408.1255310913485 424.99999878623277 408.0942810904815C429.16666556849634 408.0630310896145 430.83333228140174 396.119280758256 434.9999990636653 396.2442807617239C439.1666658459289 396.36928076519183 440.8333325588343 408.3192810967237 444.9999993410978 408.69428110712744C449.1666661233614 409.06928111753115 452.9166662273986 400.26303087321713 454.99999961853035 398.0442808116618 "
            transform="rotate(15, 400, 400)"></path>
        <path
            d="M355.9999964904785 400.4754248966605C357.66666320338396 398.9754248550456 360.6666632866137 393.2754246969091 363.99999671242455 393.2754246969091C367.3333301382354 393.2754246969091 368.66666350855974 400.02542488417606 371.9999969343706 400.4754248966605C375.33333036018144 400.925424909145 376.6666637305058 394.1604247214619 379.9999971563166 395.43542475683455C383.3333305821275 396.71042479220716 384.6666639524518 407.09542508032087 387.9999973782626 406.59542506644925C391.3333308040735 406.09542505257764 392.66666417439785 393.08542469163785 395.99999760020864 393.0354246902507C399.33333102601955 392.98542468886353 400.6666643963439 405.5054250362091 403.9999978221547 406.35542505979083C407.33333124796553 407.20542508337263 408.6666646182899 397.0904248027496 411.9999980441007 397.1154248034432C415.33333146991157 397.1404248041368 416.6666648402359 406.5004250638136 419.99999826604676 406.47542506312004C423.3333316918576 406.45042506242646 424.66666506218195 396.8954247973397 427.9999984879928 396.995424800114C431.33333191380365 397.0954248028883 432.666665284128 406.65542506811386 435.99999870993884 406.9554250764368C439.33333213574963 407.2554250847598 442.3333322189794 400.21042488930857 443.9999989318849 398.4354248400643 "
            transform="rotate(12, 400, 400)"></path>
        <path
            d="M366.9999964141846 400.356568910914C368.2499964488636 399.2315688797028 370.499996511286 394.9565687611004 372.9999965806441 394.9565687611004C375.49999665000223 394.9565687611004 376.49999667774546 400.0190689015506 378.99999674710364 400.356568910914C381.49999681646176 400.69406892027735 382.49999684420504 395.620318779515 384.9999969135631 396.57656880604446C387.4999969829213 397.532818832574 388.4999970106645 405.3215690486592 390.9999970800227 404.9465690382555C393.4999971493808 404.5715690278518 394.49999717712404 394.81406875714697 396.99999724648217 394.7765687561066C399.49999731584035 394.7390687550662 400.4999973435836 404.1290690155754 402.9999974129417 404.7665690332617C405.4999974822998 405.40406905094807 406.4999975100431 397.8178188404808 408.9999975794012 397.836568841001C411.49999764875935 397.8553188415212 412.49999767650263 404.8753190362788 414.99999774586075 404.85656903575864C417.4999978152189 404.83781903523845 418.49999784296216 397.6715688364233 420.9999979123203 397.74656883850406C423.4999979816784 397.82156884058486 424.4999980094217 404.99156903950393 426.9999980787798 405.21656904574616C429.49999814813793 405.44156905198844 431.74999821056025 400.1578189054 432.99999824523934 398.8265688684668 "
            transform="rotate(9, 400, 400)"></path>
        <path
            d="M378.0000001525879 400.2377119714931C378.8333335090406 399.48771195068565 380.3333335506555 396.6377118716174 382.0000002635609 396.6377118716174C383.66666697646633 396.6377118716174 384.3333336616285 400.0127119652509 386.0000003745339 400.2377119714931C387.66666708743935 400.46271197773535 388.3333337726015 397.08021188389375 390.0000004855069 397.7177119015801C391.66666719841237 398.3552119192664 392.33333388357454 403.5477120633233 394.00000059647994 403.29771205638747C395.6666673093854 403.04771204945166 396.33333399454756 396.54271186898177 398.00000070745295 396.5177118682882C399.6666674203584 396.4927118675946 400.3333341055206 402.7527120412674 402.000000818426 403.17771205305826C403.6666675313314 403.60271206484913 404.33333421649354 398.5452119245376 406.000000929399 398.5577119248844C407.66666764230445 398.5702119252312 408.33333432746656 403.25021205506965 410.000001040372 403.23771205472286C411.66666775327747 403.2252120543761 412.3333344384396 398.4477119218327 414.00000115134503 398.49771192321987C415.6666678642505 398.54771192460703 416.3333345494126 403.32771205721974 418.00000126231805 403.4777120613812C419.66666797522345 403.6277120655427 421.16666801683834 400.1052119678171 422.00000137329107 399.217711943195 "
            transform="rotate(6, 400, 400)"></path>
        <path
            d="M389.00000007629393 400.11885503207225C389.4166667545203 399.74385502166854 390.1666667753277 398.3188549821344 391.00000013178044 398.3188549821344C391.83333348823317 398.3188549821344 392.1666668308143 400.00635502895113 393.00000018726695 400.11885503207225C393.8333335437197 400.23135503519336 394.16666688630073 398.54010498827256 395.00000024275346 398.8588549971157C395.8333335992062 399.1776050059589 396.1666669417873 401.7738550779873 397.00000029823997 401.6488550745194C397.8333336546927 401.5238550710515 398.16666699727375 398.27135498081657 399.0000003537265 398.2588549804698C399.8333337101792 398.246354980123 400.16666705276026 401.3763550669594 401.000000409213 401.5888550728548C401.8333337656657 401.80135507875025 402.16666710824677 399.2726050085945 403.0000004646995 399.2788550087679C403.8333338211522 399.2851050089413 404.1666671637333 401.6251050738605 405.000000520186 401.6188550736871C405.83333387663873 401.6126050735137 406.1666672192198 399.22385500724204 407.0000005756725 399.2488550079356C407.83333393212524 399.2738550086292 408.1666672747063 401.66385507493555 409.000000631159 401.7388550770163C409.8333339876117 401.81385507909704 410.5833340084192 400.05260503023425 411.00000068664554 399.6088550179232 "
            transform="rotate(3, 400, 400)"></path>
    </g>
</svg>