<svg xmlns="http://www.w3.org/2000/svg" version="1.1" xmlns:xlink="http://www.w3.org/1999/xlink"
    xmlns:svgjs="http://svgjs.dev/svgjs" viewBox="0 0 800 800">
    <defs>
        <linearGradient x1="50%" y1="0%" x2="50%" y2="100%" id="cccoil-grad">
            <stop stop-color="hsl(270, 73%, 53%)" stop-opacity="1" offset="0%"></stop>
            <stop stop-color="hsl(162, 100%, 58%)" stop-opacity="1" offset="100%"></stop>
        </linearGradient>
    </defs>
    <g stroke="url(#cccoil-grad)" fill="none" stroke-linecap="round">
        <circle r="391" cx="400" cy="400" stroke-width="3" stroke-dasharray="2334 2457"
            transform="rotate(360, 400, 400)"></circle>
        <circle r="374" cx="400" cy="400" stroke-width="3" stroke-dasharray="2131 2350"
            transform="rotate(344, 400, 400)"></circle>
        <circle r="357" cx="400" cy="400" stroke-width="3" stroke-dasharray="1937 2243"
            transform="rotate(327, 400, 400)"></circle>
        <circle r="340" cx="400" cy="400" stroke-width="3" stroke-dasharray="1753 2136"
            transform="rotate(311, 400, 400)"></circle>
        <circle r="323" cx="400" cy="400" stroke-width="3" stroke-dasharray="1577 2029"
            transform="rotate(295, 400, 400)"></circle>
        <circle r="306" cx="400" cy="400" stroke-width="3" stroke-dasharray="1411 1923"
            transform="rotate(278, 400, 400)"></circle>
        <circle r="289" cx="400" cy="400" stroke-width="3" stroke-dasharray="1255 1816"
            transform="rotate(262, 400, 400)"></circle>
        <circle r="272" cx="400" cy="400" stroke-width="3" stroke-dasharray="1107 1709"
            transform="rotate(245, 400, 400)"></circle>
        <circle r="255" cx="400" cy="400" stroke-width="3" stroke-dasharray="969 1602"
            transform="rotate(229, 400, 400)"></circle>
        <circle r="238" cx="400" cy="400" stroke-width="3" stroke-dasharray="839 1495"
            transform="rotate(213, 400, 400)"></circle>
        <circle r="221" cx="400" cy="400" stroke-width="3" stroke-dasharray="720 1389"
            transform="rotate(196, 400, 400)"></circle>
        <circle r="204" cx="400" cy="400" stroke-width="3" stroke-dasharray="609 1282"
            transform="rotate(180, 400, 400)"></circle>
        <circle r="187" cx="400" cy="400" stroke-width="3" stroke-dasharray="507 1175"
            transform="rotate(164, 400, 400)"></circle>
        <circle r="170" cx="400" cy="400" stroke-width="3" stroke-dasharray="415 1068"
            transform="rotate(147, 400, 400)"></circle>
        <circle r="153" cx="400" cy="400" stroke-width="3" stroke-dasharray="332 961"
            transform="rotate(131, 400, 400)"></circle>
        <circle r="136" cx="400" cy="400" stroke-width="3" stroke-dasharray="258 855"
            transform="rotate(115, 400, 400)"></circle>
        <circle r="119" cx="400" cy="400" stroke-width="3" stroke-dasharray="194 748"
            transform="rotate(98, 400, 400)"></circle>
        <circle r="102" cx="400" cy="400" stroke-width="3" stroke-dasharray="138 641"
            transform="rotate(82, 400, 400)"></circle>
        <circle r="85" cx="400" cy="400" stroke-width="3" stroke-dasharray="92 534"
            transform="rotate(65, 400, 400)"></circle>
        <circle r="68" cx="400" cy="400" stroke-width="3" stroke-dasharray="55 427"
            transform="rotate(49, 400, 400)"></circle>
        <circle r="51" cx="400" cy="400" stroke-width="3" stroke-dasharray="28 320"
            transform="rotate(33, 400, 400)"></circle>
        <circle r="34" cx="400" cy="400" stroke-width="3" stroke-dasharray="9 214"
            transform="rotate(16, 400, 400)"></circle>
        <circle r="17" cx="400" cy="400" stroke-width="3" stroke-dasharray="0 107"></circle>
    </g>
</svg>