<svg xmlns="http://www.w3.org/2000/svg" version="1.1" xmlns:xlink="http://www.w3.org/1999/xlink"
    xmlns:svgjs="http://svgjs.dev/svgjs" viewBox="0 0 640 800">
    <defs>
        <linearGradient x1="50%" y1="0%" x2="50%" y2="100%" id="ccchaos-grad">
            <stop stop-color="hsl(206, 75%, 49%)" stop-opacity="1" offset="0%"></stop>
            <stop stop-color="hsl(331, 90%, 56%)" stop-opacity="1" offset="100%"></stop>
        </linearGradient>
    </defs>
    <g stroke-width="1" stroke="url(#ccchaos-grad)" fill="none" stroke-linecap="round">
        <path
            d="M340.06 136.26C349.46 133.63 358.9 131.68 368.33 130.47 377.77 129.59 387.18 129.54 396.5 130.32 405.78 131.54 414.9 133.62 423.79 136.5 432.52 139.8 440.91 143.87 448.83 148.62 456.46 153.69 463.48 159.35 469.78 165.51 475.65 171.84 480.68 178.57 484.78 185.62 488.42 192.69 491.11 199.98 492.89 207.44 494.37 214.81 495.13 222.29 495.31 229.84 495.65 237.22 495.84 244.65 496.15 252.13 497.3 259.41 499.11 266.74 501.83 274.13 506.01 281.33 511.46 288.62 518.28 296 526.64 303.24 536.22 310.6 546.75 318.11 558.07 325.51 569.57 333.1 580.71 340.88 591.15 348.59 600.15 356.53 607.1 364.7 611.96 372.84 614.07 381.23 613.21 389.89 609.94 398.53 603.98 407.45 595.71 416.65 586.29 425.85 576.07 435.12 565.82 444.42 556.49 453.73 548.34 463.08 541.79 472.42 537.41 481.75 534.97 491.06 534.36 500.29 535.78 509.48 538.47 518.55 541.98 527.44 546.39 536.22 550.7 544.76 554.45 552.97 557.82 561 559.9 568.62 560.47 575.75 559.89 582.59 557.56 588.86 553.55 594.46 548.28 599.71 541.52 604.22 533.49 607.96 524.57 611.32 514.77 613.89 504.34 615.67 493.52 617.14 482.42 617.89 471.24 617.99 460.05 617.98 448.98 617.49 438.15 616.63 427.49 616 417.11 615.24 407.04 614.51 397.19 614.38 387.6 614.54 378.26 615.1 369.08 616.57 360.08 618.61 351.22 621.27 342.45 624.93 333.77 629.2 325.15 634.01 316.55 639.6 307.99 645.49 299.45 651.48 290.92 657.76 282.61 663.59 274.54 668.74 266.47 673.57 258.66 677.37 251.13 680.02 243.63 681.9 236.43 682.44 229.57 681.63 222.73 679.9 216.25 676.83 210.15 672.51 204.05 667.38 198.31 661.18 192.92 654.05 187.49 646.38 182.35 638.03 177.47 629.15 172.44 620.05 167.57 610.64 162.83 601.07 157.79 591.54 152.76 582 147.7 572.52 142.23 563.25 136.65 554.11 130.96 545.15 124.84 536.46 118.63 527.93 112.36 519.56 105.82 511.45 99.36 503.46 93.09 495.55 86.83 487.85 80.97 480.16 75.64 472.47 70.66 464.92 66.41 457.29 63.02 449.57 60.16 441.92 58.24 434.13 57.26 426.19 56.79 418.28 57.17 410.18 58.31 401.89 59.63 393.61 61.46 385.14 63.67 376.48 65.6 367.82 67.58 359.19 69.5 350.62 70.85 342.06 72.07 333.58 73.16 325.21 73.71 316.88 74.24 308.7 74.85 300.7 75.2 292.77 75.86 285.07 76.94 277.64 78.13 270.3 79.95 263.26 82.47 256.58 85.38 250.02 89.09 243.83 93.58 238.06 98.57 232.41 104.32 227.19 110.74 222.42 117.57 217.75 124.96 213.51 132.81 209.71 140.88 205.96 149.26 202.59 157.86 199.6 166.49 196.56 175.23 193.81 184.03 191.33 192.72 188.66 201.41 186.17 210.1 183.82 218.62 181.16 227.14 178.54 235.65 175.96 244.02 172.97 252.42 169.96 260.89 166.92 269.25 163.48 277.72 160.02 286.33 156.59 294.88 152.85 303.62 149.22 312.56 145.79 321.48 142.23 330.64 139.02 340.05 136.26"
            stroke-dasharray="0 10" transform="rotate(0, 320, 400)" opacity="0.52"></path>
        <path
            d="M342.18 146.17C351.27 143.57 360.3 141.63 369.23 140.38 378.16 139.45 386.96 139.3 395.58 139.94 404.14 140.99 412.45 142.85 420.43 145.48 428.26 148.53 435.66 152.3 442.53 156.74 449.14 161.5 455.11 166.84 460.36 172.69 465.27 178.73 469.38 185.18 472.67 191.97 475.63 198.81 477.81 205.9 479.27 213.19 480.62 220.42 481.46 227.78 481.97 235.23 482.82 242.56 483.72 249.96 484.92 257.41 487.04 264.7 489.89 272.04 493.67 279.43 498.82 286.66 505.13 293.97 512.63 301.35 521.42 308.6 531.18 315.96 541.63 323.43 552.6 330.81 563.53 338.34 573.91 346.03 583.51 353.66 591.61 361.48 597.75 369.5 601.91 377.48 603.51 385.69 602.39 394.12 599.09 402.54 593.34 411.19 585.48 420.08 576.57 428.97 566.89 437.89 557.11 446.81 548.1 455.74 540.08 464.65 533.44 473.53 528.72 482.38 525.73 491.17 524.41 499.84 525 508.46 526.84 516.92 529.57 525.16 533.3 533.28 537.13 541.13 540.65 548.62 544.04 555.93 546.45 562.81 547.63 569.18 547.29 578.08 537.38 592.32 528.14 597.47 520.66 600.35 512.2 602.53 503 604 493.29 605.24 483.13 605.87 472.73 605.94 462.18 605.98 451.59 605.63 441.09 605 430.66 604.63 420.41 604.2 410.39 603.83 400.51 604.05 390.87 604.55 381.48 605.44 372.21 607.17 363.14 609.41 354.26 612.21 345.47 615.91 336.81 620.14 328.29 624.83 319.8 630.23 311.41 635.87 303.13 641.58 294.85 647.55 286.85 653.08 279.16 658 271.45 662.64 264.05 666.33 256.96 668.98 249.87 670.95 243.1 671.69 236.67 671.18 230.23 669.85 224.13 667.26 218.37 663.51 212.58 659 207.09 653.45 201.9 647 196.61 640 191.55 632.3 186.68 624.05 181.61 615.52 176.65 606.64 171.74 597.52 166.52 588.38 161.27 579.14 155.96 569.91 150.25 560.81 144.44 551.79 138.52 542.89 132.24 534.2 125.9 525.64 119.55 517.22 113.01 509.02 106.59 500.93 100.43 492.93 94.34 485.12 88.69 477.35 83.61 469.61 78.91 461.99 74.95 454.35 71.84 446.65 69.26 439.03 67.59 431.32 66.83 423.51 66.55 415.73 67.08 407.81 68.33 399.77 69.75 391.74 71.65 383.56 73.9 375.25 75.88 366.94 77.9 358.7 79.86 350.55 81.27 342.42 82.54 334.39 83.66 326.52 84.25 318.67 84.8 310.99 85.38 303.52 85.67 296.11 86.22 288.93 87.11 282.04 88.06 275.22 89.56 268.71 91.7 262.55 94.16 256.49 97.38 250.78 101.33 245.48 105.75 240.26 110.9 235.45 116.74 231.05 123 226.71 129.85 222.77 137.2 219.23 144.81 215.69 152.8 212.49 161.07 209.62 169.44 206.66 177.99 203.96 186.65 201.49 195.27 198.81 203.94 196.28 212.63 193.86 221.21 191.13 229.8 188.44 238.38 185.77 246.85 182.72 255.35 179.65 263.87 176.56 272.3 173.09 280.8 169.63 289.39 166.21 297.93 162.5 306.59 158.91 315.38 155.53 324.15 152.04 333.08 148.88 342.17 146.17"
            stroke-dasharray="4 1" transform="rotate(4.04, 320, 400)" opacity="0.56"></path>
        <path
            d="M342.29 156.08C351.01 153.52 359.59 151.59 367.99 150.32 376.38 149.33 384.55 149.09 392.46 149.59 400.3 150.48 407.81 152.13 414.92 154.52 421.9 157.3 428.39 160.78 434.33 164.9 440.04 169.35 445.13 174.37 449.54 179.89 453.68 185.62 457.13 191.76 459.87 198.26 462.43 204.84 464.37 211.69 465.78 218.76 467.24 225.81 468.41 233.01 469.44 240.33 470.95 247.56 472.66 254.87 474.8 262.25 477.89 269.5 481.73 276.81 486.47 284.17 492.45 291.4 499.46 298.69 507.46 306.04 516.52 313.29 526.29 320.62 536.52 328.04 547.03 335.38 557.31 342.85 566.91 350.44 575.65 357.98 582.9 365.67 588.24 373.53 591.75 381.35 592.89 389.36 591.55 397.55 588.24 405.73 582.7 414.11 575.25 422.68 566.83 431.24 557.68 439.8 548.38 448.32 539.71 456.84 531.86 465.31 525.17 473.69 520.18 482.06 516.71 490.31 514.76 498.41 514.57 506.45 515.6 514.29 517.54 521.88 520.54 529.35 523.8 536.52 526.96 543.31 531.48 553.02 535.05 569.7 533.16 576.44 530.51 580.46 526.53 583.86 521.32 586.6 515.25 589.09 508.16 590.96 500.24 592.2 491.76 593.3 482.71 593.87 473.27 593.97 463.57 594.11 453.69 593.94 443.77 593.55 433.8 593.47 423.91 593.36 414.16 593.34 404.47 593.9 394.97 594.72 385.68 595.91 376.47 597.87 367.47 600.29 358.66 603.2 349.92 606.92 341.36 611.1 332.97 615.66 324.61 620.85 316.4 626.24 308.34 631.67 300.29 637.33 292.57 642.59 285.17 647.27 277.77 651.71 270.69 655.29 263.94 657.91 257.17 659.94 250.72 660.85 244.6 660.63 238.44 659.65 232.6 657.52 227.05 654.3 221.43 650.37 216.07 645.44 210.95 639.65 205.68 633.32 200.59 626.28 195.63 618.66 190.44 610.75 185.3 602.42 180.18 593.81 174.73 585.12 169.24 576.28 163.67 567.37 157.74 558.53 151.71 549.71 145.61 540.96 139.21 532.36 132.8 523.86 126.43 515.47 119.93 507.26 113.63 499.14 107.62 491.13 101.75 483.26 96.36 475.46 91.57 467.7 87.18 460.06 83.53 452.42 80.71 444.78 78.43 437.2 77.01 429.57 76.46 421.9 76.37 414.25 77.04 406.52 78.39 398.71 79.9 390.91 81.85 383.02 84.13 375.04 86.15 367.07 88.21 359.2 90.2 351.47 91.67 343.74 92.99 336.15 94.17 328.74 94.8 321.35 95.38 314.15 95.96 307.18 96.22 300.26 96.68 293.58 97.43 287.19 98.17 280.86 99.4 274.83 101.19 269.15 103.24 263.53 105.98 258.26 109.41 253.37 113.26 248.54 117.82 244.08 123.05 239.99 128.69 235.94 134.94 232.25 141.71 228.9 148.79 225.53 156.29 222.46 164.12 219.67 172.12 216.77 180.34 214.09 188.73 211.6 197.15 208.9 205.67 206.31 214.23 203.82 222.76 201.02 231.3 198.25 239.85 195.5 248.33 192.38 256.82 189.26 265.32 186.13 273.75 182.65 282.22 179.19 290.72 175.78 299.19 172.11 307.72 168.58 316.31 165.26 324.89 161.84 333.55 158.75 342.28 156.08"
            stroke-dasharray="9 7" transform="rotate(8.08, 320, 400)" opacity="0.83"></path>
        <path
            d="M340.36 165.98C348.69 163.48 356.79 161.56 364.64 160.26 372.47 159.23 380.02 158.9 387.24 159.28 394.4 160.01 401.17 161.46 407.5 163.61 413.71 166.13 419.42 169.32 424.58 173.13 429.57 177.25 433.97 181.93 437.76 187.11 441.38 192.51 444.41 198.33 446.87 204.51 449.27 210.8 451.23 217.38 452.82 224.19 454.61 231.01 456.28 238.01 457.97 245.14 460.22 252.23 462.8 259.41 465.88 266.67 469.87 273.84 474.6 281.07 480.18 288.35 486.83 295.53 494.36 302.77 502.68 310.07 511.83 317.27 521.48 324.54 531.35 331.89 541.32 339.17 550.9 346.55 559.69 354.02 567.57 361.45 573.99 369.01 578.59 376.69 581.5 384.34 582.23 392.14 580.68 400.08 577.39 408.02 572.08 416.1 565.02 424.33 557.09 432.56 548.45 440.74 539.62 448.84 531.31 456.94 523.66 464.95 516.98 472.84 511.78 480.7 507.92 488.42 505.4 495.94 504.51 503.41 504.76 510.64 505.93 517.59 508.18 524.44 510.81 530.96 513.5 537.09 517.7 545.83 522.18 560.66 521.47 566.57 518.43 571.59 505.43 578.45 495.92 580.36 488.72 581.38 480.86 581.96 472.5 582.14 463.81 582.42 454.82 582.46 445.65 582.34 436.37 582.54 427.04 582.75 417.76 583.06 408.47 583.93 399.29 585.06 390.27 586.5 381.29 588.67 372.48 591.24 363.86 594.23 355.28 597.95 346.88 602.05 338.66 606.48 330.47 611.47 322.45 616.61 314.62 621.76 306.78 627.13 299.29 632.1 292.15 636.55 284.99 640.79 278.15 644.25 271.65 646.83 265.11 648.91 258.88 649.96 252.95 649.97 246.97 649.32 241.26 647.6 235.8 644.87 230.24 641.48 224.9 637.16 219.74 632 214.41 626.32 209.19 619.94 204.07 612.97 198.7 605.68 193.34 597.95 187.97 589.89 182.3 581.71 176.56 573.31 170.76 564.8 164.64 556.3 158.45 547.77 152.22 539.25 145.76 530.84 139.34 522.48 133.01 514.21 126.64 506.06 120.5 498 114.71 490.03 109.11 482.19 104.02 474.41 99.55 466.69 95.49 459.07 92.17 451.47 89.66 443.9 87.66 436.39 86.49 428.87 86.16 421.33 86.24 413.83 87.04 406.29 88.49 398.71 90.06 391.14 92.05 383.53 94.36 375.87 96.41 368.22 98.5 360.71 100.52 353.37 102.05 346.03 103.43 338.85 104.65 331.88 105.36 324.92 105.98 318.17 106.58 311.67 106.84 305.19 107.24 298.97 107.88 293.04 108.96 284.36 113.77 268.64 117.85 261.67 121.14 257.16 125.11 253 129.73 249.18 134.73 245.37 140.35 241.87 146.49 238.68 152.97 235.43 159.89 232.45 167.19 229.71 174.7 226.84 182.49 224.15 190.48 221.63 198.57 218.88 206.8 216.23 215.11 213.66 223.44 210.79 231.82 207.95 240.21 205.12 248.58 201.96 256.96 198.79 265.33 195.63 273.68 192.14 282.02 188.69 290.36 185.31 298.69 181.7 307.02 178.23 315.35 174.97 323.68 171.62 332.02 168.6 340.35 165.99"
            stroke-dasharray="1 4" transform="rotate(12.12, 320, 400)" opacity="0.58"></path>
        <path
            d="M336.58 175.89C344.47 173.43 352.09 171.54 359.4 170.23 366.69 169.16 373.65 168.75 380.23 169 386.76 169.58 392.88 170.84 398.55 172.76 406.66 176.47 420.18 187.39 425.54 194.39 428.86 199.44 431.71 204.92 434.13 210.76 436.6 216.73 438.77 223 440.74 229.51 443.01 236.07 445.29 242.83 447.73 249.73 450.76 256.62 454.19 263.62 458.14 270.71 462.95 277.74 468.46 284.85 474.71 292.01 481.86 299.1 489.73 306.24 498.2 313.43 507.29 320.56 516.66 327.74 526.08 334.98 535.42 342.16 544.25 349.42 552.23 356.76 559.27 364.06 564.9 371.45 568.8 378.93 571.15 386.4 571.51 393.97 569.8 401.65 566.54 409.32 561.46 417.1 554.78 424.98 547.33 432.86 539.2 440.65 530.84 448.32 522.9 455.99 515.48 463.54 508.86 470.93 503.52 478.29 499.33 485.47 496.33 492.43 494.8 499.34 494.33 505.99 494.75 512.33 497.22 521.53 504.04 537.86 506.95 544.82 508.06 555.88 497.61 566.8 489.95 568.56 484.01 569.55 477.36 570.18 470.13 570.5 462.55 570.95 454.56 571.21 446.3 571.36 437.85 571.84 429.26 572.36 420.61 572.99 411.9 574.15 403.22 575.54 394.61 577.23 386.02 579.56 377.54 582.25 369.21 585.3 360.9 589 352.74 593.02 344.76 597.3 336.8 602.08 329 606.97 321.38 611.85 313.76 616.93 306.49 621.63 299.54 625.84 292.58 629.88 285.94 633.21 279.6 635.74 273.21 637.84 267.11 639 261.28 639.22 255.38 638.86 249.71 637.51 244.25 635.23 238.67 632.35 233.26 628.6 227.98 624.04 222.52 619 217.13 613.26 211.8 606.94 206.22 600.28 200.64 593.17 195.03 585.7 189.14 578.06 183.2 570.17 177.2 562.11 170.94 554.03 164.65 545.85 158.37 537.65 151.92 529.51 145.55 521.37 139.34 513.29 133.15 505.3 127.25 497.37 121.73 489.52 116.45 481.76 111.7 474.07 107.57 466.44 103.86 458.89 100.88 451.39 98.68 443.93 96.98 436.52 96.06 429.13 95.93 421.76 96.17 414.42 97.09 407.07 98.62 399.72 100.25 392.39 102.27 385.05 104.59 377.71 106.67 370.37 108.77 363.2 110.82 356.22 112.4 349.25 113.83 342.46 115.12 335.9 115.9 329.34 116.58 323.01 117.22 316.92 117.7 307.96 119.31 291.44 120.94 283.95 123.25 276.81 131.15 264.12 136.85 258.56 141.22 254.93 146.18 251.58 151.67 248.5 157.49 245.34 163.78 242.42 170.47 239.7 177.4 236.83 184.64 234.12 192.14 231.54 199.77 228.75 207.59 226.03 215.53 223.38 223.53 220.45 231.61 217.53 239.72 214.64 247.86 211.43 256.01 208.23 264.14 205.05 272.28 201.58 280.41 198.15 288.5 194.8 296.6 191.25 304.66 187.85 312.68 184.66 320.7 181.4 328.67 178.45 336.57 175.9"
            stroke-dasharray="2 10" transform="rotate(16.16, 320, 400)" opacity="0.95"></path>
        <path
            d="M331.28 185.8C338.73 183.4 345.86 181.53 352.66 180.21 359.43 179.11 365.85 178.63 371.88 178.77 380.65 179.74 395.96 185.3 402.42 189.79 408.35 195.26 418.07 208.99 422.07 217.03 424.79 222.65 427.34 228.59 429.83 234.78 432.66 241.04 435.63 247.5 438.82 254.14 442.62 260.78 446.84 267.55 451.58 274.43 457.08 281.28 463.2 288.21 469.95 295.2 477.43 302.14 485.46 309.14 493.93 316.19 502.79 323.18 511.78 330.23 520.65 337.33 529.31 344.38 537.36 351.49 544.52 358.65 550.75 365.78 555.62 372.99 558.87 380.25 560.72 387.5 560.74 394.83 558.91 402.22 555.7 409.61 550.85 417.07 544.55 424.58 537.56 432.1 529.92 439.49 522.04 446.74 514.48 453.98 507.31 461.06 500.81 467.96 495.38 474.83 490.94 481.49 487.53 487.91 484.87 497.32 485.41 514.5 487.6 522.14 492.94 535.09 495.16 549.58 492.6 552.63 488.33 555.14 474.84 558.23 466.01 559.06 459.55 559.7 452.63 560.21 445.34 560.63 437.83 561.39 430.09 562.21 422.2 563.13 414.21 564.55 406.15 566.18 398.1 568.07 390.03 570.55 382 573.33 374.06 576.41 366.13 580.07 358.31 583.99 350.62 588.12 342.95 592.69 335.41 597.33 328.02 601.94 320.63 606.73 313.56 611.16 306.79 615.14 300 618.97 293.49 622.17 287.26 624.64 280.99 626.73 274.95 627.99 269.15 628.38 263.26 628.27 257.56 627.26 252.03 625.38 246.38 622.98 240.84 619.76 235.4 615.77 229.78 611.33 224.21 606.23 218.66 600.54 212.88 594.52 207.09 588.03 201.27 581.16 195.22 574.1 189.12 566.76 182.99 559.21 176.67 551.59 170.35 543.85 164.08 536.03 157.73 528.22 151.5 520.39 145.48 512.58 139.54 504.83 133.92 497.11 128.73 489.44 123.8 481.85 119.42 474.3 115.66 466.83 112.32 459.41 109.69 452.05 107.81 444.74 106.38 437.48 105.7 430.25 105.76 423.06 106.16 415.9 107.19 408.77 108.78 401.67 110.46 394.57 112.5 387.5 114.82 380.46 116.91 373.43 119.03 366.59 121.1 359.96 122.72 353.33 124.21 346.91 125.56 340.72 126.8 331.56 128.4 314.47 129.13 306.6 129.84 299.03 133.04 285.32 135.88 279.2 139.62 273.35 150.39 262.94 157.37 258.32 162.51 255.22 168.12 252.32 174.15 249.59 180.43 246.71 187.06 243.96 193.96 241.33 201.04 238.48 208.33 235.69 215.78 232.96 223.33 229.97 230.99 226.99 238.71 224.04 246.48 220.81 254.28 217.59 262.08 214.4 269.91 210.95 277.71 207.55 285.47 204.25 293.25 200.77 300.97 197.45 308.61 194.34 316.26 191.17 323.83 188.3 331.27 185.8"
            stroke-dasharray="9 6" transform="rotate(20.200000000000003, 320, 400)" opacity="0.85"></path>
        <path
            d="M324.96 195.71C331.95 193.37 338.61 191.53 344.93 190.21 354.21 188.81 370.86 189.32 378.19 191.25 385.06 194.2 396.85 203.23 401.87 209.17 405.17 213.5 408.24 218.25 411.12 223.35 414.2 228.61 417.23 234.18 420.3 240.02 423.75 245.94 427.39 252.09 431.32 258.41 435.81 264.76 440.72 271.27 446.1 277.88 452.15 284.49 458.71 291.19 465.78 297.97 473.42 304.71 481.45 311.52 489.74 318.37 498.26 325.19 506.76 332.06 515 338.97 522.93 345.84 530.2 352.77 536.55 359.72 542 366.66 546.15 373.64 548.81 380.66 550.2 387.67 549.94 394.73 548 401.82 544.86 408.9 540.24 416.03 534.32 423.17 527.78 430.31 520.63 437.3 513.21 444.12 506.04 450.93 499.16 457.56 492.8 463.97 487.35 470.37 482.72 476.53 478.98 482.43 475.55 491.07 474.1 506.72 475.32 513.62 480.97 531.81 477.77 543.56 473.22 545.28 467.3 546.81 451.77 549.11 442.54 550.18 436.02 551.2 429.19 552.29 422.13 553.48 414.95 555.13 407.62 556.97 400.22 559.03 392.77 561.62 385.29 564.46 377.84 567.56 370.37 571.16 362.96 574.97 355.63 578.94 348.3 583.29 341.06 587.69 333.93 592.04 326.79 596.54 319.93 600.71 313.32 604.45 306.69 608.09 300.3 611.13 294.14 613.53 287.94 615.6 281.93 616.92 276.11 617.47 270.21 617.57 264.45 616.86 258.82 615.35 253.07 613.38 247.39 610.64 241.78 607.19 236.01 603.33 230.26 598.83 224.52 593.76 218.59 588.37 212.63 582.51 206.66 576.25 200.5 569.79 194.33 563.02 188.16 556.02 181.85 548.92 175.59 541.65 169.43 534.27 163.24 526.88 157.23 519.42 151.47 511.94 145.85 504.5 140.58 497.06 135.75 489.65 131.21 482.29 127.22 474.96 123.85 467.7 120.89 460.48 118.6 453.31 117.03 446.19 115.88 439.12 115.44 432.09 115.67 425.12 116.22 418.17 117.34 411.26 118.98 404.41 120.69 397.57 122.74 390.77 125.05 384.03 127.15 377.29 129.27 370.77 131.35 364.47 133.01 358.16 134.56 352.08 135.97 346.24 137.33 337.58 139.14 321.51 139.88 314.12 140.5 306.99 143.14 294.07 145.48 288.26 148.55 282.67 157.65 272.61 163.67 268.06 168.13 264.99 173.06 262.09 178.4 259.35 183.99 256.44 189.94 253.64 196.2 250.95 202.63 248.04 209.32 245.19 216.19 242.39 223.19 239.34 230.32 236.32 237.54 233.33 244.84 230.08 252.19 226.85 259.55 223.66 266.96 220.25 274.35 216.9 281.7 213.66 289.07 210.26 296.39 207.02 303.61 204 310.84 200.92 317.97 198.14 324.95 195.71"
            stroke-dasharray="6 10" transform="rotate(24.24, 320, 400)" opacity="0.84"></path>
        <path
            d="M318.19 205.62C324.72 203.34 330.94 201.54 336.83 200.22 345.49 198.78 361.08 198.96 368 200.6 374.57 203.18 386.2 211.29 391.41 216.71 394.91 220.67 398.28 225.04 401.57 229.76 405.09 234.64 408.64 239.83 412.3 245.29 416.34 250.84 420.62 256.63 425.19 262.61 430.27 268.64 435.73 274.82 441.61 281.13 448.03 287.46 454.87 293.88 462.08 300.39 469.7 306.89 477.57 313.46 485.55 320.07 493.62 326.67 501.53 333.31 509.09 339.98 516.27 346.64 522.75 353.33 528.31 360.04 533.02 366.74 536.51 373.47 538.62 380.22 539.6 386.96 539.09 393.72 537.08 400.49 534.02 407.26 529.64 414.03 524.09 420.79 517.98 427.56 511.31 434.14 504.35 440.54 497.58 446.92 491 453.11 484.82 459.06 479.41 465 474.67 470.69 470.68 476.11 466.58 484.05 463.31 498.31 463.57 504.55 466.98 526.64 458.19 535.66 452.39 537.02 445.58 538.56 429.3 541.94 420.14 544.04 413.8 545.89 407.26 547.9 400.56 550.11 393.8 552.78 386.94 555.66 380.03 558.74 373.11 562.26 366.16 565.95 359.24 569.75 352.31 573.89 345.41 578.04 338.56 582.13 331.71 586.35 325.07 590.26 318.63 593.78 312.17 597.21 305.9 600.1 299.8 602.41 293.67 604.45 287.68 605.82 281.83 606.48 275.91 606.76 270.09 606.31 264.36 605.13 258.52 603.55 252.73 601.26 246.98 598.31 241.09 594.99 235.21 591.06 229.33 586.58 223.31 581.81 217.27 576.56 211.22 570.92 205.05 565.07 198.88 558.89 192.76 552.45 186.56 545.9 180.45 539.15 174.48 532.27 168.55 525.33 162.83 518.31 157.4 511.23 152.14 504.16 147.26 497.06 142.84 489.97 138.72 482.91 135.14 475.87 132.17 468.87 129.58 461.91 127.64 454.98 126.37 448.11 125.49 441.27 125.26 434.48 125.66 427.75 126.33 421.04 127.53 414.39 129.21 407.8 130.94 401.22 132.99 394.7 135.29 388.26 137.37 381.82 139.49 375.6 141.58 369.61 144.07 360.73 147.84 344.13 149.15 336.42 149.88 328.95 151.28 315.23 152.28 308.98 153.5 302.95 157.95 292 161.35 287.05 165.54 282.18 176.59 273.16 183.38 268.92 188.26 265.98 193.51 263.14 199.08 260.38 204.83 257.42 210.85 254.51 217.08 251.65 223.45 248.57 229.98 245.51 236.62 242.49 243.35 239.24 250.17 236.02 257.01 232.85 263.91 229.49 270.81 226.2 277.69 223.03 284.59 219.72 291.44 216.57 298.2 213.64 304.98 210.66 311.65 207.97 318.18 205.62"
            stroke-dasharray="5 1" transform="rotate(28.28, 320, 400)" opacity="0.23"></path>
        <path
            d="M311.58 215.53C320.57 212.44 337.13 208.78 344.67 208.3 351.92 208.65 365.04 212.25 371 215.46 378.99 220.74 386.41 227.78 393.63 236.28 401.84 245.39 410.61 255.67 420.36 266.8 431.83 278.18 444.67 290.19 458.69 302.56 473.77 314.97 488.91 327.66 502.88 340.46 509.3 346.86 515 353.28 519.81 359.71 523.81 366.14 526.69 372.58 528.31 379.02 528.92 385.46 528.2 391.91 526.15 398.33 523.19 404.76 519.05 411.18 513.86 417.55 508.18 423.93 501.96 430.12 495.47 436.1 489.1 442.07 482.84 447.82 476.89 453.34 471.56 458.84 466.77 464.09 462.6 469.08 459.29 474.03 456.64 478.7 454.61 483.07 453.01 491.68 453 499.02 453.64 504.99 455.76 513.04 451.4 523.26 443.11 526.46 435.86 529.19 426.7 531.88 416.1 534.81 410.6 536.82 404.84 538.98 398.86 541.29 392.82 544.01 386.62 546.9 380.3 549.95 373.95 553.38 367.52 556.93 361.04 560.56 354.56 564.48 348.04 568.39 341.51 572.22 334.98 576.17 328.58 579.83 322.33 583.12 316.06 586.34 309.93 589.08 303.91 591.3 297.87 593.29 291.92 594.67 286.06 595.42 280.15 595.86 274.3 595.63 268.5 594.75 256.66 591.9 244.87 586.54 233.11 579 220.95 570.36 208.81 560.02 196.89 548.45 184.93 536.38 173.58 523.53 163.33 510.31 153.86 497.01 146.14 483.54 140.63 470.17 138.42 463.52 136.82 456.89 135.84 450.31 135.21 443.75 135.18 437.23 135.73 430.78 136.51 424.34 137.77 417.96 139.48 411.66 141.22 405.36 143.25 399.13 145.52 392.98 147.59 386.83 149.69 380.91 151.78 375.21 154.32 366.77 158.3 351.03 159.75 343.73 160.33 338.93 160.9 334.36 161.51 330.02 162.07 321.29 163.37 313.44 165.72 306.49 168.31 299.32 172.52 292.87 178.35 287.1 184.97 280.86 193.23 275.05 202.81 269.6 213.09 263.41 224.39 257.38 236.33 251.52 242.44 248.29 248.65 245.09 254.92 241.97 261.25 238.66 267.61 235.45 273.96 232.36 280.34 229.15 286.69 226.1 292.97 223.26 299.27 220.4 305.48 217.8 311.57 215.53"
            stroke-dasharray="3 3" transform="rotate(32.32, 320, 400)" opacity="0.64"></path>
        <path
            d="M305.73 225.43C317.07 221.28 327.49 218.86 336.94 218.23 346.43 218.35 355.08 220.39 363.05 224.23 371.34 228.89 379.36 235.22 387.43 242.94 396.45 251.25 406.12 260.72 416.7 271.03 428.67 281.65 441.69 292.91 455.46 304.57 469.8 316.32 483.8 328.37 496.34 340.53 507.13 352.7 514.65 364.97 517.87 377.19 517.6 389.42 512.71 401.61 503.63 413.59 492.83 425.56 480.77 436.72 468.97 446.96 459.2 457.13 451.36 466.3 445.72 474.35 442.4 485.64 442.54 502.15 441.81 507.6 440.64 511.12 437.55 513.93 432.5 516.25 426.73 519.35 419.13 522.46 410.05 525.77 400.51 530.4 389.86 535.56 378.45 541.19 366.91 548.13 354.86 555.31 342.49 562.31 330.13 569.75 318.03 575.82 306.27 580.18 294.41 583.81 282.72 585.16 271.19 584.19 259.42 582.01 247.65 577.52 235.95 571.02 224 563.51 212.16 554.35 200.68 543.96 189.34 533.03 178.74 521.27 169.34 509.04 160.79 496.66 153.97 484.03 149.27 471.41 145.9 458.82 144.77 446.29 145.88 433.99 147.76 421.74 151.19 409.69 155.75 397.99 159.59 386.29 163.43 375.45 166.95 365.5 168.97 355.51 170.7 346.38 172.33 338.13 173 329.77 174.23 322.22 176.3 315.45 178.39 308.45 181.87 302.07 186.77 296.28 192.27 290.03 199.27 284.15 207.55 278.6 216.43 272.36 226.36 266.29 237.01 260.43 248.01 253.86 259.46 247.53 271.04 241.64 282.74 235.37 294.39 229.85 305.72 225.44"
            stroke-dasharray="8 7" transform="rotate(36.36, 320, 400)" opacity="0.49"></path>
        <path
            d="M301.19 235.34C311.74 231.34 321.61 228.95 330.78 228.2 340 228.11 348.68 229.79 356.94 233.12 365.56 237.19 374.16 242.81 382.97 249.76 392.62 257.28 402.93 265.91 414.02 275.38 426.16 285.18 439.02 295.64 452.24 306.52 465.63 317.52 478.35 328.85 489.43 340.3 498.76 351.79 504.99 363.37 507.33 374.88 506.64 386.41 501.87 397.86 493.4 409.05 483.43 420.25 472.22 430.63 461.06 440.1 451.52 449.52 443.48 457.98 437.25 465.39 432.42 475.86 429.8 491.5 428.62 496.97 426.35 502.16 413.12 511.57 402.2 516.93 394.06 521.73 384.73 526.92 374.49 532.45 364.12 539.1 353.04 545.88 341.43 552.4 329.82 559.31 318.25 564.97 306.81 569.07 295.33 572.59 283.87 574.07 272.48 573.49 260.96 571.89 249.41 568.19 237.97 562.64 226.44 556.19 215.12 548.16 204.27 538.92 193.71 529.16 183.99 518.51 175.51 507.31 167.92 495.92 162.01 484.21 158.11 472.42 155.4 460.61 154.74 448.81 156.11 437.19 158.12 425.59 161.53 414.18 165.98 403.08 169.77 391.98 173.6 381.7 177.17 372.24 179.37 362.75 181.31 354.04 183.12 346.13 183.95 338.1 185.2 330.79 187.1 324.17 188.85 317.3 191.75 310.98 195.88 305.16 200.41 298.91 206.29 292.98 213.38 287.34 220.94 281.11 229.56 275.04 238.94 269.2 248.63 262.76 258.86 256.59 269.35 250.88 279.95 244.86 290.63 239.58 301.18 235.35"
            stroke-dasharray="0 3" transform="rotate(40.400000000000006, 320, 400)" opacity="0.54"></path>
        <path
            d="M298.36 245.25C308.18 241.41 317.57 239.06 326.52 238.21 335.53 237.94 344.27 239.28 352.82 242.13 361.72 245.64 370.77 250.59 380.13 256.78 390.19 263.5 400.84 271.29 412.1 279.91 424.07 288.85 436.47 298.46 448.88 308.51 461.15 318.71 472.52 329.25 482.14 339.92 490.07 350.66 495.13 361.5 496.68 372.25 495.64 383.04 491.03 393.72 483.16 404.14 474.01 414.56 463.64 424.19 453.16 432.95 443.94 441.68 435.83 449.51 429.19 456.38 423.08 466.16 417.71 481.16 415.79 486.74 413.5 492.21 402.23 502.53 392.89 508.29 385.93 513.17 377.77 518.34 368.61 523.74 359.33 530.07 349.22 536.43 338.41 542.49 327.6 548.89 316.64 554.13 305.67 557.97 294.68 561.34 283.61 562.92 272.56 562.66 261.46 561.55 250.35 558.56 239.39 553.87 228.48 548.4 217.86 541.45 207.81 533.32 198.16 524.69 189.41 515.15 181.93 505.02 175.32 494.67 170.31 483.92 167.17 473.01 165.07 462.07 164.83 451.05 166.42 440.16 168.52 429.28 171.89 418.52 176.21 408.04 179.93 397.56 183.73 387.82 187.32 378.84 189.69 369.81 191.84 361.49 193.84 353.88 194.88 346.16 196.22 339.05 198.05 332.55 199.6 325.81 202.09 319.54 205.61 313.7 209.35 307.46 214.29 301.51 220.32 295.83 226.71 289.63 234.11 283.61 242.3 277.83 250.75 271.56 259.81 265.58 269.25 260.08 278.77 254.33 288.54 249.3 298.36 245.25"
            stroke-dasharray="10 7" transform="rotate(44.44, 320, 400)" opacity="0.28"></path>
        <path
            d="M297.5 255.16C306.65 251.5 315.6 249.2 324.34 248.28 333.16 247.84 341.91 248.87 350.67 251.28 359.73 254.26 369.06 258.57 378.71 264.03 388.9 269.96 399.59 276.92 410.67 284.67 422.19 292.74 433.86 301.47 445.24 310.66 456.28 320.01 466.25 329.7 474.45 339.56 481.07 349.49 485.06 359.53 485.94 369.5 484.62 379.5 480.2 389.41 472.93 399.06 464.56 408.71 455.03 417.62 445.26 425.73 436.43 433.81 428.4 441.08 421.5 447.49 414.37 456.68 406.4 471.25 403.58 476.97 400.92 482.7 390.7 493.78 382.54 499.82 376.51 504.73 369.35 509.83 361.16 515.05 352.88 521.04 343.69 526.98 333.71 532.59 323.73 538.48 313.47 543.3 303.09 546.87 292.72 550.08 282.21 551.7 271.7 551.7 261.2 551 250.73 548.63 240.46 544.72 230.34 540.15 220.59 534.19 211.48 527.11 202.84 519.58 195.12 511.14 188.66 502.07 183.02 492.77 178.88 483.02 176.45 473.05 174.93 463 175.06 452.83 176.81 442.7 178.97 432.58 182.27 422.52 186.44 412.67 190.07 402.82 193.81 393.63 197.42 385.1 199.93 376.53 202.27 368.58 204.46 361.26 205.75 353.81 207.23 346.91 209.09 340.52 210.57 333.9 212.79 327.69 215.87 321.85 219.01 315.66 223.18 309.72 228.33 304.05 233.71 297.93 240.04 292 247.17 286.34 254.48 280.26 262.46 274.51 270.93 269.24 279.45 263.78 288.36 259 297.5 255.16"
            stroke-dasharray="2 7" transform="rotate(48.48, 320, 400)" opacity="0.86"></path>
        <path
            d="M298.69 265.07C307.21 261.6 315.74 259.37 324.25 258.38 332.83 257.81 341.52 258.56 350.33 260.56 359.39 263.05 368.75 266.74 378.42 271.51 388.46 276.69 398.87 282.82 409.47 289.72 420.26 296.92 430.98 304.76 441.2 313.06 450.93 321.52 459.5 330.34 466.34 339.35 471.75 348.43 474.79 357.64 475.1 366.8 473.58 376 469.38 385.12 462.7 394.02 455.09 402.91 446.38 411.13 437.33 418.63 428.98 426.12 421.15 432.88 414.15 438.9 408.6 444.93 403.93 450.27 399.99 454.93 396 461.84 388.93 473.66 384.36 479.12 381.13 483.25 376.92 487.38 371.68 491.52 366.35 496.39 359.97 501.37 352.63 506.37 345.22 512.01 336.91 517.53 327.77 522.68 318.62 528.08 309.14 532.5 299.47 535.79 289.84 538.81 280.04 540.43 270.24 540.63 260.52 540.27 250.86 538.43 241.46 535.22 232.27 531.45 223.52 526.41 215.46 520.32 207.87 513.82 201.22 506.44 195.78 498.41 191.07 490.16 187.75 481.42 185.98 472.39 184.96 463.28 185.41 453.98 187.29 444.65 189.47 435.31 192.67 425.98 196.67 416.78 200.19 407.58 203.85 398.93 207.44 390.85 210.07 382.74 212.57 375.16 214.96 368.11 216.49 360.95 218.17 354.24 220.11 347.98 221.62 341.51 223.72 335.38 226.51 329.59 229.23 323.48 232.82 317.61 237.27 311.99 241.84 306 247.28 300.21 253.5 294.71 259.82 288.87 266.84 283.37 274.43 278.37 282.06 273.21 290.18 268.7 298.69 265.07"
            stroke-dasharray="1 3" transform="rotate(52.52, 320, 400)" opacity="0.24"></path>
        <path
            d="M301.83 274.97C309.75 271.7 317.84 269.56 326.05 268.53 334.32 267.85 342.81 268.36 351.48 269.98 360.34 272.01 369.5 275.14 378.9 279.24 388.52 283.7 398.36 289.05 408.22 295.11 418.08 301.45 427.69 308.4 436.64 315.81 445.03 323.37 452.24 331.3 457.82 339.44 462.13 347.65 464.34 356.01 464.18 364.36 462.52 372.74 458.57 381.07 452.47 389.22 445.59 397.37 437.69 404.93 429.39 411.87 421.58 418.79 414.05 425.1 407.1 430.77 401.3 436.48 396.17 441.61 391.66 446.17 386.58 453 377.84 465.1 372.97 470.8 369.71 475.02 365.69 479.22 360.85 483.39 355.99 488.16 350.23 492.96 343.6 497.71 336.93 502.97 329.42 508.06 321.11 512.77 312.8 517.69 304.14 521.71 295.29 524.72 286.49 527.54 277.53 529.13 268.61 529.47 259.79 529.38 251.08 527.99 242.68 525.38 234.53 522.32 226.86 518.11 219.9 512.92 213.39 507.39 207.8 501.01 203.34 493.98 199.52 486.76 196.95 479.01 195.76 470.93 195.18 462.76 195.89 454.35 197.84 445.83 200.01 437.31 203.09 428.72 206.91 420.18 210.29 411.65 213.84 403.56 217.38 395.95 220.1 388.31 222.74 381.1 225.29 374.33 227.07 367.48 228.96 360.99 231.05 354.88 232.67 348.59 234.75 342.58 237.38 336.88 239.85 330.91 243.04 325.15 246.97 319.65 250.92 313.84 255.66 308.25 261.12 302.95 266.63 297.39 272.84 292.18 279.66 287.45 286.49 282.61 293.9 278.39 301.83 274.97"
            stroke-dasharray="10 10" transform="rotate(56.56, 320, 400)" opacity="0.17"></path>
        <path
            d="M306.61 284.88C313.97 281.82 321.58 279.77 329.39 278.73 337.26 277.96 345.39 278.25 353.73 279.55 362.18 281.17 370.89 283.77 379.75 287.25 388.71 291.03 397.75 295.63 406.66 300.89 415.44 306.39 423.82 312.47 431.48 319 438.55 325.68 444.47 332.72 448.89 339.98 452.22 347.32 453.72 354.82 453.19 362.35 451.45 369.91 447.76 377.46 442.23 384.88 436.06 392.3 428.95 399.23 421.4 405.62 414.19 412.02 407.06 417.9 400.31 423.26 394.43 428.65 389.03 433.58 384.12 438.05 378.18 444.78 367.87 457.02 362.58 462.85 359.17 467.09 355.19 471.29 350.59 475.41 346.02 480.02 340.72 484.6 334.69 489.05 328.64 493.93 321.85 498.59 314.35 502.86 306.86 507.31 299.06 510.94 291.1 513.67 283.18 516.27 275.17 517.79 267.22 518.24 259.39 518.35 251.73 517.33 244.42 515.24 237.36 512.79 230.8 509.32 224.95 504.95 219.51 500.3 214.93 494.86 211.39 488.78 208.38 482.52 206.49 475.74 205.8 468.59 205.59 461.36 206.49 453.83 208.48 446.14 210.6 438.44 213.53 430.61 217.14 422.75 220.36 414.9 223.79 407.39 227.25 400.26 230.01 393.1 232.75 386.29 235.44 379.84 237.45 373.31 239.55 367.08 241.8 361.16 243.59 355.1 245.73 349.27 248.31 343.71 250.67 337.93 253.62 332.36 257.19 327.03 260.7 321.46 264.91 316.11 269.78 311.07 274.64 305.82 280.18 300.92 286.34 296.5 292.49 291.99 299.26 288.07 306.61 284.88"
            stroke-dasharray="8 0" transform="rotate(60.599999999999994, 320, 400)" opacity="0.12"></path>
        <path
            d="M312.62 294.79C319.4 291.95 326.49 290.02 333.8 288.97 341.15 288.15 348.77 288.26 356.57 289.25 364.42 290.51 372.47 292.64 380.56 295.55 388.66 298.7 396.72 302.59 404.53 307.1 412.14 311.79 419.27 317.04 425.63 322.72 431.44 328.52 436.17 334.69 439.55 341.09 442.03 347.56 442.94 354.21 442.13 360.93 440.37 367.67 436.96 374.45 432 381.16 426.51 387.87 420.18 394.18 413.39 400.05 406.8 405.94 400.18 411.41 393.74 416.46 387.95 421.55 382.46 426.27 377.34 430.63 370.79 437.21 359.18 449.42 353.48 455.27 349.85 459.45 345.83 463.56 341.37 467.57 336.97 471.96 332.01 476.27 326.48 480.41 320.95 484.88 314.82 489.11 308.11 492.95 301.4 496.94 294.47 500.19 287.43 502.64 280.44 505 273.42 506.43 266.51 506.93 259.72 507.19 253.14 506.47 246.94 504.82 238.25 501.48 224.49 490.27 219.96 482.78 217.67 477.44 216.36 471.58 216.1 465.32 216.18 459 217.22 452.35 219.19 445.48 221.24 438.6 224 431.53 227.37 424.38 230.42 417.22 233.69 410.31 237.03 403.69 239.8 397.05 242.59 390.66 245.38 384.56 247.58 378.4 249.87 372.47 252.28 366.81 254.26 361.02 256.52 355.43 259.12 350.08 261.47 344.56 264.3 339.23 267.64 334.13 270.88 328.86 274.7 323.81 279.12 319.06 283.5 314.17 288.49 309.61 294.08 305.51 299.66 301.35 305.84 297.74 312.62 294.79"
            stroke-dasharray="9 6" transform="rotate(64.64, 320, 400)" opacity="0.95"></path>
        <path
            d="M319.3 304.7C325.5 302.09 332 300.28 338.71 299.26 345.44 298.41 352.39 298.37 359.47 299.11 373.68 301.21 388.18 306.31 401.64 313.75 414.16 321.81 424.17 331.79 429.82 342.87 431.58 348.49 432.01 354.31 431.01 360.24 429.28 366.19 426.18 372.21 421.77 378.22 416.94 384.23 411.36 389.94 405.33 395.31 399.41 400.69 393.34 405.75 387.34 410.48 376.75 420.09 366.88 428.68 357.81 436.25 350.33 444.59 342.42 452.51 333.59 459.86 329.3 463.97 324.62 467.97 319.53 471.78 314.44 475.82 308.91 479.62 302.95 483.05 296.99 486.58 290.9 489.46 284.8 491.63 278.73 493.75 272.7 495.07 266.84 495.59 255.43 496.09 245.23 493.21 237.35 487.41 230.6 480.9 226.82 471.87 226.64 461.13 226.94 455.67 228.06 449.87 229.97 443.81 231.92 437.73 234.48 431.44 237.6 424.99 240.45 418.54 243.53 412.25 246.72 406.17 249.45 400.07 252.25 394.16 255.07 388.46 259.28 376.92 264.04 366 269.61 355.98 274.21 345.48 280.52 335.62 288.72 326.93 292.73 322.42 297.29 318.24 302.38 314.48 307.46 310.69 313.1 307.39 319.3 304.7"
            stroke-dasharray="6 5" transform="rotate(68.68, 320, 400)" opacity="0.37"></path>
        <path
            d="M326.04 314.61C337.25 309.98 349.45 308.22 361.92 309.1 374.34 310.6 386.7 314.7 397.8 320.87 407.98 327.52 415.75 335.92 419.73 345.41 421.52 355.07 418.84 365.53 411.54 376.18 402.95 386.83 392.24 396.65 381.06 405.39 371.05 414.31 361.31 422.48 352.18 429.83 344.26 437.77 336.13 445.33 327.53 452.26 319.26 460.04 309.84 467.24 299.34 473.14 288.84 479.38 278.31 483.11 268.52 484.22 259.06 484.87 250.88 482.66 244.84 477.93 239.65 472.68 237.03 465.17 237.42 456.02 238.44 446.68 242 436.02 247.83 424.57 252.79 413.11 258.55 401.97 264.51 391.52 268.97 380.93 273.97 370.8 279.61 361.45 284.38 351.75 290.5 342.66 298.15 334.7 305.54 326.46 314.84 319.51 326.04 314.61"
            stroke-dasharray="6 1" transform="rotate(72.72, 320, 400)" opacity="0.20"></path>
        <path
            d="M332.24 324.52C342.18 320.37 352.8 318.68 363.43 319.24 373.94 320.25 384.1 323.46 392.91 328.48 400.9 333.84 406.7 340.78 409.3 348.77 410.28 356.88 407.67 365.83 401.3 375.13 393.98 384.44 384.73 393.21 374.85 401.22 365.68 409.36 356.45 416.99 347.61 423.94 339.63 431.34 331.54 438.38 323.32 444.76 315.37 451.75 306.77 458.11 297.62 463.23 288.47 468.61 279.66 471.82 271.75 472.82 260.89 472.7 248.5 460.8 248.43 450.05 249.57 442.24 252.84 433.12 258.06 423.12 262.6 413.12 267.98 403.21 273.68 393.77 278.24 384.24 283.34 375.03 288.96 366.49 293.86 357.72 299.83 349.52 306.96 342.36 313.86 335.04 322.29 328.87 332.24 324.52"
            stroke-dasharray="11 9" transform="rotate(76.76, 320, 400)" opacity="0.81"></path>
        <path
            d="M337.31 334.42C345.94 330.79 354.89 329.22 363.6 329.52 372.18 330.13 380.2 332.58 386.88 336.57 392.92 340.79 397.04 346.39 398.56 352.97 398.95 359.64 396.49 367.14 391.07 375.12 384.96 383.09 377.16 390.79 368.67 397.96 360.56 405.24 352.16 412.17 343.96 418.56 336.32 425.27 328.61 431.63 320.96 437.35 313.52 443.47 305.78 448.97 297.93 453.32 290.09 457.86 282.85 460.56 276.62 461.43 268.1 461.5 259.16 452.1 259.64 443.3 260.8 436.89 263.71 429.26 268.29 420.72 272.36 412.17 277.26 403.56 282.56 395.25 287.04 386.88 292.07 378.73 297.53 371.14 302.44 363.42 308.17 356.2 314.75 349.92 321.15 343.56 328.68 338.21 337.31 334.42"
            stroke-dasharray="4 1" transform="rotate(80.80000000000001, 320, 400)" opacity="0.27"></path>
        <path
            d="M340.81 344.33C348.06 341.24 355.31 339.83 362.15 339.94 371.88 341.15 385.45 350.54 387.54 358.02 387.52 363.35 385.33 369.48 380.84 376.13 375.88 382.79 369.52 389.36 362.47 395.59 355.58 401.9 348.3 407.99 341.05 413.65 334.12 419.51 327.13 425.06 320.29 430.01 313.59 435.21 306.84 439.82 300.26 443.41 276.97 446.07 273.38 427.65 278.53 417.45 282.05 410.37 286.38 403.11 291.14 396.03 295.36 388.93 300.1 381.96 305.21 375.45 309.93 368.87 315.28 362.73 321.2 357.4 326.99 352.04 333.56 347.54 340.81 344.33"
            stroke-dasharray="1 0" transform="rotate(84.84, 320, 400)" opacity="0.98"></path>
        <path
            d="M342.41 354.24C354.05 349.29 364.64 349.64 371.44 354.13 377.08 358.94 377.33 367.45 370.61 378.14 362.71 388.82 350.85 399.73 338.66 409.14 327.09 419.02 315.01 427.93 304.38 433.5 290.04 439.85 281.38 428.81 288.76 413.46 294.31 402.19 302.66 390.07 311.94 379.46 320.29 368.76 330.77 359.48 342.41 354.24"
            stroke-dasharray="7 8" transform="rotate(88.88, 320, 400)" opacity="0.21"></path>
        <path
            d="M341.97 364.15C354.32 360.37 365.59 369.93 360.38 381.05 354.65 389.1 345.84 397.58 336.56 404.98 327.5 412.62 318.01 419.43 309.93 423.6 299.19 428.26 293.34 420.28 298.99 408.91 303.39 400.52 310.16 391.34 317.7 383.25 324.77 375.14 333.25 368.13 341.97 364.15"
            stroke-dasharray="3 11" transform="rotate(92.92, 320, 400)" opacity="0.62"></path>
        <path
            d="M339.53 374.06C351.08 368.95 356.57 373.96 350.15 384.75 342.6 395.54 327.34 408.27 316.39 413.69 305.44 419.43 302.36 415.1 309.22 404 315.06 392.88 327.96 379.46 339.53 374.06"
            stroke-dasharray="8 4" transform="rotate(96.96, 320, 400)" opacity="0.95"></path>
    </g>
</svg>