<svg xmlns="http://www.w3.org/2000/svg" version="1.1" xmlns:xlink="http://www.w3.org/1999/xlink"
    xmlns:svgjs="http://svgjs.dev/svgjs" width="1440" height="560" preserveAspectRatio="none"
    viewBox="0 0 1440 560">
    <g mask="url(&quot;#SvgjsMask1048&quot;)" fill="none">
        <g mask="url(&quot;#SvgjsMask1049&quot;)">
            <path d="M462.5 237.5L687.5 12.5L737.5 12.5L837.5 112.5L937.5 112.5" stroke-width="4.17"
                stroke="rgba(1, 235, 182, 1)"></path>
            <path
                d="M456.25 237.5 a6.25 6.25 0 1 0 12.5 0 a6.25 6.25 0 1 0 -12.5 0zM931.25 112.5 a6.25 6.25 0 1 0 12.5 0 a6.25 6.25 0 1 0 -12.5 0z"
                fill="rgba(1, 235, 182, 1)"></path>
            <path d="M812.5 512.5L862.5 512.5L912.5 562.5L1112.5 562.5L1287.5 387.5"
                stroke-width="4.17" stroke="rgba(1, 235, 182, 1)"></path>
            <path
                d="M806.25 512.5 a6.25 6.25 0 1 0 12.5 0 a6.25 6.25 0 1 0 -12.5 0zM1281.25 387.5 a6.25 6.25 0 1 0 12.5 0 a6.25 6.25 0 1 0 -12.5 0z"
                fill="rgba(1, 235, 182, 1)"></path>
            <path d="M887.5 312.5L887.5 387.5L787.5 487.5L787.5 562.5" stroke-width="4.17"
                stroke="rgba(1, 235, 182, 1)"></path>
            <path
                d="M881.25 312.5 a6.25 6.25 0 1 0 12.5 0 a6.25 6.25 0 1 0 -12.5 0zM781.25 562.5 a6.25 6.25 0 1 0 12.5 0 a6.25 6.25 0 1 0 -12.5 0z"
                fill="rgba(1, 235, 182, 1)"></path>
            <path d="M937.5 187.5L737.5 187.5L637.5 87.5" stroke-width="4.17"
                stroke="rgba(1, 235, 182, 1)"></path>
            <path
                d="M931.25 187.5 a6.25 6.25 0 1 0 12.5 0 a6.25 6.25 0 1 0 -12.5 0zM631.25 87.5 a6.25 6.25 0 1 0 12.5 0 a6.25 6.25 0 1 0 -12.5 0z"
                fill="rgba(1, 235, 182, 1)"></path>
            <path d="M12.5 487.5L87.5 487.5L162.5 562.5L487.5 562.5" stroke-width="4.17"
                stroke="rgba(1, 235, 182, 1)"></path>
            <path
                d="M6.25 487.5 a6.25 6.25 0 1 0 12.5 0 a6.25 6.25 0 1 0 -12.5 0zM481.25 562.5 a6.25 6.25 0 1 0 12.5 0 a6.25 6.25 0 1 0 -12.5 0z"
                fill="rgba(1, 235, 182, 1)"></path>
            <path
                d="M412.5 237.5L212.5 237.5L187.5 212.5L187.5 187.5L162.5 162.5L112.5 162.5L12.5 262.5L12.5 312.5"
                stroke-width="4.17" stroke="rgba(1, 235, 182, 1)"></path>
            <path
                d="M406.25 237.5 a6.25 6.25 0 1 0 12.5 0 a6.25 6.25 0 1 0 -12.5 0zM6.25 312.5 a6.25 6.25 0 1 0 12.5 0 a6.25 6.25 0 1 0 -12.5 0z"
                fill="rgba(1, 235, 182, 1)"></path>
            <path d="M937.5 287.5L937.5 412.5L1062.5 537.5L1112.5 537.5L1162.5 487.5L1162.5 362.5"
                stroke-width="4.17" stroke="rgba(1, 235, 182, 1)"></path>
            <path
                d="M931.25 287.5 a6.25 6.25 0 1 0 12.5 0 a6.25 6.25 0 1 0 -12.5 0zM1156.25 362.5 a6.25 6.25 0 1 0 12.5 0 a6.25 6.25 0 1 0 -12.5 0z"
                fill="rgba(1, 235, 182, 1)"></path>
            <path d="M562.5 412.5L762.5 212.5L1037.5 212.5" stroke-width="4.17"
                stroke="rgba(1, 235, 182, 1)"></path>
            <path
                d="M556.25 412.5 a6.25 6.25 0 1 0 12.5 0 a6.25 6.25 0 1 0 -12.5 0zM1031.25 212.5 a6.25 6.25 0 1 0 12.5 0 a6.25 6.25 0 1 0 -12.5 0z"
                fill="rgba(1, 235, 182, 1)"></path>
            <path d="M712.5 562.5L687.5 562.5L387.5 262.5L237.5 262.5" stroke-width="4.17"
                stroke="rgba(1, 235, 182, 1)"></path>
            <path
                d="M706.25 562.5 a6.25 6.25 0 1 0 12.5 0 a6.25 6.25 0 1 0 -12.5 0zM231.25 262.5 a6.25 6.25 0 1 0 12.5 0 a6.25 6.25 0 1 0 -12.5 0z"
                fill="rgba(1, 235, 182, 1)"></path>
            <path d="M1312.5 12.5L1437.5 137.5L1437.5 462.5L1412.5 487.5" stroke-width="4.17"
                stroke="rgba(1, 235, 182, 1)"></path>
            <path
                d="M1306.25 12.5 a6.25 6.25 0 1 0 12.5 0 a6.25 6.25 0 1 0 -12.5 0zM1406.25 487.5 a6.25 6.25 0 1 0 12.5 0 a6.25 6.25 0 1 0 -12.5 0z"
                fill="rgba(1, 235, 182, 1)"></path>
            <path d="M1212.5 137.5L1087.5 12.5L762.5 12.5" stroke-width="4.17"
                stroke="rgba(1, 235, 182, 1)"></path>
            <path
                d="M1206.25 137.5 a6.25 6.25 0 1 0 12.5 0 a6.25 6.25 0 1 0 -12.5 0zM756.25 12.5 a6.25 6.25 0 1 0 12.5 0 a6.25 6.25 0 1 0 -12.5 0z"
                fill="rgba(1, 235, 182, 1)"></path>
            <path d="M212.5 337.5L87.5 212.5" stroke-width="4.17" stroke="rgba(1, 235, 182, 1)"></path>
            <path
                d="M206.25 337.5 a6.25 6.25 0 1 0 12.5 0 a6.25 6.25 0 1 0 -12.5 0zM81.25 212.5 a6.25 6.25 0 1 0 12.5 0 a6.25 6.25 0 1 0 -12.5 0z"
                fill="rgba(1, 235, 182, 1)"></path>
            <path d="M637.5 462.5L712.5 537.5L762.5 537.5" stroke-width="4.17"
                stroke="rgba(1, 235, 182, 1)"></path>
            <path
                d="M631.25 462.5 a6.25 6.25 0 1 0 12.5 0 a6.25 6.25 0 1 0 -12.5 0zM756.25 537.5 a6.25 6.25 0 1 0 12.5 0 a6.25 6.25 0 1 0 -12.5 0z"
                fill="rgba(1, 235, 182, 1)"></path>
            <path
                d="M987.5 162.5L962.5 137.5L937.5 137.5L912.5 162.5L787.5 162.5L687.5 62.5L662.5 62.5"
                stroke-width="4.17" stroke="rgba(1, 235, 182, 1)"></path>
            <path
                d="M981.25 162.5 a6.25 6.25 0 1 0 12.5 0 a6.25 6.25 0 1 0 -12.5 0zM656.25 62.5 a6.25 6.25 0 1 0 12.5 0 a6.25 6.25 0 1 0 -12.5 0z"
                fill="rgba(1, 235, 182, 1)"></path>
            <path d="M812.5 237.5L1287.5 237.5" stroke-width="4.17" stroke="rgba(1, 235, 182, 1)"></path>
            <path
                d="M806.25 237.5 a6.25 6.25 0 1 0 12.5 0 a6.25 6.25 0 1 0 -12.5 0zM1281.25 237.5 a6.25 6.25 0 1 0 12.5 0 a6.25 6.25 0 1 0 -12.5 0z"
                fill="rgba(1, 235, 182, 1)"></path>
            <path d="M137.5 137.5L262.5 12.5L612.5 12.5" stroke-width="4.17"
                stroke="rgba(1, 235, 182, 1)"></path>
            <path
                d="M131.25 137.5 a6.25 6.25 0 1 0 12.5 0 a6.25 6.25 0 1 0 -12.5 0zM606.25 12.5 a6.25 6.25 0 1 0 12.5 0 a6.25 6.25 0 1 0 -12.5 0z"
                fill="rgba(1, 235, 182, 1)"></path>
            <path
                d="M962.5 87.5L962.5 112.5L1012.5 162.5L1062.5 162.5L1112.5 212.5L1162.5 212.5L1312.5 62.5L1337.5 62.5L1412.5 137.5"
                stroke-width="4.17" stroke="rgba(1, 235, 182, 1)"></path>
            <path
                d="M956.25 87.5 a6.25 6.25 0 1 0 12.5 0 a6.25 6.25 0 1 0 -12.5 0zM1406.25 137.5 a6.25 6.25 0 1 0 12.5 0 a6.25 6.25 0 1 0 -12.5 0z"
                fill="rgba(1, 235, 182, 1)"></path>
            <path d="M212.5 487.5L387.5 312.5L387.5 287.5" stroke-width="4.17"
                stroke="rgba(1, 235, 182, 1)"></path>
            <path
                d="M206.25 487.5 a6.25 6.25 0 1 0 12.5 0 a6.25 6.25 0 1 0 -12.5 0zM381.25 287.5 a6.25 6.25 0 1 0 12.5 0 a6.25 6.25 0 1 0 -12.5 0z"
                fill="rgba(1, 235, 182, 1)"></path>
            <path d="M1337.5 162.5L1287.5 112.5" stroke-width="4.17" stroke="rgba(1, 235, 182, 1)"></path>
            <path
                d="M1331.25 162.5 a6.25 6.25 0 1 0 12.5 0 a6.25 6.25 0 1 0 -12.5 0zM1281.25 112.5 a6.25 6.25 0 1 0 12.5 0 a6.25 6.25 0 1 0 -12.5 0z"
                fill="rgba(1, 235, 182, 1)"></path>
            <path d="M162.5 37.5L212.5 37.5L237.5 12.5" stroke-width="4.17"
                stroke="rgba(1, 235, 182, 1)"></path>
            <path
                d="M156.25 37.5 a6.25 6.25 0 1 0 12.5 0 a6.25 6.25 0 1 0 -12.5 0zM231.25 12.5 a6.25 6.25 0 1 0 12.5 0 a6.25 6.25 0 1 0 -12.5 0z"
                fill="rgba(1, 235, 182, 1)"></path>
            <path d="M212.5 137.5L287.5 137.5L387.5 37.5L587.5 37.5L612.5 62.5" stroke-width="4.17"
                stroke="rgba(1, 235, 182, 1)"></path>
            <path
                d="M206.25 137.5 a6.25 6.25 0 1 0 12.5 0 a6.25 6.25 0 1 0 -12.5 0zM606.25 62.5 a6.25 6.25 0 1 0 12.5 0 a6.25 6.25 0 1 0 -12.5 0z"
                fill="rgba(1, 235, 182, 1)"></path>
            <path d="M162.5 462.5L162.5 537.5" stroke-width="4.17" stroke="rgba(1, 235, 182, 1)"></path>
            <path
                d="M156.25 462.5 a6.25 6.25 0 1 0 12.5 0 a6.25 6.25 0 1 0 -12.5 0zM156.25 537.5 a6.25 6.25 0 1 0 12.5 0 a6.25 6.25 0 1 0 -12.5 0z"
                fill="rgba(1, 235, 182, 1)"></path>
            <path d="M312.5 412.5L437.5 537.5L587.5 537.5L612.5 512.5" stroke-width="4.17"
                stroke="rgba(1, 235, 182, 1)"></path>
            <path
                d="M306.25 412.5 a6.25 6.25 0 1 0 12.5 0 a6.25 6.25 0 1 0 -12.5 0zM606.25 512.5 a6.25 6.25 0 1 0 12.5 0 a6.25 6.25 0 1 0 -12.5 0z"
                fill="rgba(1, 235, 182, 1)"></path>
            <path d="M1312.5 512.5L1362.5 562.5L1437.5 562.5" stroke-width="4.17"
                stroke="rgba(1, 235, 182, 1)"></path>
            <path
                d="M1306.25 512.5 a6.25 6.25 0 1 0 12.5 0 a6.25 6.25 0 1 0 -12.5 0zM1431.25 562.5 a6.25 6.25 0 1 0 12.5 0 a6.25 6.25 0 1 0 -12.5 0z"
                fill="rgba(1, 235, 182, 1)"></path>
            <path d="M537.5 137.5L537.5 62.5" stroke-width="4.17" stroke="rgba(1, 235, 182, 1)"></path>
            <path
                d="M531.25 137.5 a6.25 6.25 0 1 0 12.5 0 a6.25 6.25 0 1 0 -12.5 0zM531.25 62.5 a6.25 6.25 0 1 0 12.5 0 a6.25 6.25 0 1 0 -12.5 0z"
                fill="rgba(1, 235, 182, 1)"></path>
            <path
                d="M837.5 87.5L887.5 37.5L1087.5 37.5L1187.5 137.5L1187.5 162.5L1162.5 187.5L1112.5 187.5L1087.5 162.5"
                stroke-width="4.17" stroke="rgba(1, 235, 182, 1)"></path>
            <path
                d="M831.25 87.5 a6.25 6.25 0 1 0 12.5 0 a6.25 6.25 0 1 0 -12.5 0zM1081.25 162.5 a6.25 6.25 0 1 0 12.5 0 a6.25 6.25 0 1 0 -12.5 0z"
                fill="rgba(1, 235, 182, 1)"></path>
            <path
                d="M1362.5 187.5L1412.5 237.5L1412.5 462.5L1362.5 512.5L1337.5 512.5L1287.5 462.5L1237.5 462.5L1212.5 487.5"
                stroke-width="4.17" stroke="rgba(1, 235, 182, 1)"></path>
            <path
                d="M1356.25 187.5 a6.25 6.25 0 1 0 12.5 0 a6.25 6.25 0 1 0 -12.5 0zM1206.25 487.5 a6.25 6.25 0 1 0 12.5 0 a6.25 6.25 0 1 0 -12.5 0z"
                fill="rgba(1, 235, 182, 1)"></path>
            <path d="M1062.5 137.5L1162.5 137.5" stroke-width="4.17" stroke="rgba(1, 235, 182, 1)"></path>
            <path
                d="M1056.25 137.5 a6.25 6.25 0 1 0 12.5 0 a6.25 6.25 0 1 0 -12.5 0zM1156.25 137.5 a6.25 6.25 0 1 0 12.5 0 a6.25 6.25 0 1 0 -12.5 0z"
                fill="rgba(1, 235, 182, 1)"></path>
            <path d="M862.5 437.5L812.5 487.5" stroke-width="4.17" stroke="rgba(1, 235, 182, 1)"></path>
            <path
                d="M856.25 437.5 a6.25 6.25 0 1 0 12.5 0 a6.25 6.25 0 1 0 -12.5 0zM806.25 487.5 a6.25 6.25 0 1 0 12.5 0 a6.25 6.25 0 1 0 -12.5 0z"
                fill="rgba(1, 235, 182, 1)"></path>
            <path d="M437.5 137.5L437.5 287.5L487.5 337.5L537.5 337.5L562.5 362.5L562.5 387.5"
                stroke-width="4.17" stroke="rgba(1, 235, 182, 1)"></path>
            <path
                d="M431.25 137.5 a6.25 6.25 0 1 0 12.5 0 a6.25 6.25 0 1 0 -12.5 0zM556.25 387.5 a6.25 6.25 0 1 0 12.5 0 a6.25 6.25 0 1 0 -12.5 0z"
                fill="rgba(1, 235, 182, 1)"></path>
            <path d="M1287.5 537.5L1312.5 537.5L1337.5 562.5" stroke-width="4.17"
                stroke="rgba(1, 235, 182, 1)"></path>
            <path
                d="M1281.25 537.5 a6.25 6.25 0 1 0 12.5 0 a6.25 6.25 0 1 0 -12.5 0zM1331.25 562.5 a6.25 6.25 0 1 0 12.5 0 a6.25 6.25 0 1 0 -12.5 0z"
                fill="rgba(1, 235, 182, 1)"></path>
            <path d="M1062.5 87.5L1062.5 112.5L1037.5 137.5L1012.5 137.5L987.5 112.5L987.5 62.5"
                stroke-width="4.17" stroke="rgba(1, 235, 182, 1)"></path>
            <path
                d="M1056.25 87.5 a6.25 6.25 0 1 0 12.5 0 a6.25 6.25 0 1 0 -12.5 0zM981.25 62.5 a6.25 6.25 0 1 0 12.5 0 a6.25 6.25 0 1 0 -12.5 0z"
                fill="rgba(1, 235, 182, 1)"></path>
            <path d="M62.5 187.5L187.5 62.5" stroke-width="4.17" stroke="rgba(1, 235, 182, 1)"></path>
            <path
                d="M56.25 187.5 a6.25 6.25 0 1 0 12.5 0 a6.25 6.25 0 1 0 -12.5 0zM181.25 62.5 a6.25 6.25 0 1 0 12.5 0 a6.25 6.25 0 1 0 -12.5 0z"
                fill="rgba(1, 235, 182, 1)"></path>
            <path d="M312.5 62.5L337.5 62.5L362.5 37.5" stroke-width="4.17"
                stroke="rgba(1, 235, 182, 1)"></path>
            <path
                d="M306.25 62.5 a6.25 6.25 0 1 0 12.5 0 a6.25 6.25 0 1 0 -12.5 0zM356.25 37.5 a6.25 6.25 0 1 0 12.5 0 a6.25 6.25 0 1 0 -12.5 0z"
                fill="rgba(1, 235, 182, 1)"></path>
            <path d="M712.5 237.5L587.5 362.5" stroke-width="4.17" stroke="rgba(1, 235, 182, 1)"></path>
            <path
                d="M706.25 237.5 a6.25 6.25 0 1 0 12.5 0 a6.25 6.25 0 1 0 -12.5 0zM581.25 362.5 a6.25 6.25 0 1 0 12.5 0 a6.25 6.25 0 1 0 -12.5 0z"
                fill="rgba(1, 235, 182, 1)"></path>
            <path d="M287.5 512.5L262.5 537.5L187.5 537.5" stroke-width="4.17"
                stroke="rgba(1, 235, 182, 1)"></path>
            <path
                d="M281.25 512.5 a6.25 6.25 0 1 0 12.5 0 a6.25 6.25 0 1 0 -12.5 0zM181.25 537.5 a6.25 6.25 0 1 0 12.5 0 a6.25 6.25 0 1 0 -12.5 0z"
                fill="rgba(1, 235, 182, 1)"></path>
            <path d="M587.5 412.5L737.5 262.5L1062.5 262.5" stroke-width="4.17"
                stroke="rgba(1, 235, 182, 1)"></path>
            <path
                d="M581.25 412.5 a6.25 6.25 0 1 0 12.5 0 a6.25 6.25 0 1 0 -12.5 0zM1056.25 262.5 a6.25 6.25 0 1 0 12.5 0 a6.25 6.25 0 1 0 -12.5 0z"
                fill="rgba(1, 235, 182, 1)"></path>
            <path d="M37.5 112.5L12.5 137.5L12.5 187.5L37.5 212.5" stroke-width="4.17"
                stroke="rgba(1, 235, 182, 1)"></path>
            <path
                d="M31.25 112.5 a6.25 6.25 0 1 0 12.5 0 a6.25 6.25 0 1 0 -12.5 0zM31.25 212.5 a6.25 6.25 0 1 0 12.5 0 a6.25 6.25 0 1 0 -12.5 0z"
                fill="rgba(1, 235, 182, 1)"></path>
            <path d="M1187.5 362.5L1387.5 362.5" stroke-width="4.17" stroke="rgba(1, 235, 182, 1)"></path>
            <path
                d="M1181.25 362.5 a6.25 6.25 0 1 0 12.5 0 a6.25 6.25 0 1 0 -12.5 0zM1381.25 362.5 a6.25 6.25 0 1 0 12.5 0 a6.25 6.25 0 1 0 -12.5 0z"
                fill="rgba(1, 235, 182, 1)"></path>
            <path d="M637.5 387.5L587.5 437.5" stroke-width="4.17" stroke="rgba(1, 235, 182, 1)"></path>
            <path
                d="M631.25 387.5 a6.25 6.25 0 1 0 12.5 0 a6.25 6.25 0 1 0 -12.5 0zM581.25 437.5 a6.25 6.25 0 1 0 12.5 0 a6.25 6.25 0 1 0 -12.5 0z"
                fill="rgba(1, 235, 182, 1)"></path>
            <path d="M1237.5 562.5L1237.5 487.5" stroke-width="4.17" stroke="rgba(1, 235, 182, 1)"></path>
            <path
                d="M1231.25 562.5 a6.25 6.25 0 1 0 12.5 0 a6.25 6.25 0 1 0 -12.5 0zM1231.25 487.5 a6.25 6.25 0 1 0 12.5 0 a6.25 6.25 0 1 0 -12.5 0z"
                fill="rgba(1, 235, 182, 1)"></path>
            <path d="M812.5 362.5L812.5 437.5L762.5 487.5L762.5 512.5" stroke-width="4.17"
                stroke="rgba(1, 235, 182, 1)"></path>
            <path
                d="M806.25 362.5 a6.25 6.25 0 1 0 12.5 0 a6.25 6.25 0 1 0 -12.5 0zM756.25 512.5 a6.25 6.25 0 1 0 12.5 0 a6.25 6.25 0 1 0 -12.5 0z"
                fill="rgba(1, 235, 182, 1)"></path>
            <path d="M262.5 337.5L337.5 337.5L362.5 312.5L362.5 287.5" stroke-width="4.17"
                stroke="rgba(1, 235, 182, 1)"></path>
            <path
                d="M256.25 337.5 a6.25 6.25 0 1 0 12.5 0 a6.25 6.25 0 1 0 -12.5 0zM356.25 287.5 a6.25 6.25 0 1 0 12.5 0 a6.25 6.25 0 1 0 -12.5 0z"
                fill="rgba(1, 235, 182, 1)"></path>
            <path d="M787.5 387.5L687.5 487.5" stroke-width="4.17" stroke="rgba(1, 235, 182, 1)"></path>
            <path
                d="M781.25 387.5 a6.25 6.25 0 1 0 12.5 0 a6.25 6.25 0 1 0 -12.5 0zM681.25 487.5 a6.25 6.25 0 1 0 12.5 0 a6.25 6.25 0 1 0 -12.5 0z"
                fill="rgba(1, 235, 182, 1)"></path>
            <path d="M1137.5 287.5L1187.5 337.5L1387.5 337.5" stroke-width="4.17"
                stroke="rgba(1, 235, 182, 1)"></path>
            <path
                d="M1131.25 287.5 a6.25 6.25 0 1 0 12.5 0 a6.25 6.25 0 1 0 -12.5 0zM1381.25 337.5 a6.25 6.25 0 1 0 12.5 0 a6.25 6.25 0 1 0 -12.5 0z"
                fill="rgba(1, 235, 182, 1)"></path>
            <path d="M562.5 237.5L562.5 337.5" stroke-width="4.17" stroke="rgba(1, 235, 182, 1)"></path>
            <path
                d="M556.25 237.5 a6.25 6.25 0 1 0 12.5 0 a6.25 6.25 0 1 0 -12.5 0zM556.25 337.5 a6.25 6.25 0 1 0 12.5 0 a6.25 6.25 0 1 0 -12.5 0z"
                fill="rgba(1, 235, 182, 1)"></path>
            <path d="M387.5 87.5L412.5 112.5L512.5 112.5" stroke-width="4.17"
                stroke="rgba(1, 235, 182, 1)"></path>
            <path
                d="M381.25 87.5 a6.25 6.25 0 1 0 12.5 0 a6.25 6.25 0 1 0 -12.5 0zM506.25 112.5 a6.25 6.25 0 1 0 12.5 0 a6.25 6.25 0 1 0 -12.5 0z"
                fill="rgba(1, 235, 182, 1)"></path>
            <path d="M1337.5 137.5L1337.5 87.5" stroke-width="4.17" stroke="rgba(1, 235, 182, 1)"></path>
            <path
                d="M1331.25 137.5 a6.25 6.25 0 1 0 12.5 0 a6.25 6.25 0 1 0 -12.5 0zM1331.25 87.5 a6.25 6.25 0 1 0 12.5 0 a6.25 6.25 0 1 0 -12.5 0z"
                fill="rgba(1, 235, 182, 1)"></path>
            <path d="M287.5 487.5L262.5 512.5L187.5 512.5" stroke-width="4.17"
                stroke="rgba(1, 235, 182, 1)"></path>
            <path
                d="M281.25 487.5 a6.25 6.25 0 1 0 12.5 0 a6.25 6.25 0 1 0 -12.5 0zM181.25 512.5 a6.25 6.25 0 1 0 12.5 0 a6.25 6.25 0 1 0 -12.5 0z"
                fill="rgba(1, 235, 182, 1)"></path>
            <path d="M787.5 412.5L737.5 462.5" stroke-width="4.17" stroke="rgba(1, 235, 182, 1)"></path>
            <path
                d="M781.25 412.5 a6.25 6.25 0 1 0 12.5 0 a6.25 6.25 0 1 0 -12.5 0zM731.25 462.5 a6.25 6.25 0 1 0 12.5 0 a6.25 6.25 0 1 0 -12.5 0z"
                fill="rgba(1, 235, 182, 1)"></path>
            <path d="M337.5 312.5L312.5 287.5L187.5 287.5L112.5 212.5L112.5 187.5"
                stroke-width="4.17" stroke="rgba(1, 235, 182, 1)"></path>
            <path
                d="M331.25 312.5 a6.25 6.25 0 1 0 12.5 0 a6.25 6.25 0 1 0 -12.5 0zM106.25 187.5 a6.25 6.25 0 1 0 12.5 0 a6.25 6.25 0 1 0 -12.5 0z"
                fill="rgba(1, 235, 182, 1)"></path>
            <path d="M1087.5 362.5L1062.5 337.5L1062.5 287.5L1087.5 262.5L1387.5 262.5"
                stroke-width="4.17" stroke="rgba(1, 235, 182, 1)"></path>
            <path
                d="M1081.25 362.5 a6.25 6.25 0 1 0 12.5 0 a6.25 6.25 0 1 0 -12.5 0zM1381.25 262.5 a6.25 6.25 0 1 0 12.5 0 a6.25 6.25 0 1 0 -12.5 0z"
                fill="rgba(1, 235, 182, 1)"></path>
            <path d="M462.5 387.5L387.5 462.5" stroke-width="4.17" stroke="rgba(1, 235, 182, 1)"></path>
            <path
                d="M456.25 387.5 a6.25 6.25 0 1 0 12.5 0 a6.25 6.25 0 1 0 -12.5 0zM381.25 462.5 a6.25 6.25 0 1 0 12.5 0 a6.25 6.25 0 1 0 -12.5 0z"
                fill="rgba(1, 235, 182, 1)"></path>
            <path d="M87.5 112.5L112.5 112.5L162.5 62.5" stroke-width="4.17"
                stroke="rgba(1, 235, 182, 1)"></path>
            <path
                d="M81.25 112.5 a6.25 6.25 0 1 0 12.5 0 a6.25 6.25 0 1 0 -12.5 0zM156.25 62.5 a6.25 6.25 0 1 0 12.5 0 a6.25 6.25 0 1 0 -12.5 0z"
                fill="rgba(1, 235, 182, 1)"></path>
            <path d="M612.5 462.5L612.5 437.5L712.5 337.5L862.5 337.5" stroke-width="4.17"
                stroke="rgba(1, 235, 182, 1)"></path>
            <path
                d="M606.25 462.5 a6.25 6.25 0 1 0 12.5 0 a6.25 6.25 0 1 0 -12.5 0zM856.25 337.5 a6.25 6.25 0 1 0 12.5 0 a6.25 6.25 0 1 0 -12.5 0z"
                fill="rgba(1, 235, 182, 1)"></path>
            <path d="M762.5 87.5L762.5 112.5L787.5 137.5L912.5 137.5" stroke-width="4.17"
                stroke="rgba(1, 235, 182, 1)"></path>
            <path
                d="M756.25 87.5 a6.25 6.25 0 1 0 12.5 0 a6.25 6.25 0 1 0 -12.5 0zM906.25 137.5 a6.25 6.25 0 1 0 12.5 0 a6.25 6.25 0 1 0 -12.5 0z"
                fill="rgba(1, 235, 182, 1)"></path>
            <path d="M1062.5 387.5L1062.5 512.5" stroke-width="4.17" stroke="rgba(1, 235, 182, 1)"></path>
            <path
                d="M1056.25 387.5 a6.25 6.25 0 1 0 12.5 0 a6.25 6.25 0 1 0 -12.5 0zM1056.25 512.5 a6.25 6.25 0 1 0 12.5 0 a6.25 6.25 0 1 0 -12.5 0z"
                fill="rgba(1, 235, 182, 1)"></path>
            <path d="M987.5 312.5L987.5 437.5L1037.5 487.5" stroke-width="4.17"
                stroke="rgba(1, 235, 182, 1)"></path>
            <path
                d="M981.25 312.5 a6.25 6.25 0 1 0 12.5 0 a6.25 6.25 0 1 0 -12.5 0zM1031.25 487.5 a6.25 6.25 0 1 0 12.5 0 a6.25 6.25 0 1 0 -12.5 0z"
                fill="rgba(1, 235, 182, 1)"></path>
            <path d="M487.5 137.5L487.5 187.5L462.5 212.5" stroke-width="4.17"
                stroke="rgba(1, 235, 182, 1)"></path>
            <path
                d="M481.25 137.5 a6.25 6.25 0 1 0 12.5 0 a6.25 6.25 0 1 0 -12.5 0zM456.25 212.5 a6.25 6.25 0 1 0 12.5 0 a6.25 6.25 0 1 0 -12.5 0z"
                fill="rgba(1, 235, 182, 1)"></path>
            <path d="M237.5 312.5L237.5 412.5L187.5 462.5L187.5 487.5" stroke-width="4.17"
                stroke="rgba(1, 235, 182, 1)"></path>
            <path
                d="M231.25 312.5 a6.25 6.25 0 1 0 12.5 0 a6.25 6.25 0 1 0 -12.5 0zM181.25 487.5 a6.25 6.25 0 1 0 12.5 0 a6.25 6.25 0 1 0 -12.5 0z"
                fill="rgba(1, 235, 182, 1)"></path>
            <path d="M1437.5 37.5L1437.5 112.5" stroke-width="4.17" stroke="rgba(1, 235, 182, 1)"></path>
            <path
                d="M1431.25 37.5 a6.25 6.25 0 1 0 12.5 0 a6.25 6.25 0 1 0 -12.5 0zM1431.25 112.5 a6.25 6.25 0 1 0 12.5 0 a6.25 6.25 0 1 0 -12.5 0z"
                fill="rgba(1, 235, 182, 1)"></path>
            <path d="M662.5 162.5L687.5 162.5L737.5 212.5" stroke-width="4.17"
                stroke="rgba(1, 235, 182, 1)"></path>
            <path
                d="M656.25 162.5 a6.25 6.25 0 1 0 12.5 0 a6.25 6.25 0 1 0 -12.5 0zM731.25 212.5 a6.25 6.25 0 1 0 12.5 0 a6.25 6.25 0 1 0 -12.5 0z"
                fill="rgba(1, 235, 182, 1)"></path>
            <path d="M12.5 62.5L37.5 87.5L112.5 87.5L137.5 62.5L137.5 12.5" stroke-width="4.17"
                stroke="rgba(1, 235, 182, 1)"></path>
            <path
                d="M6.25 62.5 a6.25 6.25 0 1 0 12.5 0 a6.25 6.25 0 1 0 -12.5 0zM131.25 12.5 a6.25 6.25 0 1 0 12.5 0 a6.25 6.25 0 1 0 -12.5 0z"
                fill="rgba(1, 235, 182, 1)"></path>
            <path d="M1262.5 62.5L1262.5 87.5L1237.5 112.5L1212.5 112.5L1112.5 12.5"
                stroke-width="4.17" stroke="rgba(1, 235, 182, 1)"></path>
            <path
                d="M1256.25 62.5 a6.25 6.25 0 1 0 12.5 0 a6.25 6.25 0 1 0 -12.5 0zM1106.25 12.5 a6.25 6.25 0 1 0 12.5 0 a6.25 6.25 0 1 0 -12.5 0z"
                fill="rgba(1, 235, 182, 1)"></path>
            <path d="M1437.5 12.5L1387.5 62.5" stroke-width="4.17" stroke="rgba(1, 235, 182, 1)"></path>
            <path
                d="M1431.25 12.5 a6.25 6.25 0 1 0 12.5 0 a6.25 6.25 0 1 0 -12.5 0zM1381.25 62.5 a6.25 6.25 0 1 0 12.5 0 a6.25 6.25 0 1 0 -12.5 0z"
                fill="rgba(1, 235, 182, 1)"></path>
            <path d="M512.5 437.5L537.5 437.5L587.5 487.5L587.5 512.5" stroke-width="4.17"
                stroke="rgba(1, 235, 182, 1)"></path>
            <path
                d="M506.25 437.5 a6.25 6.25 0 1 0 12.5 0 a6.25 6.25 0 1 0 -12.5 0zM581.25 512.5 a6.25 6.25 0 1 0 12.5 0 a6.25 6.25 0 1 0 -12.5 0z"
                fill="rgba(1, 235, 182, 1)"></path>
            <path d="M812.5 312.5L712.5 312.5" stroke-width="4.17" stroke="rgba(1, 235, 182, 1)"></path>
            <path
                d="M806.25 312.5 a6.25 6.25 0 1 0 12.5 0 a6.25 6.25 0 1 0 -12.5 0zM706.25 312.5 a6.25 6.25 0 1 0 12.5 0 a6.25 6.25 0 1 0 -12.5 0z"
                fill="rgba(1, 235, 182, 1)"></path>
            <path d="M462.5 62.5L387.5 62.5" stroke-width="4.17" stroke="rgba(1, 235, 182, 1)"></path>
            <path
                d="M456.25 62.5 a6.25 6.25 0 1 0 12.5 0 a6.25 6.25 0 1 0 -12.5 0zM381.25 62.5 a6.25 6.25 0 1 0 12.5 0 a6.25 6.25 0 1 0 -12.5 0z"
                fill="rgba(1, 235, 182, 1)"></path>
            <path d="M862.5 487.5L987.5 487.5L1037.5 537.5" stroke-width="4.17"
                stroke="rgba(1, 235, 182, 1)"></path>
            <path
                d="M856.25 487.5 a6.25 6.25 0 1 0 12.5 0 a6.25 6.25 0 1 0 -12.5 0zM1031.25 537.5 a6.25 6.25 0 1 0 12.5 0 a6.25 6.25 0 1 0 -12.5 0z"
                fill="rgba(1, 235, 182, 1)"></path>
            <path d="M1337.5 462.5L1337.5 387.5" stroke-width="4.17" stroke="rgba(1, 235, 182, 1)"></path>
            <path
                d="M1331.25 462.5 a6.25 6.25 0 1 0 12.5 0 a6.25 6.25 0 1 0 -12.5 0zM1331.25 387.5 a6.25 6.25 0 1 0 12.5 0 a6.25 6.25 0 1 0 -12.5 0z"
                fill="rgba(1, 235, 182, 1)"></path>
            <path
                d="M187.5 437.5L87.5 437.5L12.5 362.5L12.5 337.5L87.5 262.5L112.5 262.5L162.5 312.5L162.5 337.5L112.5 387.5L62.5 387.5"
                stroke-width="4.17" stroke="rgba(1, 235, 182, 1)"></path>
            <path
                d="M181.25 437.5 a6.25 6.25 0 1 0 12.5 0 a6.25 6.25 0 1 0 -12.5 0zM56.25 387.5 a6.25 6.25 0 1 0 12.5 0 a6.25 6.25 0 1 0 -12.5 0z"
                fill="rgba(1, 235, 182, 1)"></path>
            <path d="M962.5 512.5L987.5 512.5L1012.5 537.5" stroke-width="4.17"
                stroke="rgba(1, 235, 182, 1)"></path>
            <path
                d="M956.25 512.5 a6.25 6.25 0 1 0 12.5 0 a6.25 6.25 0 1 0 -12.5 0zM1006.25 537.5 a6.25 6.25 0 1 0 12.5 0 a6.25 6.25 0 1 0 -12.5 0z"
                fill="rgba(1, 235, 182, 1)"></path>
            <path d="M537.5 487.5L462.5 412.5" stroke-width="4.17" stroke="rgba(1, 235, 182, 1)"></path>
            <path
                d="M531.25 487.5 a6.25 6.25 0 1 0 12.5 0 a6.25 6.25 0 1 0 -12.5 0zM456.25 412.5 a6.25 6.25 0 1 0 12.5 0 a6.25 6.25 0 1 0 -12.5 0z"
                fill="rgba(1, 235, 182, 1)"></path>
            <path d="M337.5 462.5L312.5 437.5L287.5 437.5L237.5 487.5" stroke-width="4.17"
                stroke="rgba(1, 235, 182, 1)"></path>
            <path
                d="M331.25 462.5 a6.25 6.25 0 1 0 12.5 0 a6.25 6.25 0 1 0 -12.5 0zM231.25 487.5 a6.25 6.25 0 1 0 12.5 0 a6.25 6.25 0 1 0 -12.5 0z"
                fill="rgba(1, 235, 182, 1)"></path>
            <path d="M312.5 312.5L262.5 312.5" stroke-width="4.17" stroke="rgba(1, 235, 182, 1)"></path>
            <path
                d="M306.25 312.5 a6.25 6.25 0 1 0 12.5 0 a6.25 6.25 0 1 0 -12.5 0zM256.25 312.5 a6.25 6.25 0 1 0 12.5 0 a6.25 6.25 0 1 0 -12.5 0z"
                fill="rgba(1, 235, 182, 1)"></path>
            <path d="M262.5 62.5L287.5 62.5L312.5 37.5L337.5 37.5" stroke-width="4.17"
                stroke="rgba(1, 235, 182, 1)"></path>
            <path
                d="M256.25 62.5 a6.25 6.25 0 1 0 12.5 0 a6.25 6.25 0 1 0 -12.5 0zM331.25 37.5 a6.25 6.25 0 1 0 12.5 0 a6.25 6.25 0 1 0 -12.5 0z"
                fill="rgba(1, 235, 182, 1)"></path>
            <path d="M362.5 387.5L437.5 387.5L462.5 362.5" stroke-width="4.17"
                stroke="rgba(1, 235, 182, 1)"></path>
            <path
                d="M356.25 387.5 a6.25 6.25 0 1 0 12.5 0 a6.25 6.25 0 1 0 -12.5 0zM456.25 362.5 a6.25 6.25 0 1 0 12.5 0 a6.25 6.25 0 1 0 -12.5 0z"
                fill="rgba(1, 235, 182, 1)"></path>
            <path d="M562.5 562.5L512.5 562.5" stroke-width="4.17" stroke="rgba(1, 235, 182, 1)"></path>
            <path
                d="M556.25 562.5 a6.25 6.25 0 1 0 12.5 0 a6.25 6.25 0 1 0 -12.5 0zM506.25 562.5 a6.25 6.25 0 1 0 12.5 0 a6.25 6.25 0 1 0 -12.5 0z"
                fill="rgba(1, 235, 182, 1)"></path>
            <path d="M612.5 187.5L537.5 187.5L462.5 262.5L462.5 287.5L487.5 312.5L537.5 312.5"
                stroke-width="4.17" stroke="rgba(1, 235, 182, 1)"></path>
            <path
                d="M606.25 187.5 a6.25 6.25 0 1 0 12.5 0 a6.25 6.25 0 1 0 -12.5 0zM531.25 312.5 a6.25 6.25 0 1 0 12.5 0 a6.25 6.25 0 1 0 -12.5 0z"
                fill="rgba(1, 235, 182, 1)"></path>
            <path d="M637.5 437.5L662.5 462.5L687.5 462.5" stroke-width="4.17"
                stroke="rgba(1, 235, 182, 1)"></path>
            <path
                d="M631.25 437.5 a6.25 6.25 0 1 0 12.5 0 a6.25 6.25 0 1 0 -12.5 0zM681.25 462.5 a6.25 6.25 0 1 0 12.5 0 a6.25 6.25 0 1 0 -12.5 0z"
                fill="rgba(1, 235, 182, 1)"></path>
            <path d="M1337.5 12.5L1362.5 37.5L1387.5 37.5L1412.5 12.5" stroke-width="4.17"
                stroke="rgba(1, 235, 182, 1)"></path>
            <path
                d="M1331.25 12.5 a6.25 6.25 0 1 0 12.5 0 a6.25 6.25 0 1 0 -12.5 0zM1406.25 12.5 a6.25 6.25 0 1 0 12.5 0 a6.25 6.25 0 1 0 -12.5 0z"
                fill="rgba(1, 235, 182, 1)"></path>
            <path d="M587.5 562.5L612.5 537.5L637.5 537.5L662.5 562.5" stroke-width="4.17"
                stroke="rgba(1, 235, 182, 1)"></path>
            <path
                d="M581.25 562.5 a6.25 6.25 0 1 0 12.5 0 a6.25 6.25 0 1 0 -12.5 0zM656.25 562.5 a6.25 6.25 0 1 0 12.5 0 a6.25 6.25 0 1 0 -12.5 0z"
                fill="rgba(1, 235, 182, 1)"></path>
            <path d="M37.5 512.5L87.5 512.5" stroke-width="4.17" stroke="rgba(1, 235, 182, 1)"></path>
            <path
                d="M31.25 512.5 a6.25 6.25 0 1 0 12.5 0 a6.25 6.25 0 1 0 -12.5 0zM81.25 512.5 a6.25 6.25 0 1 0 12.5 0 a6.25 6.25 0 1 0 -12.5 0z"
                fill="rgba(1, 235, 182, 1)"></path>
            <path d="M162.5 137.5L237.5 212.5L262.5 212.5L337.5 137.5L337.5 112.5L362.5 87.5"
                stroke-width="4.17" stroke="rgba(1, 235, 182, 1)"></path>
            <path
                d="M156.25 137.5 a6.25 6.25 0 1 0 12.5 0 a6.25 6.25 0 1 0 -12.5 0zM356.25 87.5 a6.25 6.25 0 1 0 12.5 0 a6.25 6.25 0 1 0 -12.5 0z"
                fill="rgba(1, 235, 182, 1)"></path>
            <path d="M112.5 337.5L37.5 337.5" stroke-width="4.17" stroke="rgba(1, 235, 182, 1)"></path>
            <path
                d="M106.25 337.5 a6.25 6.25 0 1 0 12.5 0 a6.25 6.25 0 1 0 -12.5 0zM31.25 337.5 a6.25 6.25 0 1 0 12.5 0 a6.25 6.25 0 1 0 -12.5 0z"
                fill="rgba(1, 235, 182, 1)"></path>
            <path d="M1087.5 62.5L1137.5 112.5" stroke-width="4.17" stroke="rgba(1, 235, 182, 1)"></path>
            <path
                d="M1081.25 62.5 a6.25 6.25 0 1 0 12.5 0 a6.25 6.25 0 1 0 -12.5 0zM1131.25 112.5 a6.25 6.25 0 1 0 12.5 0 a6.25 6.25 0 1 0 -12.5 0z"
                fill="rgba(1, 235, 182, 1)"></path>
            <path d="M1037.5 412.5L1012.5 387.5L1012.5 312.5L1037.5 287.5" stroke-width="4.17"
                stroke="rgba(1, 235, 182, 1)"></path>
            <path
                d="M1031.25 412.5 a6.25 6.25 0 1 0 12.5 0 a6.25 6.25 0 1 0 -12.5 0zM1031.25 287.5 a6.25 6.25 0 1 0 12.5 0 a6.25 6.25 0 1 0 -12.5 0z"
                fill="rgba(1, 235, 182, 1)"></path>
            <path d="M312.5 187.5L387.5 112.5" stroke-width="4.17" stroke="rgba(1, 235, 182, 1)"></path>
            <path
                d="M306.25 187.5 a6.25 6.25 0 1 0 12.5 0 a6.25 6.25 0 1 0 -12.5 0zM381.25 112.5 a6.25 6.25 0 1 0 12.5 0 a6.25 6.25 0 1 0 -12.5 0z"
                fill="rgba(1, 235, 182, 1)"></path>
            <path d="M987.5 537.5L912.5 537.5L887.5 512.5" stroke-width="4.17"
                stroke="rgba(1, 235, 182, 1)"></path>
            <path
                d="M981.25 537.5 a6.25 6.25 0 1 0 12.5 0 a6.25 6.25 0 1 0 -12.5 0zM881.25 512.5 a6.25 6.25 0 1 0 12.5 0 a6.25 6.25 0 1 0 -12.5 0z"
                fill="rgba(1, 235, 182, 1)"></path>
            <path d="M837.5 62.5L812.5 62.5L787.5 37.5" stroke-width="4.17"
                stroke="rgba(1, 235, 182, 1)"></path>
            <path
                d="M831.25 62.5 a6.25 6.25 0 1 0 12.5 0 a6.25 6.25 0 1 0 -12.5 0zM781.25 37.5 a6.25 6.25 0 1 0 12.5 0 a6.25 6.25 0 1 0 -12.5 0z"
                fill="rgba(1, 235, 182, 1)"></path>
            <path d="M1337.5 187.5L1337.5 237.5" stroke-width="4.17" stroke="rgba(1, 235, 182, 1)"></path>
            <path
                d="M1331.25 187.5 a6.25 6.25 0 1 0 12.5 0 a6.25 6.25 0 1 0 -12.5 0zM1331.25 237.5 a6.25 6.25 0 1 0 12.5 0 a6.25 6.25 0 1 0 -12.5 0z"
                fill="rgba(1, 235, 182, 1)"></path>
            <path d="M1362.5 387.5L1362.5 487.5" stroke-width="4.17" stroke="rgba(1, 235, 182, 1)"></path>
            <path
                d="M1356.25 387.5 a6.25 6.25 0 1 0 12.5 0 a6.25 6.25 0 1 0 -12.5 0zM1356.25 487.5 a6.25 6.25 0 1 0 12.5 0 a6.25 6.25 0 1 0 -12.5 0z"
                fill="rgba(1, 235, 182, 1)"></path>
            <path d="M437.5 437.5L487.5 487.5L487.5 512.5" stroke-width="4.17"
                stroke="rgba(1, 235, 182, 1)"></path>
            <path
                d="M431.25 437.5 a6.25 6.25 0 1 0 12.5 0 a6.25 6.25 0 1 0 -12.5 0zM481.25 512.5 a6.25 6.25 0 1 0 12.5 0 a6.25 6.25 0 1 0 -12.5 0z"
                fill="rgba(1, 235, 182, 1)"></path>
            <path d="M1212.5 212.5L1287.5 137.5" stroke-width="4.17" stroke="rgba(1, 235, 182, 1)"></path>
            <path
                d="M1206.25 212.5 a6.25 6.25 0 1 0 12.5 0 a6.25 6.25 0 1 0 -12.5 0zM1281.25 137.5 a6.25 6.25 0 1 0 12.5 0 a6.25 6.25 0 1 0 -12.5 0z"
                fill="rgba(1, 235, 182, 1)"></path>
            <path
                d="M637.5 237.5L587.5 237.5L562.5 212.5L537.5 212.5L512.5 237.5L512.5 262.5L537.5 287.5"
                stroke-width="4.17" stroke="rgba(1, 235, 182, 1)"></path>
            <path
                d="M631.25 237.5 a6.25 6.25 0 1 0 12.5 0 a6.25 6.25 0 1 0 -12.5 0zM531.25 287.5 a6.25 6.25 0 1 0 12.5 0 a6.25 6.25 0 1 0 -12.5 0z"
                fill="rgba(1, 235, 182, 1)"></path>
            <path d="M1387.5 187.5L1387.5 137.5L1362.5 112.5" stroke-width="4.17"
                stroke="rgba(1, 235, 182, 1)"></path>
            <path
                d="M1381.25 187.5 a6.25 6.25 0 1 0 12.5 0 a6.25 6.25 0 1 0 -12.5 0zM1356.25 112.5 a6.25 6.25 0 1 0 12.5 0 a6.25 6.25 0 1 0 -12.5 0z"
                fill="rgba(1, 235, 182, 1)"></path>
            <path d="M337.5 487.5L362.5 487.5L412.5 537.5" stroke-width="4.17"
                stroke="rgba(1, 235, 182, 1)"></path>
            <path
                d="M331.25 487.5 a6.25 6.25 0 1 0 12.5 0 a6.25 6.25 0 1 0 -12.5 0zM406.25 537.5 a6.25 6.25 0 1 0 12.5 0 a6.25 6.25 0 1 0 -12.5 0z"
                fill="rgba(1, 235, 182, 1)"></path>
            <path d="M712.5 37.5L712.5 62.5L737.5 87.5" stroke-width="4.17"
                stroke="rgba(1, 235, 182, 1)"></path>
            <path
                d="M706.25 37.5 a6.25 6.25 0 1 0 12.5 0 a6.25 6.25 0 1 0 -12.5 0zM731.25 87.5 a6.25 6.25 0 1 0 12.5 0 a6.25 6.25 0 1 0 -12.5 0z"
                fill="rgba(1, 235, 182, 1)"></path>
            <path d="M1187.5 412.5L1187.5 462.5" stroke-width="4.17" stroke="rgba(1, 235, 182, 1)"></path>
            <path
                d="M1181.25 412.5 a6.25 6.25 0 1 0 12.5 0 a6.25 6.25 0 1 0 -12.5 0zM1181.25 462.5 a6.25 6.25 0 1 0 12.5 0 a6.25 6.25 0 1 0 -12.5 0z"
                fill="rgba(1, 235, 182, 1)"></path>
            <path d="M812.5 287.5L737.5 287.5" stroke-width="4.17" stroke="rgba(1, 235, 182, 1)"></path>
            <path
                d="M806.25 287.5 a6.25 6.25 0 1 0 12.5 0 a6.25 6.25 0 1 0 -12.5 0zM731.25 287.5 a6.25 6.25 0 1 0 12.5 0 a6.25 6.25 0 1 0 -12.5 0z"
                fill="rgba(1, 235, 182, 1)"></path>
            <path d="M612.5 162.5L687.5 237.5" stroke-width="4.17" stroke="rgba(1, 235, 182, 1)"></path>
            <path
                d="M606.25 162.5 a6.25 6.25 0 1 0 12.5 0 a6.25 6.25 0 1 0 -12.5 0zM681.25 237.5 a6.25 6.25 0 1 0 12.5 0 a6.25 6.25 0 1 0 -12.5 0z"
                fill="rgba(1, 235, 182, 1)"></path>
            <path d="M862.5 362.5L862.5 387.5L837.5 412.5" stroke-width="4.17"
                stroke="rgba(1, 235, 182, 1)"></path>
            <path
                d="M856.25 362.5 a6.25 6.25 0 1 0 12.5 0 a6.25 6.25 0 1 0 -12.5 0zM831.25 412.5 a6.25 6.25 0 1 0 12.5 0 a6.25 6.25 0 1 0 -12.5 0z"
                fill="rgba(1, 235, 182, 1)"></path>
            <path d="M1237.5 62.5L1262.5 37.5L1287.5 37.5" stroke-width="4.17"
                stroke="rgba(1, 235, 182, 1)"></path>
            <path
                d="M1231.25 62.5 a6.25 6.25 0 1 0 12.5 0 a6.25 6.25 0 1 0 -12.5 0zM1281.25 37.5 a6.25 6.25 0 1 0 12.5 0 a6.25 6.25 0 1 0 -12.5 0z"
                fill="rgba(1, 235, 182, 1)"></path>
            <path d="M1087.5 512.5L1087.5 387.5L1137.5 337.5L1137.5 312.5L1112.5 287.5L1087.5 287.5"
                stroke-width="4.17" stroke="rgba(1, 235, 182, 1)"></path>
            <path
                d="M1081.25 512.5 a6.25 6.25 0 1 0 12.5 0 a6.25 6.25 0 1 0 -12.5 0zM1081.25 287.5 a6.25 6.25 0 1 0 12.5 0 a6.25 6.25 0 1 0 -12.5 0z"
                fill="rgba(1, 235, 182, 1)"></path>
            <path d="M587.5 212.5L637.5 212.5" stroke-width="4.17" stroke="rgba(1, 235, 182, 1)"></path>
            <path
                d="M581.25 212.5 a6.25 6.25 0 1 0 12.5 0 a6.25 6.25 0 1 0 -12.5 0zM631.25 212.5 a6.25 6.25 0 1 0 12.5 0 a6.25 6.25 0 1 0 -12.5 0z"
                fill="rgba(1, 235, 182, 1)"></path>
            <path d="M1237.5 287.5L1162.5 287.5" stroke-width="4.17" stroke="rgba(1, 235, 182, 1)"></path>
            <path
                d="M1231.25 287.5 a6.25 6.25 0 1 0 12.5 0 a6.25 6.25 0 1 0 -12.5 0zM1156.25 287.5 a6.25 6.25 0 1 0 12.5 0 a6.25 6.25 0 1 0 -12.5 0z"
                fill="rgba(1, 235, 182, 1)"></path>
            <path d="M137.5 387.5L162.5 387.5L187.5 412.5" stroke-width="4.17"
                stroke="rgba(1, 235, 182, 1)"></path>
            <path
                d="M131.25 387.5 a6.25 6.25 0 1 0 12.5 0 a6.25 6.25 0 1 0 -12.5 0zM181.25 412.5 a6.25 6.25 0 1 0 12.5 0 a6.25 6.25 0 1 0 -12.5 0z"
                fill="rgba(1, 235, 182, 1)"></path>
            <path d="M1137.5 362.5L1112.5 387.5L1112.5 512.5" stroke-width="4.17"
                stroke="rgba(1, 235, 182, 1)"></path>
            <path
                d="M1131.25 362.5 a6.25 6.25 0 1 0 12.5 0 a6.25 6.25 0 1 0 -12.5 0zM1106.25 512.5 a6.25 6.25 0 1 0 12.5 0 a6.25 6.25 0 1 0 -12.5 0z"
                fill="rgba(1, 235, 182, 1)"></path>
            <path d="M287.5 462.5L312.5 487.5L312.5 537.5" stroke-width="4.17"
                stroke="rgba(1, 235, 182, 1)"></path>
            <path
                d="M281.25 462.5 a6.25 6.25 0 1 0 12.5 0 a6.25 6.25 0 1 0 -12.5 0zM306.25 537.5 a6.25 6.25 0 1 0 12.5 0 a6.25 6.25 0 1 0 -12.5 0z"
                fill="rgba(1, 235, 182, 1)"></path>
            <path d="M112.5 462.5L137.5 487.5L137.5 512.5" stroke-width="4.17"
                stroke="rgba(1, 235, 182, 1)"></path>
            <path
                d="M106.25 462.5 a6.25 6.25 0 1 0 12.5 0 a6.25 6.25 0 1 0 -12.5 0zM131.25 512.5 a6.25 6.25 0 1 0 12.5 0 a6.25 6.25 0 1 0 -12.5 0z"
                fill="rgba(1, 235, 182, 1)"></path>
            <path d="M1237.5 212.5L1287.5 162.5L1312.5 162.5" stroke-width="4.17"
                stroke="rgba(1, 235, 182, 1)"></path>
            <path
                d="M1231.25 212.5 a6.25 6.25 0 1 0 12.5 0 a6.25 6.25 0 1 0 -12.5 0zM1306.25 162.5 a6.25 6.25 0 1 0 12.5 0 a6.25 6.25 0 1 0 -12.5 0z"
                fill="rgba(1, 235, 182, 1)"></path>
            <path d="M62.5 562.5L12.5 512.5" stroke-width="4.17" stroke="rgba(1, 235, 182, 1)"></path>
            <path
                d="M56.25 562.5 a6.25 6.25 0 1 0 12.5 0 a6.25 6.25 0 1 0 -12.5 0zM6.25 512.5 a6.25 6.25 0 1 0 12.5 0 a6.25 6.25 0 1 0 -12.5 0z"
                fill="rgba(1, 235, 182, 1)"></path>
            <path d="M212.5 87.5L237.5 112.5L287.5 112.5L312.5 87.5" stroke-width="4.17"
                stroke="rgba(1, 235, 182, 1)"></path>
            <path
                d="M206.25 87.5 a6.25 6.25 0 1 0 12.5 0 a6.25 6.25 0 1 0 -12.5 0zM306.25 87.5 a6.25 6.25 0 1 0 12.5 0 a6.25 6.25 0 1 0 -12.5 0z"
                fill="rgba(1, 235, 182, 1)"></path>
            <path d="M187.5 237.5L137.5 187.5" stroke-width="4.17" stroke="rgba(1, 235, 182, 1)"></path>
            <path
                d="M181.25 237.5 a6.25 6.25 0 1 0 12.5 0 a6.25 6.25 0 1 0 -12.5 0zM131.25 187.5 a6.25 6.25 0 1 0 12.5 0 a6.25 6.25 0 1 0 -12.5 0z"
                fill="rgba(1, 235, 182, 1)"></path>
            <path d="M387.5 337.5L412.5 337.5L437.5 362.5" stroke-width="4.17"
                stroke="rgba(1, 235, 182, 1)"></path>
            <path
                d="M381.25 337.5 a6.25 6.25 0 1 0 12.5 0 a6.25 6.25 0 1 0 -12.5 0zM431.25 362.5 a6.25 6.25 0 1 0 12.5 0 a6.25 6.25 0 1 0 -12.5 0z"
                fill="rgba(1, 235, 182, 1)"></path>
            <path d="M912.5 412.5L912.5 337.5" stroke-width="4.17" stroke="rgba(1, 235, 182, 1)"></path>
            <path
                d="M906.25 412.5 a6.25 6.25 0 1 0 12.5 0 a6.25 6.25 0 1 0 -12.5 0zM906.25 337.5 a6.25 6.25 0 1 0 12.5 0 a6.25 6.25 0 1 0 -12.5 0z"
                fill="rgba(1, 235, 182, 1)"></path>
            <path d="M962.5 312.5L962.5 387.5" stroke-width="4.17" stroke="rgba(1, 235, 182, 1)"></path>
            <path
                d="M956.25 312.5 a6.25 6.25 0 1 0 12.5 0 a6.25 6.25 0 1 0 -12.5 0zM956.25 387.5 a6.25 6.25 0 1 0 12.5 0 a6.25 6.25 0 1 0 -12.5 0z"
                fill="rgba(1, 235, 182, 1)"></path>
            <path d="M1312.5 237.5L1287.5 212.5L1287.5 187.5" stroke-width="4.17"
                stroke="rgba(1, 235, 182, 1)"></path>
            <path
                d="M1306.25 237.5 a6.25 6.25 0 1 0 12.5 0 a6.25 6.25 0 1 0 -12.5 0zM1281.25 187.5 a6.25 6.25 0 1 0 12.5 0 a6.25 6.25 0 1 0 -12.5 0z"
                fill="rgba(1, 235, 182, 1)"></path>
            <path d="M1037.5 312.5L1037.5 362.5" stroke-width="4.17" stroke="rgba(1, 235, 182, 1)"></path>
            <path
                d="M1031.25 312.5 a6.25 6.25 0 1 0 12.5 0 a6.25 6.25 0 1 0 -12.5 0zM1031.25 362.5 a6.25 6.25 0 1 0 12.5 0 a6.25 6.25 0 1 0 -12.5 0z"
                fill="rgba(1, 235, 182, 1)"></path>
            <path d="M112.5 12.5L112.5 62.5" stroke-width="4.17" stroke="rgba(1, 235, 182, 1)"></path>
            <path
                d="M106.25 12.5 a6.25 6.25 0 1 0 12.5 0 a6.25 6.25 0 1 0 -12.5 0zM106.25 62.5 a6.25 6.25 0 1 0 12.5 0 a6.25 6.25 0 1 0 -12.5 0z"
                fill="rgba(1, 235, 182, 1)"></path>
            <path d="M262.5 412.5L262.5 362.5" stroke-width="4.17" stroke="rgba(1, 235, 182, 1)"></path>
            <path
                d="M256.25 412.5 a6.25 6.25 0 1 0 12.5 0 a6.25 6.25 0 1 0 -12.5 0zM256.25 362.5 a6.25 6.25 0 1 0 12.5 0 a6.25 6.25 0 1 0 -12.5 0z"
                fill="rgba(1, 235, 182, 1)"></path>
            <path d="M1362.5 287.5L1287.5 287.5" stroke-width="4.17" stroke="rgba(1, 235, 182, 1)"></path>
            <path
                d="M1356.25 287.5 a6.25 6.25 0 1 0 12.5 0 a6.25 6.25 0 1 0 -12.5 0zM1281.25 287.5 a6.25 6.25 0 1 0 12.5 0 a6.25 6.25 0 1 0 -12.5 0z"
                fill="rgba(1, 235, 182, 1)"></path>
            <path d="M1162.5 562.5L1162.5 537.5L1187.5 512.5L1212.5 512.5" stroke-width="4.17"
                stroke="rgba(1, 235, 182, 1)"></path>
            <path
                d="M1156.25 562.5 a6.25 6.25 0 1 0 12.5 0 a6.25 6.25 0 1 0 -12.5 0zM1206.25 512.5 a6.25 6.25 0 1 0 12.5 0 a6.25 6.25 0 1 0 -12.5 0z"
                fill="rgba(1, 235, 182, 1)"></path>
            <path d="M362.5 437.5L337.5 412.5L337.5 387.5" stroke-width="4.17"
                stroke="rgba(1, 235, 182, 1)"></path>
            <path
                d="M356.25 437.5 a6.25 6.25 0 1 0 12.5 0 a6.25 6.25 0 1 0 -12.5 0zM331.25 387.5 a6.25 6.25 0 1 0 12.5 0 a6.25 6.25 0 1 0 -12.5 0z"
                fill="rgba(1, 235, 182, 1)"></path>
            <path d="M1162.5 12.5L1237.5 87.5" stroke-width="4.17" stroke="rgba(1, 235, 182, 1)"></path>
            <path
                d="M1156.25 12.5 a6.25 6.25 0 1 0 12.5 0 a6.25 6.25 0 1 0 -12.5 0zM1231.25 87.5 a6.25 6.25 0 1 0 12.5 0 a6.25 6.25 0 1 0 -12.5 0z"
                fill="rgba(1, 235, 182, 1)"></path>
            <path d="M1037.5 462.5L1037.5 437.5L1012.5 412.5" stroke-width="4.17"
                stroke="rgba(1, 235, 182, 1)"></path>
            <path
                d="M1031.25 462.5 a6.25 6.25 0 1 0 12.5 0 a6.25 6.25 0 1 0 -12.5 0zM1006.25 412.5 a6.25 6.25 0 1 0 12.5 0 a6.25 6.25 0 1 0 -12.5 0z"
                fill="rgba(1, 235, 182, 1)"></path>
            <path d="M362.5 162.5L312.5 212.5L287.5 212.5" stroke-width="4.17"
                stroke="rgba(1, 235, 182, 1)"></path>
            <path
                d="M356.25 162.5 a6.25 6.25 0 1 0 12.5 0 a6.25 6.25 0 1 0 -12.5 0zM281.25 212.5 a6.25 6.25 0 1 0 12.5 0 a6.25 6.25 0 1 0 -12.5 0z"
                fill="rgba(1, 235, 182, 1)"></path>
            <path d="M37.5 412.5L37.5 462.5" stroke-width="4.17" stroke="rgba(1, 235, 182, 1)"></path>
            <path
                d="M31.25 412.5 a6.25 6.25 0 1 0 12.5 0 a6.25 6.25 0 1 0 -12.5 0zM31.25 462.5 a6.25 6.25 0 1 0 12.5 0 a6.25 6.25 0 1 0 -12.5 0z"
                fill="rgba(1, 235, 182, 1)"></path>
            <path d="M1137.5 437.5L1137.5 387.5" stroke-width="4.17" stroke="rgba(1, 235, 182, 1)"></path>
            <path
                d="M1131.25 437.5 a6.25 6.25 0 1 0 12.5 0 a6.25 6.25 0 1 0 -12.5 0zM1131.25 387.5 a6.25 6.25 0 1 0 12.5 0 a6.25 6.25 0 1 0 -12.5 0z"
                fill="rgba(1, 235, 182, 1)"></path>
            <path d="M737.5 412.5L737.5 387.5L712.5 362.5" stroke-width="4.17"
                stroke="rgba(1, 235, 182, 1)"></path>
            <path
                d="M731.25 412.5 a6.25 6.25 0 1 0 12.5 0 a6.25 6.25 0 1 0 -12.5 0zM706.25 362.5 a6.25 6.25 0 1 0 12.5 0 a6.25 6.25 0 1 0 -12.5 0z"
                fill="rgba(1, 235, 182, 1)"></path>
            <path d="M1387.5 537.5L1437.5 537.5" stroke-width="4.17" stroke="rgba(1, 235, 182, 1)"></path>
            <path
                d="M1381.25 537.5 a6.25 6.25 0 1 0 12.5 0 a6.25 6.25 0 1 0 -12.5 0zM1431.25 537.5 a6.25 6.25 0 1 0 12.5 0 a6.25 6.25 0 1 0 -12.5 0z"
                fill="rgba(1, 235, 182, 1)"></path>
            <path d="M1362.5 312.5L1287.5 312.5" stroke-width="4.17" stroke="rgba(1, 235, 182, 1)"></path>
            <path
                d="M1356.25 312.5 a6.25 6.25 0 1 0 12.5 0 a6.25 6.25 0 1 0 -12.5 0zM1281.25 312.5 a6.25 6.25 0 1 0 12.5 0 a6.25 6.25 0 1 0 -12.5 0z"
                fill="rgba(1, 235, 182, 1)"></path>
            <path d="M1312.5 412.5L1287.5 412.5L1262.5 437.5" stroke-width="4.17"
                stroke="rgba(1, 235, 182, 1)"></path>
            <path
                d="M1306.25 412.5 a6.25 6.25 0 1 0 12.5 0 a6.25 6.25 0 1 0 -12.5 0zM1256.25 437.5 a6.25 6.25 0 1 0 12.5 0 a6.25 6.25 0 1 0 -12.5 0z"
                fill="rgba(1, 235, 182, 1)"></path>
            <path d="M1212.5 37.5L1237.5 37.5L1262.5 12.5L1287.5 12.5" stroke-width="4.17"
                stroke="rgba(1, 235, 182, 1)"></path>
            <path
                d="M1206.25 37.5 a6.25 6.25 0 1 0 12.5 0 a6.25 6.25 0 1 0 -12.5 0zM1281.25 12.5 a6.25 6.25 0 1 0 12.5 0 a6.25 6.25 0 1 0 -12.5 0z"
                fill="rgba(1, 235, 182, 1)"></path>
            <path d="M362.5 187.5L412.5 137.5" stroke-width="4.17" stroke="rgba(1, 235, 182, 1)"></path>
            <path
                d="M356.25 187.5 a6.25 6.25 0 1 0 12.5 0 a6.25 6.25 0 1 0 -12.5 0zM406.25 137.5 a6.25 6.25 0 1 0 12.5 0 a6.25 6.25 0 1 0 -12.5 0z"
                fill="rgba(1, 235, 182, 1)"></path>
            <path d="M512.5 62.5L487.5 62.5L462.5 87.5L412.5 87.5" stroke-width="4.17"
                stroke="rgba(1, 235, 182, 1)"></path>
            <path
                d="M506.25 62.5 a6.25 6.25 0 1 0 12.5 0 a6.25 6.25 0 1 0 -12.5 0zM406.25 87.5 a6.25 6.25 0 1 0 12.5 0 a6.25 6.25 0 1 0 -12.5 0z"
                fill="rgba(1, 235, 182, 1)"></path>
            <path d="M612.5 137.5L587.5 137.5L562.5 162.5" stroke-width="4.17"
                stroke="rgba(1, 235, 182, 1)"></path>
            <path
                d="M606.25 137.5 a6.25 6.25 0 1 0 12.5 0 a6.25 6.25 0 1 0 -12.5 0zM556.25 162.5 a6.25 6.25 0 1 0 12.5 0 a6.25 6.25 0 1 0 -12.5 0z"
                fill="rgba(1, 235, 182, 1)"></path>
            <path d="M62.5 312.5L137.5 312.5" stroke-width="4.17" stroke="rgba(1, 235, 182, 1)"></path>
            <path
                d="M56.25 312.5 a6.25 6.25 0 1 0 12.5 0 a6.25 6.25 0 1 0 -12.5 0zM131.25 312.5 a6.25 6.25 0 1 0 12.5 0 a6.25 6.25 0 1 0 -12.5 0z"
                fill="rgba(1, 235, 182, 1)"></path>
            <path d="M87.5 412.5L162.5 412.5" stroke-width="4.17" stroke="rgba(1, 235, 182, 1)"></path>
            <path
                d="M81.25 412.5 a6.25 6.25 0 1 0 12.5 0 a6.25 6.25 0 1 0 -12.5 0zM156.25 412.5 a6.25 6.25 0 1 0 12.5 0 a6.25 6.25 0 1 0 -12.5 0z"
                fill="rgba(1, 235, 182, 1)"></path>
            <path d="M512.5 512.5L562.5 512.5" stroke-width="4.17" stroke="rgba(1, 235, 182, 1)"></path>
            <path
                d="M506.25 512.5 a6.25 6.25 0 1 0 12.5 0 a6.25 6.25 0 1 0 -12.5 0zM556.25 512.5 a6.25 6.25 0 1 0 12.5 0 a6.25 6.25 0 1 0 -12.5 0z"
                fill="rgba(1, 235, 182, 1)"></path>
            <path d="M12.5 462.5L12.5 412.5" stroke-width="4.17" stroke="rgba(1, 235, 182, 1)"></path>
            <path
                d="M6.25 462.5 a6.25 6.25 0 1 0 12.5 0 a6.25 6.25 0 1 0 -12.5 0zM6.25 412.5 a6.25 6.25 0 1 0 12.5 0 a6.25 6.25 0 1 0 -12.5 0z"
                fill="rgba(1, 235, 182, 1)"></path>
        </g>
    </g>
    <defs>
        <mask id="SvgjsMask1048">
            <rect width="1440" height="560" fill="#ffffff"></rect>
        </mask>
        <mask id="SvgjsMask1049">
            <rect width="1440" height="560" fill="white"></rect>
            <path
                d="M459.37 237.5 a3.13 3.13 0 1 0 6.26 0 a3.13 3.13 0 1 0 -6.26 0zM934.37 112.5 a3.13 3.13 0 1 0 6.26 0 a3.13 3.13 0 1 0 -6.26 0z"
                fill="black"></path>
            <path
                d="M809.37 512.5 a3.13 3.13 0 1 0 6.26 0 a3.13 3.13 0 1 0 -6.26 0zM1284.37 387.5 a3.13 3.13 0 1 0 6.26 0 a3.13 3.13 0 1 0 -6.26 0z"
                fill="black"></path>
            <path
                d="M884.37 312.5 a3.13 3.13 0 1 0 6.26 0 a3.13 3.13 0 1 0 -6.26 0zM784.37 562.5 a3.13 3.13 0 1 0 6.26 0 a3.13 3.13 0 1 0 -6.26 0z"
                fill="black"></path>
            <path
                d="M934.37 187.5 a3.13 3.13 0 1 0 6.26 0 a3.13 3.13 0 1 0 -6.26 0zM634.37 87.5 a3.13 3.13 0 1 0 6.26 0 a3.13 3.13 0 1 0 -6.26 0z"
                fill="black"></path>
            <path
                d="M9.37 487.5 a3.13 3.13 0 1 0 6.26 0 a3.13 3.13 0 1 0 -6.26 0zM484.37 562.5 a3.13 3.13 0 1 0 6.26 0 a3.13 3.13 0 1 0 -6.26 0z"
                fill="black"></path>
            <path
                d="M409.37 237.5 a3.13 3.13 0 1 0 6.26 0 a3.13 3.13 0 1 0 -6.26 0zM9.37 312.5 a3.13 3.13 0 1 0 6.26 0 a3.13 3.13 0 1 0 -6.26 0z"
                fill="black"></path>
            <path
                d="M934.37 287.5 a3.13 3.13 0 1 0 6.26 0 a3.13 3.13 0 1 0 -6.26 0zM1159.37 362.5 a3.13 3.13 0 1 0 6.26 0 a3.13 3.13 0 1 0 -6.26 0z"
                fill="black"></path>
            <path
                d="M559.37 412.5 a3.13 3.13 0 1 0 6.26 0 a3.13 3.13 0 1 0 -6.26 0zM1034.37 212.5 a3.13 3.13 0 1 0 6.26 0 a3.13 3.13 0 1 0 -6.26 0z"
                fill="black"></path>
            <path
                d="M709.37 562.5 a3.13 3.13 0 1 0 6.26 0 a3.13 3.13 0 1 0 -6.26 0zM234.37 262.5 a3.13 3.13 0 1 0 6.26 0 a3.13 3.13 0 1 0 -6.26 0z"
                fill="black"></path>
            <path
                d="M1309.37 12.5 a3.13 3.13 0 1 0 6.26 0 a3.13 3.13 0 1 0 -6.26 0zM1409.37 487.5 a3.13 3.13 0 1 0 6.26 0 a3.13 3.13 0 1 0 -6.26 0z"
                fill="black"></path>
            <path
                d="M1209.37 137.5 a3.13 3.13 0 1 0 6.26 0 a3.13 3.13 0 1 0 -6.26 0zM759.37 12.5 a3.13 3.13 0 1 0 6.26 0 a3.13 3.13 0 1 0 -6.26 0z"
                fill="black"></path>
            <path
                d="M209.37 337.5 a3.13 3.13 0 1 0 6.26 0 a3.13 3.13 0 1 0 -6.26 0zM84.37 212.5 a3.13 3.13 0 1 0 6.26 0 a3.13 3.13 0 1 0 -6.26 0z"
                fill="black"></path>
            <path
                d="M634.37 462.5 a3.13 3.13 0 1 0 6.26 0 a3.13 3.13 0 1 0 -6.26 0zM759.37 537.5 a3.13 3.13 0 1 0 6.26 0 a3.13 3.13 0 1 0 -6.26 0z"
                fill="black"></path>
            <path
                d="M984.37 162.5 a3.13 3.13 0 1 0 6.26 0 a3.13 3.13 0 1 0 -6.26 0zM659.37 62.5 a3.13 3.13 0 1 0 6.26 0 a3.13 3.13 0 1 0 -6.26 0z"
                fill="black"></path>
            <path
                d="M809.37 237.5 a3.13 3.13 0 1 0 6.26 0 a3.13 3.13 0 1 0 -6.26 0zM1284.37 237.5 a3.13 3.13 0 1 0 6.26 0 a3.13 3.13 0 1 0 -6.26 0z"
                fill="black"></path>
            <path
                d="M134.37 137.5 a3.13 3.13 0 1 0 6.26 0 a3.13 3.13 0 1 0 -6.26 0zM609.37 12.5 a3.13 3.13 0 1 0 6.26 0 a3.13 3.13 0 1 0 -6.26 0z"
                fill="black"></path>
            <path
                d="M959.37 87.5 a3.13 3.13 0 1 0 6.26 0 a3.13 3.13 0 1 0 -6.26 0zM1409.37 137.5 a3.13 3.13 0 1 0 6.26 0 a3.13 3.13 0 1 0 -6.26 0z"
                fill="black"></path>
            <path
                d="M209.37 487.5 a3.13 3.13 0 1 0 6.26 0 a3.13 3.13 0 1 0 -6.26 0zM384.37 287.5 a3.13 3.13 0 1 0 6.26 0 a3.13 3.13 0 1 0 -6.26 0z"
                fill="black"></path>
            <path
                d="M1334.37 162.5 a3.13 3.13 0 1 0 6.26 0 a3.13 3.13 0 1 0 -6.26 0zM1284.37 112.5 a3.13 3.13 0 1 0 6.26 0 a3.13 3.13 0 1 0 -6.26 0z"
                fill="black"></path>
            <path
                d="M159.37 37.5 a3.13 3.13 0 1 0 6.26 0 a3.13 3.13 0 1 0 -6.26 0zM234.37 12.5 a3.13 3.13 0 1 0 6.26 0 a3.13 3.13 0 1 0 -6.26 0z"
                fill="black"></path>
            <path
                d="M209.37 137.5 a3.13 3.13 0 1 0 6.26 0 a3.13 3.13 0 1 0 -6.26 0zM609.37 62.5 a3.13 3.13 0 1 0 6.26 0 a3.13 3.13 0 1 0 -6.26 0z"
                fill="black"></path>
            <path
                d="M159.37 462.5 a3.13 3.13 0 1 0 6.26 0 a3.13 3.13 0 1 0 -6.26 0zM159.37 537.5 a3.13 3.13 0 1 0 6.26 0 a3.13 3.13 0 1 0 -6.26 0z"
                fill="black"></path>
            <path
                d="M309.37 412.5 a3.13 3.13 0 1 0 6.26 0 a3.13 3.13 0 1 0 -6.26 0zM609.37 512.5 a3.13 3.13 0 1 0 6.26 0 a3.13 3.13 0 1 0 -6.26 0z"
                fill="black"></path>
            <path
                d="M1309.37 512.5 a3.13 3.13 0 1 0 6.26 0 a3.13 3.13 0 1 0 -6.26 0zM1434.37 562.5 a3.13 3.13 0 1 0 6.26 0 a3.13 3.13 0 1 0 -6.26 0z"
                fill="black"></path>
            <path
                d="M534.37 137.5 a3.13 3.13 0 1 0 6.26 0 a3.13 3.13 0 1 0 -6.26 0zM534.37 62.5 a3.13 3.13 0 1 0 6.26 0 a3.13 3.13 0 1 0 -6.26 0z"
                fill="black"></path>
            <path
                d="M834.37 87.5 a3.13 3.13 0 1 0 6.26 0 a3.13 3.13 0 1 0 -6.26 0zM1084.37 162.5 a3.13 3.13 0 1 0 6.26 0 a3.13 3.13 0 1 0 -6.26 0z"
                fill="black"></path>
            <path
                d="M1359.37 187.5 a3.13 3.13 0 1 0 6.26 0 a3.13 3.13 0 1 0 -6.26 0zM1209.37 487.5 a3.13 3.13 0 1 0 6.26 0 a3.13 3.13 0 1 0 -6.26 0z"
                fill="black"></path>
            <path
                d="M1059.37 137.5 a3.13 3.13 0 1 0 6.26 0 a3.13 3.13 0 1 0 -6.26 0zM1159.37 137.5 a3.13 3.13 0 1 0 6.26 0 a3.13 3.13 0 1 0 -6.26 0z"
                fill="black"></path>
            <path
                d="M859.37 437.5 a3.13 3.13 0 1 0 6.26 0 a3.13 3.13 0 1 0 -6.26 0zM809.37 487.5 a3.13 3.13 0 1 0 6.26 0 a3.13 3.13 0 1 0 -6.26 0z"
                fill="black"></path>
            <path
                d="M434.37 137.5 a3.13 3.13 0 1 0 6.26 0 a3.13 3.13 0 1 0 -6.26 0zM559.37 387.5 a3.13 3.13 0 1 0 6.26 0 a3.13 3.13 0 1 0 -6.26 0z"
                fill="black"></path>
            <path
                d="M1284.37 537.5 a3.13 3.13 0 1 0 6.26 0 a3.13 3.13 0 1 0 -6.26 0zM1334.37 562.5 a3.13 3.13 0 1 0 6.26 0 a3.13 3.13 0 1 0 -6.26 0z"
                fill="black"></path>
            <path
                d="M1059.37 87.5 a3.13 3.13 0 1 0 6.26 0 a3.13 3.13 0 1 0 -6.26 0zM984.37 62.5 a3.13 3.13 0 1 0 6.26 0 a3.13 3.13 0 1 0 -6.26 0z"
                fill="black"></path>
            <path
                d="M59.37 187.5 a3.13 3.13 0 1 0 6.26 0 a3.13 3.13 0 1 0 -6.26 0zM184.37 62.5 a3.13 3.13 0 1 0 6.26 0 a3.13 3.13 0 1 0 -6.26 0z"
                fill="black"></path>
            <path
                d="M309.37 62.5 a3.13 3.13 0 1 0 6.26 0 a3.13 3.13 0 1 0 -6.26 0zM359.37 37.5 a3.13 3.13 0 1 0 6.26 0 a3.13 3.13 0 1 0 -6.26 0z"
                fill="black"></path>
            <path
                d="M709.37 237.5 a3.13 3.13 0 1 0 6.26 0 a3.13 3.13 0 1 0 -6.26 0zM584.37 362.5 a3.13 3.13 0 1 0 6.26 0 a3.13 3.13 0 1 0 -6.26 0z"
                fill="black"></path>
            <path
                d="M284.37 512.5 a3.13 3.13 0 1 0 6.26 0 a3.13 3.13 0 1 0 -6.26 0zM184.37 537.5 a3.13 3.13 0 1 0 6.26 0 a3.13 3.13 0 1 0 -6.26 0z"
                fill="black"></path>
            <path
                d="M584.37 412.5 a3.13 3.13 0 1 0 6.26 0 a3.13 3.13 0 1 0 -6.26 0zM1059.37 262.5 a3.13 3.13 0 1 0 6.26 0 a3.13 3.13 0 1 0 -6.26 0z"
                fill="black"></path>
            <path
                d="M34.37 112.5 a3.13 3.13 0 1 0 6.26 0 a3.13 3.13 0 1 0 -6.26 0zM34.37 212.5 a3.13 3.13 0 1 0 6.26 0 a3.13 3.13 0 1 0 -6.26 0z"
                fill="black"></path>
            <path
                d="M1184.37 362.5 a3.13 3.13 0 1 0 6.26 0 a3.13 3.13 0 1 0 -6.26 0zM1384.37 362.5 a3.13 3.13 0 1 0 6.26 0 a3.13 3.13 0 1 0 -6.26 0z"
                fill="black"></path>
            <path
                d="M634.37 387.5 a3.13 3.13 0 1 0 6.26 0 a3.13 3.13 0 1 0 -6.26 0zM584.37 437.5 a3.13 3.13 0 1 0 6.26 0 a3.13 3.13 0 1 0 -6.26 0z"
                fill="black"></path>
            <path
                d="M1234.37 562.5 a3.13 3.13 0 1 0 6.26 0 a3.13 3.13 0 1 0 -6.26 0zM1234.37 487.5 a3.13 3.13 0 1 0 6.26 0 a3.13 3.13 0 1 0 -6.26 0z"
                fill="black"></path>
            <path
                d="M809.37 362.5 a3.13 3.13 0 1 0 6.26 0 a3.13 3.13 0 1 0 -6.26 0zM759.37 512.5 a3.13 3.13 0 1 0 6.26 0 a3.13 3.13 0 1 0 -6.26 0z"
                fill="black"></path>
            <path
                d="M259.37 337.5 a3.13 3.13 0 1 0 6.26 0 a3.13 3.13 0 1 0 -6.26 0zM359.37 287.5 a3.13 3.13 0 1 0 6.26 0 a3.13 3.13 0 1 0 -6.26 0z"
                fill="black"></path>
            <path
                d="M784.37 387.5 a3.13 3.13 0 1 0 6.26 0 a3.13 3.13 0 1 0 -6.26 0zM684.37 487.5 a3.13 3.13 0 1 0 6.26 0 a3.13 3.13 0 1 0 -6.26 0z"
                fill="black"></path>
            <path
                d="M1134.37 287.5 a3.13 3.13 0 1 0 6.26 0 a3.13 3.13 0 1 0 -6.26 0zM1384.37 337.5 a3.13 3.13 0 1 0 6.26 0 a3.13 3.13 0 1 0 -6.26 0z"
                fill="black"></path>
            <path
                d="M559.37 237.5 a3.13 3.13 0 1 0 6.26 0 a3.13 3.13 0 1 0 -6.26 0zM559.37 337.5 a3.13 3.13 0 1 0 6.26 0 a3.13 3.13 0 1 0 -6.26 0z"
                fill="black"></path>
            <path
                d="M384.37 87.5 a3.13 3.13 0 1 0 6.26 0 a3.13 3.13 0 1 0 -6.26 0zM509.37 112.5 a3.13 3.13 0 1 0 6.26 0 a3.13 3.13 0 1 0 -6.26 0z"
                fill="black"></path>
            <path
                d="M1334.37 137.5 a3.13 3.13 0 1 0 6.26 0 a3.13 3.13 0 1 0 -6.26 0zM1334.37 87.5 a3.13 3.13 0 1 0 6.26 0 a3.13 3.13 0 1 0 -6.26 0z"
                fill="black"></path>
            <path
                d="M284.37 487.5 a3.13 3.13 0 1 0 6.26 0 a3.13 3.13 0 1 0 -6.26 0zM184.37 512.5 a3.13 3.13 0 1 0 6.26 0 a3.13 3.13 0 1 0 -6.26 0z"
                fill="black"></path>
            <path
                d="M784.37 412.5 a3.13 3.13 0 1 0 6.26 0 a3.13 3.13 0 1 0 -6.26 0zM734.37 462.5 a3.13 3.13 0 1 0 6.26 0 a3.13 3.13 0 1 0 -6.26 0z"
                fill="black"></path>
            <path
                d="M334.37 312.5 a3.13 3.13 0 1 0 6.26 0 a3.13 3.13 0 1 0 -6.26 0zM109.37 187.5 a3.13 3.13 0 1 0 6.26 0 a3.13 3.13 0 1 0 -6.26 0z"
                fill="black"></path>
            <path
                d="M1084.37 362.5 a3.13 3.13 0 1 0 6.26 0 a3.13 3.13 0 1 0 -6.26 0zM1384.37 262.5 a3.13 3.13 0 1 0 6.26 0 a3.13 3.13 0 1 0 -6.26 0z"
                fill="black"></path>
            <path
                d="M459.37 387.5 a3.13 3.13 0 1 0 6.26 0 a3.13 3.13 0 1 0 -6.26 0zM384.37 462.5 a3.13 3.13 0 1 0 6.26 0 a3.13 3.13 0 1 0 -6.26 0z"
                fill="black"></path>
            <path
                d="M84.37 112.5 a3.13 3.13 0 1 0 6.26 0 a3.13 3.13 0 1 0 -6.26 0zM159.37 62.5 a3.13 3.13 0 1 0 6.26 0 a3.13 3.13 0 1 0 -6.26 0z"
                fill="black"></path>
            <path
                d="M609.37 462.5 a3.13 3.13 0 1 0 6.26 0 a3.13 3.13 0 1 0 -6.26 0zM859.37 337.5 a3.13 3.13 0 1 0 6.26 0 a3.13 3.13 0 1 0 -6.26 0z"
                fill="black"></path>
            <path
                d="M759.37 87.5 a3.13 3.13 0 1 0 6.26 0 a3.13 3.13 0 1 0 -6.26 0zM909.37 137.5 a3.13 3.13 0 1 0 6.26 0 a3.13 3.13 0 1 0 -6.26 0z"
                fill="black"></path>
            <path
                d="M1059.37 387.5 a3.13 3.13 0 1 0 6.26 0 a3.13 3.13 0 1 0 -6.26 0zM1059.37 512.5 a3.13 3.13 0 1 0 6.26 0 a3.13 3.13 0 1 0 -6.26 0z"
                fill="black"></path>
            <path
                d="M984.37 312.5 a3.13 3.13 0 1 0 6.26 0 a3.13 3.13 0 1 0 -6.26 0zM1034.37 487.5 a3.13 3.13 0 1 0 6.26 0 a3.13 3.13 0 1 0 -6.26 0z"
                fill="black"></path>
            <path
                d="M484.37 137.5 a3.13 3.13 0 1 0 6.26 0 a3.13 3.13 0 1 0 -6.26 0zM459.37 212.5 a3.13 3.13 0 1 0 6.26 0 a3.13 3.13 0 1 0 -6.26 0z"
                fill="black"></path>
            <path
                d="M234.37 312.5 a3.13 3.13 0 1 0 6.26 0 a3.13 3.13 0 1 0 -6.26 0zM184.37 487.5 a3.13 3.13 0 1 0 6.26 0 a3.13 3.13 0 1 0 -6.26 0z"
                fill="black"></path>
            <path
                d="M1434.37 37.5 a3.13 3.13 0 1 0 6.26 0 a3.13 3.13 0 1 0 -6.26 0zM1434.37 112.5 a3.13 3.13 0 1 0 6.26 0 a3.13 3.13 0 1 0 -6.26 0z"
                fill="black"></path>
            <path
                d="M659.37 162.5 a3.13 3.13 0 1 0 6.26 0 a3.13 3.13 0 1 0 -6.26 0zM734.37 212.5 a3.13 3.13 0 1 0 6.26 0 a3.13 3.13 0 1 0 -6.26 0z"
                fill="black"></path>
            <path
                d="M9.37 62.5 a3.13 3.13 0 1 0 6.26 0 a3.13 3.13 0 1 0 -6.26 0zM134.37 12.5 a3.13 3.13 0 1 0 6.26 0 a3.13 3.13 0 1 0 -6.26 0z"
                fill="black"></path>
            <path
                d="M1259.37 62.5 a3.13 3.13 0 1 0 6.26 0 a3.13 3.13 0 1 0 -6.26 0zM1109.37 12.5 a3.13 3.13 0 1 0 6.26 0 a3.13 3.13 0 1 0 -6.26 0z"
                fill="black"></path>
            <path
                d="M1434.37 12.5 a3.13 3.13 0 1 0 6.26 0 a3.13 3.13 0 1 0 -6.26 0zM1384.37 62.5 a3.13 3.13 0 1 0 6.26 0 a3.13 3.13 0 1 0 -6.26 0z"
                fill="black"></path>
            <path
                d="M509.37 437.5 a3.13 3.13 0 1 0 6.26 0 a3.13 3.13 0 1 0 -6.26 0zM584.37 512.5 a3.13 3.13 0 1 0 6.26 0 a3.13 3.13 0 1 0 -6.26 0z"
                fill="black"></path>
            <path
                d="M809.37 312.5 a3.13 3.13 0 1 0 6.26 0 a3.13 3.13 0 1 0 -6.26 0zM709.37 312.5 a3.13 3.13 0 1 0 6.26 0 a3.13 3.13 0 1 0 -6.26 0z"
                fill="black"></path>
            <path
                d="M459.37 62.5 a3.13 3.13 0 1 0 6.26 0 a3.13 3.13 0 1 0 -6.26 0zM384.37 62.5 a3.13 3.13 0 1 0 6.26 0 a3.13 3.13 0 1 0 -6.26 0z"
                fill="black"></path>
            <path
                d="M859.37 487.5 a3.13 3.13 0 1 0 6.26 0 a3.13 3.13 0 1 0 -6.26 0zM1034.37 537.5 a3.13 3.13 0 1 0 6.26 0 a3.13 3.13 0 1 0 -6.26 0z"
                fill="black"></path>
            <path
                d="M1334.37 462.5 a3.13 3.13 0 1 0 6.26 0 a3.13 3.13 0 1 0 -6.26 0zM1334.37 387.5 a3.13 3.13 0 1 0 6.26 0 a3.13 3.13 0 1 0 -6.26 0z"
                fill="black"></path>
            <path
                d="M184.37 437.5 a3.13 3.13 0 1 0 6.26 0 a3.13 3.13 0 1 0 -6.26 0zM59.37 387.5 a3.13 3.13 0 1 0 6.26 0 a3.13 3.13 0 1 0 -6.26 0z"
                fill="black"></path>
            <path
                d="M959.37 512.5 a3.13 3.13 0 1 0 6.26 0 a3.13 3.13 0 1 0 -6.26 0zM1009.37 537.5 a3.13 3.13 0 1 0 6.26 0 a3.13 3.13 0 1 0 -6.26 0z"
                fill="black"></path>
            <path
                d="M534.37 487.5 a3.13 3.13 0 1 0 6.26 0 a3.13 3.13 0 1 0 -6.26 0zM459.37 412.5 a3.13 3.13 0 1 0 6.26 0 a3.13 3.13 0 1 0 -6.26 0z"
                fill="black"></path>
            <path
                d="M334.37 462.5 a3.13 3.13 0 1 0 6.26 0 a3.13 3.13 0 1 0 -6.26 0zM234.37 487.5 a3.13 3.13 0 1 0 6.26 0 a3.13 3.13 0 1 0 -6.26 0z"
                fill="black"></path>
            <path
                d="M309.37 312.5 a3.13 3.13 0 1 0 6.26 0 a3.13 3.13 0 1 0 -6.26 0zM259.37 312.5 a3.13 3.13 0 1 0 6.26 0 a3.13 3.13 0 1 0 -6.26 0z"
                fill="black"></path>
            <path
                d="M259.37 62.5 a3.13 3.13 0 1 0 6.26 0 a3.13 3.13 0 1 0 -6.26 0zM334.37 37.5 a3.13 3.13 0 1 0 6.26 0 a3.13 3.13 0 1 0 -6.26 0z"
                fill="black"></path>
            <path
                d="M359.37 387.5 a3.13 3.13 0 1 0 6.26 0 a3.13 3.13 0 1 0 -6.26 0zM459.37 362.5 a3.13 3.13 0 1 0 6.26 0 a3.13 3.13 0 1 0 -6.26 0z"
                fill="black"></path>
            <path
                d="M559.37 562.5 a3.13 3.13 0 1 0 6.26 0 a3.13 3.13 0 1 0 -6.26 0zM509.37 562.5 a3.13 3.13 0 1 0 6.26 0 a3.13 3.13 0 1 0 -6.26 0z"
                fill="black"></path>
            <path
                d="M609.37 187.5 a3.13 3.13 0 1 0 6.26 0 a3.13 3.13 0 1 0 -6.26 0zM534.37 312.5 a3.13 3.13 0 1 0 6.26 0 a3.13 3.13 0 1 0 -6.26 0z"
                fill="black"></path>
            <path
                d="M634.37 437.5 a3.13 3.13 0 1 0 6.26 0 a3.13 3.13 0 1 0 -6.26 0zM684.37 462.5 a3.13 3.13 0 1 0 6.26 0 a3.13 3.13 0 1 0 -6.26 0z"
                fill="black"></path>
            <path
                d="M1334.37 12.5 a3.13 3.13 0 1 0 6.26 0 a3.13 3.13 0 1 0 -6.26 0zM1409.37 12.5 a3.13 3.13 0 1 0 6.26 0 a3.13 3.13 0 1 0 -6.26 0z"
                fill="black"></path>
            <path
                d="M584.37 562.5 a3.13 3.13 0 1 0 6.26 0 a3.13 3.13 0 1 0 -6.26 0zM659.37 562.5 a3.13 3.13 0 1 0 6.26 0 a3.13 3.13 0 1 0 -6.26 0z"
                fill="black"></path>
            <path
                d="M34.37 512.5 a3.13 3.13 0 1 0 6.26 0 a3.13 3.13 0 1 0 -6.26 0zM84.37 512.5 a3.13 3.13 0 1 0 6.26 0 a3.13 3.13 0 1 0 -6.26 0z"
                fill="black"></path>
            <path
                d="M159.37 137.5 a3.13 3.13 0 1 0 6.26 0 a3.13 3.13 0 1 0 -6.26 0zM359.37 87.5 a3.13 3.13 0 1 0 6.26 0 a3.13 3.13 0 1 0 -6.26 0z"
                fill="black"></path>
            <path
                d="M109.37 337.5 a3.13 3.13 0 1 0 6.26 0 a3.13 3.13 0 1 0 -6.26 0zM34.37 337.5 a3.13 3.13 0 1 0 6.26 0 a3.13 3.13 0 1 0 -6.26 0z"
                fill="black"></path>
            <path
                d="M1084.37 62.5 a3.13 3.13 0 1 0 6.26 0 a3.13 3.13 0 1 0 -6.26 0zM1134.37 112.5 a3.13 3.13 0 1 0 6.26 0 a3.13 3.13 0 1 0 -6.26 0z"
                fill="black"></path>
            <path
                d="M1034.37 412.5 a3.13 3.13 0 1 0 6.26 0 a3.13 3.13 0 1 0 -6.26 0zM1034.37 287.5 a3.13 3.13 0 1 0 6.26 0 a3.13 3.13 0 1 0 -6.26 0z"
                fill="black"></path>
            <path
                d="M309.37 187.5 a3.13 3.13 0 1 0 6.26 0 a3.13 3.13 0 1 0 -6.26 0zM384.37 112.5 a3.13 3.13 0 1 0 6.26 0 a3.13 3.13 0 1 0 -6.26 0z"
                fill="black"></path>
            <path
                d="M984.37 537.5 a3.13 3.13 0 1 0 6.26 0 a3.13 3.13 0 1 0 -6.26 0zM884.37 512.5 a3.13 3.13 0 1 0 6.26 0 a3.13 3.13 0 1 0 -6.26 0z"
                fill="black"></path>
            <path
                d="M834.37 62.5 a3.13 3.13 0 1 0 6.26 0 a3.13 3.13 0 1 0 -6.26 0zM784.37 37.5 a3.13 3.13 0 1 0 6.26 0 a3.13 3.13 0 1 0 -6.26 0z"
                fill="black"></path>
            <path
                d="M1334.37 187.5 a3.13 3.13 0 1 0 6.26 0 a3.13 3.13 0 1 0 -6.26 0zM1334.37 237.5 a3.13 3.13 0 1 0 6.26 0 a3.13 3.13 0 1 0 -6.26 0z"
                fill="black"></path>
            <path
                d="M1359.37 387.5 a3.13 3.13 0 1 0 6.26 0 a3.13 3.13 0 1 0 -6.26 0zM1359.37 487.5 a3.13 3.13 0 1 0 6.26 0 a3.13 3.13 0 1 0 -6.26 0z"
                fill="black"></path>
            <path
                d="M434.37 437.5 a3.13 3.13 0 1 0 6.26 0 a3.13 3.13 0 1 0 -6.26 0zM484.37 512.5 a3.13 3.13 0 1 0 6.26 0 a3.13 3.13 0 1 0 -6.26 0z"
                fill="black"></path>
            <path
                d="M1209.37 212.5 a3.13 3.13 0 1 0 6.26 0 a3.13 3.13 0 1 0 -6.26 0zM1284.37 137.5 a3.13 3.13 0 1 0 6.26 0 a3.13 3.13 0 1 0 -6.26 0z"
                fill="black"></path>
            <path
                d="M634.37 237.5 a3.13 3.13 0 1 0 6.26 0 a3.13 3.13 0 1 0 -6.26 0zM534.37 287.5 a3.13 3.13 0 1 0 6.26 0 a3.13 3.13 0 1 0 -6.26 0z"
                fill="black"></path>
            <path
                d="M1384.37 187.5 a3.13 3.13 0 1 0 6.26 0 a3.13 3.13 0 1 0 -6.26 0zM1359.37 112.5 a3.13 3.13 0 1 0 6.26 0 a3.13 3.13 0 1 0 -6.26 0z"
                fill="black"></path>
            <path
                d="M334.37 487.5 a3.13 3.13 0 1 0 6.26 0 a3.13 3.13 0 1 0 -6.26 0zM409.37 537.5 a3.13 3.13 0 1 0 6.26 0 a3.13 3.13 0 1 0 -6.26 0z"
                fill="black"></path>
            <path
                d="M709.37 37.5 a3.13 3.13 0 1 0 6.26 0 a3.13 3.13 0 1 0 -6.26 0zM734.37 87.5 a3.13 3.13 0 1 0 6.26 0 a3.13 3.13 0 1 0 -6.26 0z"
                fill="black"></path>
            <path
                d="M1184.37 412.5 a3.13 3.13 0 1 0 6.26 0 a3.13 3.13 0 1 0 -6.26 0zM1184.37 462.5 a3.13 3.13 0 1 0 6.26 0 a3.13 3.13 0 1 0 -6.26 0z"
                fill="black"></path>
            <path
                d="M809.37 287.5 a3.13 3.13 0 1 0 6.26 0 a3.13 3.13 0 1 0 -6.26 0zM734.37 287.5 a3.13 3.13 0 1 0 6.26 0 a3.13 3.13 0 1 0 -6.26 0z"
                fill="black"></path>
            <path
                d="M609.37 162.5 a3.13 3.13 0 1 0 6.26 0 a3.13 3.13 0 1 0 -6.26 0zM684.37 237.5 a3.13 3.13 0 1 0 6.26 0 a3.13 3.13 0 1 0 -6.26 0z"
                fill="black"></path>
            <path
                d="M859.37 362.5 a3.13 3.13 0 1 0 6.26 0 a3.13 3.13 0 1 0 -6.26 0zM834.37 412.5 a3.13 3.13 0 1 0 6.26 0 a3.13 3.13 0 1 0 -6.26 0z"
                fill="black"></path>
            <path
                d="M1234.37 62.5 a3.13 3.13 0 1 0 6.26 0 a3.13 3.13 0 1 0 -6.26 0zM1284.37 37.5 a3.13 3.13 0 1 0 6.26 0 a3.13 3.13 0 1 0 -6.26 0z"
                fill="black"></path>
            <path
                d="M1084.37 512.5 a3.13 3.13 0 1 0 6.26 0 a3.13 3.13 0 1 0 -6.26 0zM1084.37 287.5 a3.13 3.13 0 1 0 6.26 0 a3.13 3.13 0 1 0 -6.26 0z"
                fill="black"></path>
            <path
                d="M584.37 212.5 a3.13 3.13 0 1 0 6.26 0 a3.13 3.13 0 1 0 -6.26 0zM634.37 212.5 a3.13 3.13 0 1 0 6.26 0 a3.13 3.13 0 1 0 -6.26 0z"
                fill="black"></path>
            <path
                d="M1234.37 287.5 a3.13 3.13 0 1 0 6.26 0 a3.13 3.13 0 1 0 -6.26 0zM1159.37 287.5 a3.13 3.13 0 1 0 6.26 0 a3.13 3.13 0 1 0 -6.26 0z"
                fill="black"></path>
            <path
                d="M134.37 387.5 a3.13 3.13 0 1 0 6.26 0 a3.13 3.13 0 1 0 -6.26 0zM184.37 412.5 a3.13 3.13 0 1 0 6.26 0 a3.13 3.13 0 1 0 -6.26 0z"
                fill="black"></path>
            <path
                d="M1134.37 362.5 a3.13 3.13 0 1 0 6.26 0 a3.13 3.13 0 1 0 -6.26 0zM1109.37 512.5 a3.13 3.13 0 1 0 6.26 0 a3.13 3.13 0 1 0 -6.26 0z"
                fill="black"></path>
            <path
                d="M284.37 462.5 a3.13 3.13 0 1 0 6.26 0 a3.13 3.13 0 1 0 -6.26 0zM309.37 537.5 a3.13 3.13 0 1 0 6.26 0 a3.13 3.13 0 1 0 -6.26 0z"
                fill="black"></path>
            <path
                d="M109.37 462.5 a3.13 3.13 0 1 0 6.26 0 a3.13 3.13 0 1 0 -6.26 0zM134.37 512.5 a3.13 3.13 0 1 0 6.26 0 a3.13 3.13 0 1 0 -6.26 0z"
                fill="black"></path>
            <path
                d="M1234.37 212.5 a3.13 3.13 0 1 0 6.26 0 a3.13 3.13 0 1 0 -6.26 0zM1309.37 162.5 a3.13 3.13 0 1 0 6.26 0 a3.13 3.13 0 1 0 -6.26 0z"
                fill="black"></path>
            <path
                d="M59.37 562.5 a3.13 3.13 0 1 0 6.26 0 a3.13 3.13 0 1 0 -6.26 0zM9.37 512.5 a3.13 3.13 0 1 0 6.26 0 a3.13 3.13 0 1 0 -6.26 0z"
                fill="black"></path>
            <path
                d="M209.37 87.5 a3.13 3.13 0 1 0 6.26 0 a3.13 3.13 0 1 0 -6.26 0zM309.37 87.5 a3.13 3.13 0 1 0 6.26 0 a3.13 3.13 0 1 0 -6.26 0z"
                fill="black"></path>
            <path
                d="M184.37 237.5 a3.13 3.13 0 1 0 6.26 0 a3.13 3.13 0 1 0 -6.26 0zM134.37 187.5 a3.13 3.13 0 1 0 6.26 0 a3.13 3.13 0 1 0 -6.26 0z"
                fill="black"></path>
            <path
                d="M384.37 337.5 a3.13 3.13 0 1 0 6.26 0 a3.13 3.13 0 1 0 -6.26 0zM434.37 362.5 a3.13 3.13 0 1 0 6.26 0 a3.13 3.13 0 1 0 -6.26 0z"
                fill="black"></path>
            <path
                d="M909.37 412.5 a3.13 3.13 0 1 0 6.26 0 a3.13 3.13 0 1 0 -6.26 0zM909.37 337.5 a3.13 3.13 0 1 0 6.26 0 a3.13 3.13 0 1 0 -6.26 0z"
                fill="black"></path>
            <path
                d="M959.37 312.5 a3.13 3.13 0 1 0 6.26 0 a3.13 3.13 0 1 0 -6.26 0zM959.37 387.5 a3.13 3.13 0 1 0 6.26 0 a3.13 3.13 0 1 0 -6.26 0z"
                fill="black"></path>
            <path
                d="M1309.37 237.5 a3.13 3.13 0 1 0 6.26 0 a3.13 3.13 0 1 0 -6.26 0zM1284.37 187.5 a3.13 3.13 0 1 0 6.26 0 a3.13 3.13 0 1 0 -6.26 0z"
                fill="black"></path>
            <path
                d="M1034.37 312.5 a3.13 3.13 0 1 0 6.26 0 a3.13 3.13 0 1 0 -6.26 0zM1034.37 362.5 a3.13 3.13 0 1 0 6.26 0 a3.13 3.13 0 1 0 -6.26 0z"
                fill="black"></path>
            <path
                d="M109.37 12.5 a3.13 3.13 0 1 0 6.26 0 a3.13 3.13 0 1 0 -6.26 0zM109.37 62.5 a3.13 3.13 0 1 0 6.26 0 a3.13 3.13 0 1 0 -6.26 0z"
                fill="black"></path>
            <path
                d="M259.37 412.5 a3.13 3.13 0 1 0 6.26 0 a3.13 3.13 0 1 0 -6.26 0zM259.37 362.5 a3.13 3.13 0 1 0 6.26 0 a3.13 3.13 0 1 0 -6.26 0z"
                fill="black"></path>
            <path
                d="M1359.37 287.5 a3.13 3.13 0 1 0 6.26 0 a3.13 3.13 0 1 0 -6.26 0zM1284.37 287.5 a3.13 3.13 0 1 0 6.26 0 a3.13 3.13 0 1 0 -6.26 0z"
                fill="black"></path>
            <path
                d="M1159.37 562.5 a3.13 3.13 0 1 0 6.26 0 a3.13 3.13 0 1 0 -6.26 0zM1209.37 512.5 a3.13 3.13 0 1 0 6.26 0 a3.13 3.13 0 1 0 -6.26 0z"
                fill="black"></path>
            <path
                d="M359.37 437.5 a3.13 3.13 0 1 0 6.26 0 a3.13 3.13 0 1 0 -6.26 0zM334.37 387.5 a3.13 3.13 0 1 0 6.26 0 a3.13 3.13 0 1 0 -6.26 0z"
                fill="black"></path>
            <path
                d="M1159.37 12.5 a3.13 3.13 0 1 0 6.26 0 a3.13 3.13 0 1 0 -6.26 0zM1234.37 87.5 a3.13 3.13 0 1 0 6.26 0 a3.13 3.13 0 1 0 -6.26 0z"
                fill="black"></path>
            <path
                d="M1034.37 462.5 a3.13 3.13 0 1 0 6.26 0 a3.13 3.13 0 1 0 -6.26 0zM1009.37 412.5 a3.13 3.13 0 1 0 6.26 0 a3.13 3.13 0 1 0 -6.26 0z"
                fill="black"></path>
            <path
                d="M359.37 162.5 a3.13 3.13 0 1 0 6.26 0 a3.13 3.13 0 1 0 -6.26 0zM284.37 212.5 a3.13 3.13 0 1 0 6.26 0 a3.13 3.13 0 1 0 -6.26 0z"
                fill="black"></path>
            <path
                d="M34.37 412.5 a3.13 3.13 0 1 0 6.26 0 a3.13 3.13 0 1 0 -6.26 0zM34.37 462.5 a3.13 3.13 0 1 0 6.26 0 a3.13 3.13 0 1 0 -6.26 0z"
                fill="black"></path>
            <path
                d="M1134.37 437.5 a3.13 3.13 0 1 0 6.26 0 a3.13 3.13 0 1 0 -6.26 0zM1134.37 387.5 a3.13 3.13 0 1 0 6.26 0 a3.13 3.13 0 1 0 -6.26 0z"
                fill="black"></path>
            <path
                d="M734.37 412.5 a3.13 3.13 0 1 0 6.26 0 a3.13 3.13 0 1 0 -6.26 0zM709.37 362.5 a3.13 3.13 0 1 0 6.26 0 a3.13 3.13 0 1 0 -6.26 0z"
                fill="black"></path>
            <path
                d="M1384.37 537.5 a3.13 3.13 0 1 0 6.26 0 a3.13 3.13 0 1 0 -6.26 0zM1434.37 537.5 a3.13 3.13 0 1 0 6.26 0 a3.13 3.13 0 1 0 -6.26 0z"
                fill="black"></path>
            <path
                d="M1359.37 312.5 a3.13 3.13 0 1 0 6.26 0 a3.13 3.13 0 1 0 -6.26 0zM1284.37 312.5 a3.13 3.13 0 1 0 6.26 0 a3.13 3.13 0 1 0 -6.26 0z"
                fill="black"></path>
            <path
                d="M1309.37 412.5 a3.13 3.13 0 1 0 6.26 0 a3.13 3.13 0 1 0 -6.26 0zM1259.37 437.5 a3.13 3.13 0 1 0 6.26 0 a3.13 3.13 0 1 0 -6.26 0z"
                fill="black"></path>
            <path
                d="M1209.37 37.5 a3.13 3.13 0 1 0 6.26 0 a3.13 3.13 0 1 0 -6.26 0zM1284.37 12.5 a3.13 3.13 0 1 0 6.26 0 a3.13 3.13 0 1 0 -6.26 0z"
                fill="black"></path>
            <path
                d="M359.37 187.5 a3.13 3.13 0 1 0 6.26 0 a3.13 3.13 0 1 0 -6.26 0zM409.37 137.5 a3.13 3.13 0 1 0 6.26 0 a3.13 3.13 0 1 0 -6.26 0z"
                fill="black"></path>
            <path
                d="M509.37 62.5 a3.13 3.13 0 1 0 6.26 0 a3.13 3.13 0 1 0 -6.26 0zM409.37 87.5 a3.13 3.13 0 1 0 6.26 0 a3.13 3.13 0 1 0 -6.26 0z"
                fill="black"></path>
            <path
                d="M609.37 137.5 a3.13 3.13 0 1 0 6.26 0 a3.13 3.13 0 1 0 -6.26 0zM559.37 162.5 a3.13 3.13 0 1 0 6.26 0 a3.13 3.13 0 1 0 -6.26 0z"
                fill="black"></path>
            <path
                d="M59.37 312.5 a3.13 3.13 0 1 0 6.26 0 a3.13 3.13 0 1 0 -6.26 0zM134.37 312.5 a3.13 3.13 0 1 0 6.26 0 a3.13 3.13 0 1 0 -6.26 0z"
                fill="black"></path>
            <path
                d="M84.37 412.5 a3.13 3.13 0 1 0 6.26 0 a3.13 3.13 0 1 0 -6.26 0zM159.37 412.5 a3.13 3.13 0 1 0 6.26 0 a3.13 3.13 0 1 0 -6.26 0z"
                fill="black"></path>
            <path
                d="M509.37 512.5 a3.13 3.13 0 1 0 6.26 0 a3.13 3.13 0 1 0 -6.26 0zM559.37 512.5 a3.13 3.13 0 1 0 6.26 0 a3.13 3.13 0 1 0 -6.26 0z"
                fill="black"></path>
            <path
                d="M9.37 462.5 a3.13 3.13 0 1 0 6.26 0 a3.13 3.13 0 1 0 -6.26 0zM9.37 412.5 a3.13 3.13 0 1 0 6.26 0 a3.13 3.13 0 1 0 -6.26 0z"
                fill="black"></path>
        </mask>
    </defs>
</svg>