<svg xmlns="http://www.w3.org/2000/svg" version="1.1" xmlns:xlink="http://www.w3.org/1999/xlink"
    xmlns:svgjs="http://svgjs.dev/svgjs" viewBox="0 0 640 800">
    <defs>
        <linearGradient x1="50%" y1="0%" x2="50%" y2="100%" id="ssscribble-grad">
            <stop stop-color="hsl(206, 75%, 49%)" stop-opacity="1" offset="0%"></stop>
            <stop stop-color="hsl(331, 90%, 56%)" stop-opacity="1" offset="100%"></stop>
        </linearGradient>
    </defs>
    <g fill="none" stroke-width="1.5" stroke="url(#ssscribble-grad)" stroke-linecap="round">
        <path
            d="M870.43 521.54C683.81 558.97 954 463.86 836.95 441.78 696.04 472.32 560.83 547.31 461.69 668.15 408.31 807.43 401.82 939.54 425.16 1018.84 472.52 1015.32 519.11 925.67 552.41 784.06 582.2 667.71 592.35 634 584.89 716.67 573.92 880.81 550.8 1041.71 517.94 1102.71 485.08 1025.7 444.03 858.52 393.03 700.64 338.52 632.97 268.59 681.78 181.85 805.95 91.6 945.23 -9.09 1024.2 -107.1 1014.24 -181.08 923.15 -221.77 785.47 -211.46 647.25 -155.39 533.12 -59.14 467.57 47.54 446.25 114.84 462.66 116.43 496.47 33.67 529.29 -110.65 566.91 -266.5 588.04 -364.77 590 -359.1 589.71 -247.05 572.61 -81.56 539.75 44.3 506.89 67.86 459.84 -13.08 398.15 -157.42 334.22 -286.39 253.32 -342.41 158.76 -307.93 68.98 -195.87 -18.93 -52.2 -86 84.22 -115.34 174.33 -96.98 208.51 -25.92 189.83 69.21 139.17 167.94 81.09 224.82 18.95 200.59 -22.57 92.16 -39.82 -71.19 -44.08 -219.45 -29.05 -286.98 -2.48 -232.02 28.78 -86.85 62.9 73.67 95.76 150.72 128.62 89.76 158.67 -64.47 189.37 -215.94 224.77 -285.95 269.52 -233.57 330.72 -93.14 404.93 72.55 500.57 191.68 613.36 229.44 722.08 184.37 819.92 91.23 881.67 -4.98 890.56 -82.76 839.41 -110.57 737.2 -90.48 627.74 -31.9 545.15 50.46 534.76 137.42 614.87 231.01 762.54 312.47 919.56 377.43 1013.2 440.63 996.3 488.67 870.43 521.54Q870.43 521.54 870.43 521.54"
            opacity="0.83"></path>
        <path
            d="M836.43 340.71C622.85 377.95 642.78 380.72 822.81 368.57 911.31 375.41 929.25 399.05 877.61 451.78 772.68 533.48 645.39 645.76 526.52 775.31 429.17 890.21 369.07 969.47 342.39 983.03 344.7 927.29 362.59 814.1 382.64 685.65 409.73 606.03 426.2 611.38 427.78 713.84 429.02 872.61 414.67 1016.32 384.16 1068.71 353.65 1001.22 308.41 850.43 249.62 695.46 190.5 605.49 118.52 614.92 38.55 705.04 -34.37 836.22 -102.51 943.73 -151.84 988.67 -172.2 962.51 -155.9 873.44 -98.55 753.62 -19.67 624.21 71.44 516.41 144.59 441.39 164.46 396.87 119.15 380.61 8.28 379.41 -202.79 397.89 -258.05 399.5 -47.56 362.48 72.32 331.97 106.06 285.42 47.11 225.66 -77.89 167.65 -207.6 101.25 -289.82 35.33 -301.08 -16.34 -235.48 -50.34 -120.66 -52.86 14.83 -24.87 133.6 39.1 215.01 128.51 254.29 208.35 253.88 261.25 229.42 255.66 184.78 178.96 141.69 44.09 110.63 -109.44 81.97 -221.95 70.86 -248.76 76.1 -170.59 84.11 -27.41 104.23 117.19 134.74 184.72 165.26 132.36 204.72 -5.14 254.26 -152.15 306.56 -242.85 373.18 -230.86 454.72 -128.89 538.66 21.92 632 162.48 723.67 250 795.16 268.23 839.37 225.16 840.09 150.26 798.67 60.71 716.08 -7.76 612.35 -42.44 529.3 -48.15 491.06 -21.55 524.69 24.47 629.29 85.54 776.36 148.97 913.15 205.42 983.87 264.05 956.32 310.19 836.43 340.71Q836.43 340.71 836.43 340.71"
            opacity="0.10"></path>
        <path
            d="M802.43 198.36C659.6 226.53 543.03 247.26 492.85 263.75 522.86 284.08 613.5 307.71 726.2 342.26 829.83 390.46 885.8 459.08 883.15 550.56 826.89 651.87 731.76 761.83 622.2 861.48 510.26 926.66 416.99 944.19 348.78 901.51 302.51 814.15 277.88 700.09 266.04 599.81 265.85 560.11 266.25 599.26 260.45 714.32 256.82 863.97 242.1 990.35 213.94 1034.71 185.77 976.21 145.48 842.18 96 694.09 48.68 588.8 -2.95 563.15 -51.58 614.71 -88.54 721.73 -110.3 835.3 -107.44 916.2 -82.64 948.4 -29.81 920.01 45.2 846.24 117.84 741.03 179.58 629.61 206.52 530.03 179.84 442.86 98.6 379.63 -25.66 336.63 -159.01 307.63 -265.68 288.32 -306.56 270.85 -267.25 257.09 -156.39 237.72 -13.56 209.56 99.79 181.39 141.76 145.76 103.43 106.4 0.37 70.75 -121.79 38.81 -219.06 19 -267.42 13.19 -248.97 30.02 -175.48 73.77 -64.51 129.94 55.48 200.93 161.08 269.22 244.21 306.08 294.11 301.09 315.64 239.58 312.54 129.37 296.65 -9.46 279.22 -137.13 255.31 -209.35 240.65 -199.75 239.25 -105.34 237.83 31.85 250.77 160.19 278.94 218.72 307.11 174.39 349.17 53.73 403.7 -85.05 458.22 -189.26 524.13 -212.39 596.84 -152.06 663.09 -31.14 725.36 108.17 771.87 224.87 793.76 296.88 784.3 312.75 738.08 284.49 669.4 221.75 582.79 152.23 501.16 94.33 456.99 46.26 463.8 24.02 532.81 24.63 650.72 38.9 788.93 66.5 902.85 99.3 952.05 135.93 915.79 170.19 802.43 198.36Q802.43 198.36 802.43 198.36"
            opacity="0.16"></path>
        <path
            d="M768.43 186.9C637.24 212.72 524.54 243.35 463.56 280.34 469.09 320.21 532.12 371.34 626.86 436.34 731.14 507.13 810.24 591.74 847.38 684.59 840.84 769.4 791.32 843.32 713.9 889.87 617.57 898.57 520.56 863.25 434.25 785.52 356.71 690.38 296.97 595.02 252.81 532.14 218.45 530.96 192.79 596.64 170.56 717.19 151.22 854.59 129.77 963.78 103.95 1000.71 78.13 950.66 49.16 833.47 19.82 695.69 -6.64 582.11 -27.95 527.92 -38.34 541.01 -38.92 613.22 -21.69 712.57 16.03 806.16 62.56 877.57 122.5 903.99 184.99 886.17 228.57 831.11 247.48 751.25 227.13 663.25 163.11 569.48 60.86 485.99 -62.35 417.36 -176.01 355.54 -253.74 307.46 -269.23 269.9 -218.22 235.37 -110.75 206.07 20.43 180.25 126.72 154.43 174.94 133.31 155.33 119.14 75.51 108.01 -32.38 109.11 -133.64 126.19 -207.31 150.07 -229.87 191.03 -201.42 245.01 -130.5 293.21 -33.49 336.02 69.44 357.24 170.34 341.24 252.83 284.22 313.11 185.93 354.66 65.46 377.97 -57.03 390.44 -148.18 392.96 -180.21 394.73 -140.74 401.55 -37.14 406.36 90.66 420.59 202.63 446.41 252.71 472.23 215.81 508.42 111.86 552.3 -15.57 594.17 -126.17 639.37 -177.17 681.6 -157.08 713.87 -75.27 733.08 43.23 731.32 165.25 710.84 269.87 665.41 335.81 598.35 360.95 529.26 348.25 462.86 311.4 418.82 266.38 417.25 213.32 462.97 171.23 555.57 145.18 675.75 124.93 798.35 120.77 888.13 129.59 917.71 141.3 874.72 161.08 768.43 186.9Q768.43 186.9 768.43 186.9"
            opacity="0.31"></path>
        <path
            d="M734.38 313.78C614.99 337.25 507.87 372.48 439.65 418.73 424.3 465.58 459.92 523.86 530.93 591.15 623.43 655.87 709.55 723.15 771.7 784.31 805.55 828.34 802.26 851.04 767.89 842.94 708.42 806.68 634.46 740.28 557.3 653.61 476.53 572.37 403.98 509.18 342.92 486.43 286.03 518.37 240.06 602.05 203.45 721.44 168.79 844.15 140.12 936.61 116.65 966.72 93.18 924.53 76.01 823.97 66.4 699.26 58.76 584.17 62.02 509.48 78.24 488.35 98.62 521.44 132.51 591.75 177.11 675.84 218.09 761.09 258.36 822.58 287.07 852.02 290.68 852.02 266.13 821.87 207.84 771.87 121.25 705.84 14.08 635.58 -95.61 569.41 -183.83 501.62 -232.81 443.63 -226.52 397.3 -167.35 351.84 -64.99 317.12 54.39 293.65 179.36 264.62 101.34 269.97 -38.39 304.73 -150.44 346.02 -133.37 403.73 -26.29 371.19 64.26 310.98 152.58 221.67 230.33 111.98 300.38 3.45 355.23 -87.9 396.73 -138.2 430.26 -134.27 456.02 -72.95 478.19 33.07 497.95 148.73 518.67 244.53 542.14 286.72 565.61 256.61 590.73 168.9 615.23 55.26 645.8 -90.23 652.51 -58.05 610.54 89.74 568.97 200.85 514.34 295.08 454.55 362.11 407.55 400.97 376.71 411.97 375.31 404.11 411.67 379.13 485.05 350.5 588.12 326.46 700.67 299.85 802.83 284.27 868.52 281.68 880.85 279.7 833.14 290.3 734.43 313.77Q734.38 313.78 734.38 313.78"
            opacity="0.13"></path>
        <path
            d="M700.92 496.51C593.48 517.63 493.35 548.84 421.18 588.1 389.02 626.1 399.21 669.32 443.77 713.16 515.32 750.09 593.9 779.93 664.3 795.64 722.44 795.27 755.03 773.48 761.42 728.23 745.71 670.34 709.94 599.38 662.03 527.57 603.49 475.37 543.18 450.02 486.76 464.04 428.87 520.75 378.68 613.5 337.97 725.9 297.63 832.23 266.49 908.67 245.37 932.61 224.24 897.69 214.13 813.25 214.63 703.65 215.5 593.13 227.26 506.67 248.55 458.81 268.36 454.67 293.88 488.59 319.86 546.71 335.21 621.47 340.65 692.07 328.67 747.07 294.59 787.3 236.96 803.19 156.82 797.74 64.43 776.08 -33.09 741.3 -120.12 700.69 -180.17 653.61 -202.39 608.24 -178.38 569.01 -114.36 528.71 -18.51 497.02 88.92 475.9 206.68 449.98 175.5 448.51 60.29 462.45 -25.15 466.47 -93.25 466.45 -134.28 455.57 -148.17 428.46 -131.4 382.25 -90.89 314.35 -31.28 231.66 38 136.01 108.26 39.26 181.05 -40.86 246.45 -93.73 301.9 -105.09 354.23 -72.73 397.04 1.68 431.3 104.05 464.07 205.49 490.82 285.66 511.94 320.61 533.07 296.69 547.57 224.55 554.64 126.37 560.22 22.12 555.84 -58.61 540.12 -99.85 521.28 -98.39 490.66 -54.1 450.44 20.08 412.74 113.89 373.77 209.89 341.85 295.48 329.03 368.42 337.3 420.54 373.19 453.46 436.22 470.31 523.27 475.26 624.2 474.94 760.9 465.32 816.54 470.36 700.92 496.51Q700.92 496.51 700.92 496.51"
            opacity="0.33"></path>
        <path
            d="M666.37 616.75C570.93 635.53 479.35 656.75 406.97 678.66 363.26 698.82 352.46 716.29 371.57 727.41 417.59 732.31 477.89 725.86 541.18 705.04 604.94 675.58 655.79 631.67 689.53 576.31 709.5 522.39 711.24 469.62 698.34 428.36 674.32 411.42 642.07 421.8 606.61 464.37 566.74 535.89 528.65 629.19 495.54 729.87 461.62 818.91 434.47 880.3 415.69 898.72 396.92 870.4 387.39 801.3 385.91 708.1 383.6 607.25 387.53 517.61 394.86 452.5 397.77 418.19 399.11 416.18 394.19 440.39 378.14 487.42 349.44 543.62 304.86 598.68 246.51 653.18 173.4 694.65 90.09 720.82 7.24 737.43 -69.89 739.73 -129.67 731.21 -162.54 716.35 -162.43 695.97 -125.97 673.86 -60.83 650.04 26.93 627.83 122.37 609.05 232.01 583.04 242.94 544.03 158.05 519.46 83.42 495.44 13.3 462.22 -42.69 416.66 -83.99 361.55 -102.36 293.12 -99.33 214.01 -78.66 134.34 -42.93 55.88 1.44 -10.7 54.01 -54.45 107.42 -69.29 157.23 -48.74 208.43 2.59 253.04 81.55 289.39 175.15 325.58 261.11 353.51 326.4 372.29 354.72 391.07 336.3 399.81 278.71 399.04 196.92 398.11 103.49 387.66 20.87 369.01 -36.87 351.74 -65.68 329.25 -59.23 305.62 -22.73 290.17 38.07 281.39 113.11 285.33 191.64 306.9 271.6 347.53 342.47 408.38 400.88 483.92 450.63 570.87 488.01 659.27 515.65 735.69 537.08 790.88 553.76 813.45 569.02 799.75 582.52 748.51 597.96 666.42 616.74Q666.37 616.75 666.37 616.75"
            opacity="0.68"></path>
        <path
            d="M632.42 596.11C466.92 628.97 346.58 639.22 316.84 618.35 377.04 586.72 478.08 516.92 565.94 429.64 635.56 379.73 655.4 386.58 639.19 483.82 606.11 643.82 565.09 803.74 532.22 864.71 499.36 787.66 477.77 621.44 453.9 466.55 413.17 382.41 342.05 389.22 229.36 448.01 98.43 539.22 -37.45 607.8 -121.75 636.36 -116.09 652.6 -9.07 639.28 156.42 606.42 282.29 573.56 310.09 524.27 247.29 451.08 125.2 365.57 15.83 245.7 -41.4 111.42 -53.29 9.57 -15.72 -32.09 40.73 27.96 111.09 158.76 170.42 311.66 203.28 388.71 236.14 327.74 239.42 181.14 226.01 45.23 226.5 -27.92 240.21 0.08 295.17 93.05 395.48 223.4 539.7 344.49 685.88 433.07 772.78 510.88 758.29 563.25 632.42 596.11Q632.42 596.11 632.42 596.11"
            opacity="0.32"></path>
        <path
            d="M598.38 448.23C455.56 476.39 338.23 471.97 282.1 439.45 293.7 409.44 351.43 364.05 419.79 329.31 495.86 337.41 544.75 398.14 561.69 517.25 569.73 660.69 556.36 786.36 528.19 830.72 500.02 772.22 459.74 638.97 402.88 496.42 337.13 385.37 244.27 335.77 131.29 337.51 26.01 380.46 -61.58 430.15 -93.83 461.56 -58.35 494.09 47.56 497.91 190.38 469.75 303.76 441.59 348.68 384.11 323.4 302.77 240.74 222.55 145.66 128.9 72.79 49.03 17.77 10.35 2.25 30.06 14.87 120.46 39.85 242.35 72.32 364.19 100.49 422.72 128.66 378.38 149.85 264.13 173.68 141.33 209.87 42.85 269.34 11.99 361.27 40.8 471.06 112.46 596.01 201.81 699.33 280.63 745.27 361.97 711.78 420.05 598.43 448.22Q598.38 448.23 598.38 448.23"
            opacity="0.54"></path>
        <path
            d="M564.38 269C445 292.47 337.66 294.24 267.63 282.71 241.46 279.22 253.99 279.35 286.55 300.76 337.69 352.7 381.36 441.2 405.33 558.01 428.57 674.48 429.38 766.61 405.91 796.72 382.44 754.53 336.9 654.43 272.99 535.72 208.34 422.05 128.04 340.39 46.13 296.12 -17.18 283.02 -54.61 289.3 -45.64 296.71 7.18 311.55 105 311.28 224.38 287.81 323.11 264.33 377.44 219.88 382.31 164.37 341.23 116.29 278.06 73.38 216.95 55.71 153.77 69.2 113.52 125.96 98.71 222.42 89.8 323.91 98.95 414.51 122.42 456.72 145.88 426.63 181.45 344.02 231.03 244.74 286.52 145.13 363.39 81.53 457.34 60.35 549.22 69.7 637.28 106.2 695.58 150.36 707.93 202.57 663.13 245.52 564.43 268.99Q564.38 269 564.38 269"
            opacity="0.44"></path>
        <path
            d="M530.43 174.8C434.98 193.58 343.5 209.78 271.93 227.97 223.81 252.48 201.47 289.74 198.05 345.52 211.58 414.76 228.91 502.97 239.63 598.59 253.6 682.81 253.57 744.27 234.79 762.71 216.01 734.41 180.27 665.42 133.75 577.15 90.49 480.81 43.86 394.92 5.72 329.58 -15.47 279.13 -13.04 246.9 21.31 226.07 79.11 211.62 162.98 197.47 258.43 178.69 340.52 159.91 396.58 138.29 421.55 120.2 415.85 108.48 389.56 111.4 356.07 137.24 312.31 177.97 277.03 243.95 257.86 326.52 238.91 401.03 237.74 462.41 256.52 490.71 275.3 472.27 312.25 418.42 363.74 347.96 415.45 266.11 480.03 197.82 548.41 153.18 629.61 118.04 636.75 146.23 530.43 174.8Q530.43 174.8 530.43 174.8"
            opacity="0.53"></path>
        <path
            d="M496.38 226.8C353.56 254.96 234.79 327.47 173.07 440.62 149.35 560.04 140.29 684.36 112.13 728.72 83.96 670.21 42.01 538.49 28.82 418.71 53.62 309.57 149.56 241.41 292.38 213.25 405.77 185.08 456.38 202.23 456.74 274.46 420.89 357.32 398.57 466.21 426.74 524.72 454.9 480.36 528.22 378.87 600.99 296.37 637.54 220.14 609.77 198.63 496.38 226.8Q496.38 226.8 496.38 226.8"
            opacity="0.46"></path>
        <path
            d="M462.43 391.22C275.29 428.78 145.05 614.92 107.5 694.71 69.94 597.21 139.29 406.58 326.43 369.02 462.52 331.47 498.7 461.21 536.26 558.71 573.81 478.92 598.52 353.67 462.43 391.22Q462.43 391.22 462.43 391.22"
            opacity="0.53"></path>
    </g>
</svg>